<svg xmlns="http://www.w3.org/2000/svg" width="37" height="37" viewBox="0 0 37 37">
  <g id="Icons" transform="translate(-314 -737.476)">
    <g id="Group_4334" data-name="Group 4334" transform="translate(-48.565 -682.438)">
      <rect id="Rectangle_270" data-name="Rectangle 270" width="37" height="37" rx="18.5" transform="translate(362.565 1419.914)" fill="#fffc00"/>
      <g id="Group_118634" data-name="Group 118634" transform="translate(-3707.304 931.442)">
        <g id="Group_126" data-name="Group 126" transform="translate(4099.888 494.472)">
          <path id="Path_203" data-name="Path 203" d="M4139.492,494.472" transform="translate(-4139.492 -494.472)" fill="#fffc01"/>
        </g>
        <path id="Path_204" data-name="Path 204" d="M4088.621,522.442c-.062,0-.122,0-.183,0-.038,0-.079,0-.119,0a5.223,5.223,0,0,1-3.2-1.262,4.667,4.667,0,0,0-1.852-.945,5.975,5.975,0,0,0-.971-.082,6.644,6.644,0,0,0-1.348.152,2.93,2.93,0,0,1-.5.072.316.316,0,0,1-.349-.249c-.056-.191-.1-.374-.135-.553-.1-.459-.171-.741-.363-.771-2.243-.346-2.884-.819-3.028-1.154a.431.431,0,0,1-.034-.143.252.252,0,0,1,.211-.263c3.447-.567,4.993-4.091,5.057-4.241l0-.012a1.314,1.314,0,0,0,.124-1.1c-.236-.557-1.008-.8-1.519-.964-.125-.04-.244-.077-.337-.114-1.019-.4-1.1-.816-1.063-1.027a.961.961,0,0,1,.936-.61.66.66,0,0,1,.28.056,2.967,2.967,0,0,0,1.228.323,1.009,1.009,0,0,0,.733-.234c-.013-.233-.028-.477-.044-.729-.1-1.629-.23-3.655.286-4.81a6.235,6.235,0,0,1,5.79-3.734l.424,0h.058a6.246,6.246,0,0,1,5.8,3.736c.516,1.156.388,3.183.285,4.811l0,.071c-.015.227-.028.447-.04.658a.982.982,0,0,0,.669.233h0a3.074,3.074,0,0,0,1.158-.321.867.867,0,0,1,.359-.071,1.1,1.1,0,0,1,.413.079l.008,0a.759.759,0,0,1,.578.618c0,.239-.178.6-1.072.951-.092.037-.211.074-.337.114-.511.162-1.282.407-1.518.964a1.312,1.312,0,0,0,.124,1.1l.005.013c.064.149,1.608,3.672,5.057,4.24a.254.254,0,0,1,.211.264.427.427,0,0,1-.035.144c-.143.333-.784.8-3.026,1.151-.184.028-.255.267-.364.768-.04.182-.08.361-.135.549a.3.3,0,0,1-.321.24h-.027a2.813,2.813,0,0,1-.5-.063,6.7,6.7,0,0,0-1.347-.143,5.966,5.966,0,0,0-.973.082,4.664,4.664,0,0,0-1.849.943,5.222,5.222,0,0,1-3.2,1.263" transform="translate(-0.416 -3.467)" fill="#fff"/>
        <path id="Path_205" data-name="Path 205" d="M4088.289,499.877a5.992,5.992,0,0,1,5.57,3.586c.491,1.1.365,3.092.264,4.693-.017.254-.032.5-.044.735l-.006.1.068.076a1.2,1.2,0,0,0,.849.319h.018a3.316,3.316,0,0,0,1.256-.345.613.613,0,0,1,.253-.047.844.844,0,0,1,.318.06l.015.006c.24.084.411.244.413.387,0,.082-.06.374-.912.711-.084.033-.194.068-.321.108-.555.176-1.393.442-1.675,1.106a1.55,1.55,0,0,0,.129,1.314c.1.234,1.684,3.8,5.248,4.39a.174.174,0,0,1-.015.057c-.06.142-.444.634-2.833,1-.374.058-.465.477-.572.964-.038.174-.077.35-.131.532-.016.055-.019.059-.078.059h-.029a2.679,2.679,0,0,1-.453-.059,6.971,6.971,0,0,0-1.4-.148,6.22,6.22,0,0,0-1.013.086,4.853,4.853,0,0,0-1.956.987,5.013,5.013,0,0,1-3.053,1.216c-.058,0-.115,0-.171,0H4088c-.032,0-.065,0-.1,0a5.012,5.012,0,0,1-3.053-1.216,4.851,4.851,0,0,0-1.956-.988,6.267,6.267,0,0,0-1.014-.086,6.865,6.865,0,0,0-1.4.157,2.8,2.8,0,0,1-.454.068c-.086,0-.087,0-.105-.068-.054-.182-.094-.362-.131-.536-.107-.487-.2-.909-.572-.967-2.39-.368-2.773-.861-2.834-1a.156.156,0,0,1-.015-.058c3.564-.588,5.147-4.155,5.248-4.39a1.55,1.55,0,0,0,.129-1.313c-.282-.665-1.12-.931-1.675-1.107-.127-.04-.236-.075-.32-.108-.721-.285-.942-.571-.908-.745.038-.2.385-.4.688-.4a.406.406,0,0,1,.172.032,3.219,3.219,0,0,0,1.335.347,1.232,1.232,0,0,0,.925-.321l.067-.075-.006-.1c-.012-.235-.028-.481-.044-.735-.1-1.6-.227-3.592.264-4.692a5.985,5.985,0,0,1,5.559-3.584l.427,0Zm0-.505h-.06l-.422,0a6.485,6.485,0,0,0-6.02,3.884c-.541,1.213-.411,3.272-.307,4.927.012.195.025.4.036.593a.972.972,0,0,1-.474.1,2.719,2.719,0,0,1-1.121-.3.908.908,0,0,0-.386-.079,1.209,1.209,0,0,0-1.185.815c-.067.351.091.863,1.219,1.309.1.04.224.079.353.12.466.148,1.171.372,1.363.823a1.08,1.08,0,0,1-.118.892c0,.008-.008.017-.011.025-.062.144-1.554,3.544-4.866,4.09a.506.506,0,0,0-.422.527.692.692,0,0,0,.053.227c.249.581,1.3,1.007,3.207,1.3a2.329,2.329,0,0,1,.171.576c.04.183.081.372.14.572a.564.564,0,0,0,.591.43,3.112,3.112,0,0,0,.55-.077,6.429,6.429,0,0,1,1.3-.147,5.7,5.7,0,0,1,.932.079,4.419,4.419,0,0,1,1.745.9,5.5,5.5,0,0,0,3.346,1.309c.041,0,.082,0,.123,0s.112,0,.179,0a5.5,5.5,0,0,0,3.345-1.308,4.419,4.419,0,0,1,1.746-.9,5.694,5.694,0,0,1,.931-.079,6.44,6.44,0,0,1,1.3.138,3.072,3.072,0,0,0,.55.068h.029a.549.549,0,0,0,.563-.422c.058-.2.1-.379.139-.566a2.364,2.364,0,0,1,.17-.575c1.91-.3,2.958-.721,3.207-1.3a.691.691,0,0,0,.055-.228.5.5,0,0,0-.423-.527c-3.313-.546-4.8-3.946-4.866-4.09l-.011-.024a1.082,1.082,0,0,1-.117-.892c.191-.451.9-.674,1.362-.822.13-.042.252-.081.353-.12.826-.327,1.241-.727,1.232-1.191a.989.989,0,0,0-.743-.85h0a1.349,1.349,0,0,0-.508-.1,1.122,1.122,0,0,0-.467.095,2.836,2.836,0,0,1-1.05.3.922.922,0,0,1-.409-.1c.009-.168.021-.341.031-.521l0-.07c.1-1.656.234-3.717-.307-4.93a6.5,6.5,0,0,0-6.032-3.886" transform="translate(0 -3.05)" fill="#030303"/>
      </g>
    </g>
  </g>
</svg>
