<svg xmlns="http://www.w3.org/2000/svg" xmlns:xlink="http://www.w3.org/1999/xlink" width="37" height="37" viewBox="0 0 37 37">
  <defs>
    <linearGradient id="linear-gradient" x1="0.5" x2="0.5" y2="0.993" gradientUnits="objectBoundingBox">
      <stop offset="0" stop-color="#2aabee"/>
      <stop offset="1" stop-color="#229ed9"/>
    </linearGradient>
  </defs>
  <g id="Icons" transform="translate(0.121)">
    <rect id="Rectangle_61" data-name="Rectangle 61" width="37" height="37" rx="18.5" transform="translate(-0.121)" fill="url(#linear-gradient)"/>
    <path id="Path_4910" data-name="Path 4910" d="M25.773,46.707q9.261-4.022,12.351-5.3c5.882-2.439,7.1-2.862,7.9-2.876a1.4,1.4,0,0,1,.821.246.888.888,0,0,1,.3.572,3.713,3.713,0,0,1,.035.831c-.319,3.338-1.7,11.439-2.4,15.178-.3,1.582-.881,2.112-1.447,2.164-1.23.113-2.164-.81-3.355-1.589-1.864-1.218-2.917-1.976-4.726-3.165-2.091-1.374-.735-2.128.456-3.362.312-.323,5.731-5.236,5.836-5.682a.43.43,0,0,0-.1-.373.489.489,0,0,0-.438-.042q-.28.063-8.933,5.886a4.029,4.029,0,0,1-2.3.846,15.156,15.156,0,0,1-3.292-.777c-1.326-.43-2.38-.657-2.289-1.387Q24.269,47.3,25.773,46.707Z" transform="translate(-18.313 -29.528)" fill="#fff"/>
  </g>
</svg>
