<svg xmlns="http://www.w3.org/2000/svg" width="37" height="37" viewBox="0 0 37 37">
  <g id="Icons" transform="translate(0.121)">
    <rect id="Rectangle_61" data-name="Rectangle 61" width="37" height="37" rx="18.5" transform="translate(-0.121)" fill="#2aa4ef"/>
    <path id="Twitter" d="M385.812,706.112a7.629,7.629,0,0,1-2.477.979,3.827,3.827,0,0,0-2.845-1.275,3.97,3.97,0,0,0-3.9,4.039,4.165,4.165,0,0,0,.1.92,10.94,10.94,0,0,1-8.035-4.222,4.146,4.146,0,0,0-.528,2.033,4.078,4.078,0,0,0,1.734,3.362,3.8,3.8,0,0,1-1.767-.5v.05a4.007,4.007,0,0,0,3.128,3.961,3.678,3.678,0,0,1-1.027.142,3.745,3.745,0,0,1-.734-.072,3.919,3.919,0,0,0,3.641,2.8,7.647,7.647,0,0,1-4.841,1.73,7.767,7.767,0,0,1-.93-.055,10.772,10.772,0,0,0,5.975,1.813c7.171,0,11.091-6.154,11.091-11.492,0-.176,0-.351-.01-.523a8.056,8.056,0,0,0,1.944-2.091,7.553,7.553,0,0,1-2.238.636A4.025,4.025,0,0,0,385.812,706.112Z" transform="translate(-358.457 -695.316)" fill="#fff"/>
  </g>
</svg>
