<svg xmlns="http://www.w3.org/2000/svg" width="37" height="37" viewBox="0 0 37 37">
  <g id="Icons" transform="translate(-362.565 -1419.914)">
    <rect id="Rectangle_270" data-name="Rectangle 270" width="37" height="37" rx="18.5" transform="translate(362.565 1419.914)" fill="#6bc45a"/>
    <path id="WhatsApp" d="M392.7,1439.151a10.334,10.334,0,0,1-15.3,8.962l-5.711,1.815,1.861-5.492a10.135,10.135,0,0,1-1.48-5.285,10.317,10.317,0,0,1,20.633,0Zm-10.316-8.607a8.65,8.65,0,0,0-8.673,8.607,8.512,8.512,0,0,0,1.652,5.046l-1.084,3.2,3.333-1.06a8.629,8.629,0,1,0,4.772-15.789Zm5.209,10.964c-.064-.1-.232-.167-.485-.293s-1.5-.733-1.728-.816-.4-.125-.569.125-.653.816-.8.983-.295.188-.548.063a6.917,6.917,0,0,1-2.033-1.245,7.56,7.56,0,0,1-1.407-1.738c-.148-.251-.016-.387.111-.511s.253-.293.38-.44a1.7,1.7,0,0,0,.252-.418.459.459,0,0,0-.021-.44c-.063-.125-.569-1.36-.78-1.863s-.421-.418-.569-.418-.316-.021-.485-.021a.934.934,0,0,0-.675.314,2.8,2.8,0,0,0-.885,2.092,4.858,4.858,0,0,0,1.032,2.6,10.345,10.345,0,0,0,4.319,3.788c2.571,1,2.571.669,3.035.627a2.553,2.553,0,0,0,1.707-1.193,2.083,2.083,0,0,0,.148-1.193Z" transform="translate(-1.108 -0.983)" fill="#fff"/>
  </g>
</svg>
