<svg xmlns="http://www.w3.org/2000/svg" xmlns:xlink="http://www.w3.org/1999/xlink" width="1121.376" height="651.048" viewBox="0 0 1121.376 651.048">
  <defs>
    <clipPath id="clip-path">
      <rect id="Rectangle_145" data-name="Rectangle 145" width="1106.476" height="647.238" fill="none"/>
    </clipPath>
  </defs>
  <g id="Group_286" data-name="Group 286" transform="translate(-23.421 -53.92)">
    <g id="cloud" transform="translate(64.818 127.542)">
      <path id="Path_858" data-name="Path 858" d="M203.4,939.243C296.129,901.091,387.358,748.282,344.764,623.6c-73.917-216.374,212.915-347.5,366.081-194.339,97.169,97.17,332.184-54.234,442.913,110.728,59.171,88.153-26.351,228.659-22.794,296.825,3.366,64.5,89.262,102.434,89.262,102.434Z" transform="translate(-197.119 -362.792)" fill="#d9f3ff"/>
      <path id="Path_859" data-name="Path 859" d="M1263.293,2041.047H186.818a1.752,1.752,0,0,1-1.752-1.752h0a1.752,1.752,0,0,1,1.752-1.752H1263.293a1.752,1.752,0,0,1,1.752,1.752h0A1.752,1.752,0,0,1,1263.293,2041.047Z" transform="translate(-185.066 -1463.621)"/>
    </g>
    <g id="call_center" data-name="call center" transform="translate(23.421 53.92)">
      <g id="Group_260" data-name="Group 260">
        <g id="Group_259" data-name="Group 259" clip-path="url(#clip-path)">
          <g id="Group_258" data-name="Group 258" transform="translate(243.973 215.378)">
            <g id="Group_244" data-name="Group 244" transform="translate(336.352)">
              <g id="Group_234" data-name="Group 234" transform="translate(198.2 58.645)">
                <g id="Group_233" data-name="Group 233">
                  <path id="Path_860" data-name="Path 860" d="M2492.5,1129.46l-20.5,22.646-35.951-39,24.333-9.271Z" transform="translate(-2401.783 -1050.287)" fill="#ffa46e"/>
                  <g id="Group_232" data-name="Group 232">
                    <g id="Group_231" data-name="Group 231">
                      <g id="Group_230" data-name="Group 230">
                        <g id="Group_229" data-name="Group 229">
                          <path id="Path_861" data-name="Path 861" d="M2406.131,1032.949l-1.249.651-12.417,6.479a6.874,6.874,0,0,1-9.3-2.811c-10.6-26.7-23.162-51.251-38.8-72.44a6.873,6.873,0,0,1,2.815-9.3l12.976-6.774.691-.36a6.869,6.869,0,0,1,9.3,2.815c15.427,22.071,28.2,46.349,38.8,72.436A6.874,6.874,0,0,1,2406.131,1032.949Z" transform="translate(-2340.981 -947.578)" fill="#545454"/>
                          <path id="Path_862" data-name="Path 862" d="M2366.5,969.8l-15.824,8.288a6.236,6.236,0,0,1-8.441-2.552l-5.421-10.121a6.235,6.235,0,0,1,2.552-8.441l15.824-8.288a6.236,6.236,0,0,1,8.441,2.552l5.422,10.121A6.236,6.236,0,0,1,2366.5,969.8Z" transform="translate(-2336.069 -947.822)" fill="#333"/>
                          <path id="Path_863" data-name="Path 863" d="M2366.348,975l-12.413,6.46a5.376,5.376,0,0,1-7.277-2.2l-4.882-9.114a5.376,5.376,0,0,1,2.2-7.277l12.413-6.46a5.376,5.376,0,0,1,7.277,2.2l4.882,9.114A5.375,5.375,0,0,1,2366.348,975Z" transform="translate(-2339.401 -952.961)" fill="#6e6e6e"/>
                          <path id="Path_864" data-name="Path 864" d="M2465.773,1155.135l-15.824,8.288a6.236,6.236,0,0,1-8.441-2.552l-5.421-10.121a6.236,6.236,0,0,1,2.552-8.441l15.825-8.288a6.235,6.235,0,0,1,8.441,2.552l5.422,10.121A6.236,6.236,0,0,1,2465.773,1155.135Z" transform="translate(-2401.324 -1069.641)" fill="#333"/>
                        </g>
                        <path id="Path_865" data-name="Path 865" d="M2465.971,1160.973l-12.413,6.461a5.375,5.375,0,0,1-7.277-2.2l-4.882-9.114a5.375,5.375,0,0,1,2.2-7.276l12.413-6.46a5.375,5.375,0,0,1,7.276,2.2l4.882,9.114A5.375,5.375,0,0,1,2465.971,1160.973Z" transform="translate(-2404.884 -1075.205)" fill="#6e6e6e"/>
                      </g>
                    </g>
                  </g>
                </g>
                <path id="Path_866" data-name="Path 866" d="M2425,1114.092c-1.239-.275-12.526-6.882-2.616-24.225,7.157-.55,7.93,8.629,6.607,11.011C2424.857,1108.311,2425,1114.092,2425,1114.092Z" transform="translate(-2390.146 -1041.091)" fill="#ffa46e"/>
                <path id="Path_867" data-name="Path 867" d="M2437.98,1032.949l-1.249.651c.27-.666,1.011-2.495,1.746-4.614.932-2.674-10.931-20.937-10.931-20.937s-12.681-1.746-18.612-13.379a29.238,29.238,0,0,1-1.281-22.8s-6.162-10.816-8.955-16.981a12.059,12.059,0,0,0-6.7-6.137l.691-.36a6.869,6.869,0,0,1,9.3,2.815c15.427,22.071,28.2,46.349,38.8,72.436A6.874,6.874,0,0,1,2437.98,1032.949Z" transform="translate(-2372.83 -947.578)" fill="#333"/>
                <path id="Path_868" data-name="Path 868" d="M2454.358,1047.812c3.341,1.76,6.918-.683,9.91,0,1.541.352,1.827,2.686,3.166,3.579,6.745-9.5-6.253-33.656-17.5-38.871-.731-.339-8.464.4-8.061,12.293C2442.13,1032.266,2451.017,1046.052,2454.358,1047.812Z" transform="translate(-2405.607 -990.226)" fill="#ffa46e"/>
              </g>
              <path id="Path_869" data-name="Path 869" d="M2523.6,1322.674c0,.008,0,.018-.006.026a23.518,23.518,0,0,1-1.6,5.27c-3.509,8.027-11.919,14.883-27.539,17.5-24.219,1.835-59.663,3.333-91.2,5.587-9.063.648-17.806,1.359-25.865,2.158-33.36-8.608-53.383-59.587-14.279-70.4,4.424-1.224,22.751-1.575,45.21-.987,40.838,1.065,95.333,5.236,104.732,12.914C2520.462,1300.793,2525.506,1312.137,2523.6,1322.674Z" transform="translate(-2141.519 -1108.456)" fill="#fff"/>
              <g id="Group_238" data-name="Group 238" transform="translate(108.129)">
                <g id="Group_235" data-name="Group 235" transform="translate(32.747 127.733)">
                  <path id="Path_870" data-name="Path 870" d="M2238,1199.984c-19.972,16.1-48.223,20.35-69.213,1.361.2-10.531,3.122-41.921,2.409-52.163l65.108,8.781C2236.807,1170.312,2237.5,1187.586,2238,1199.984Z" transform="translate(-2168.792 -1149.183)" fill="#ffa46e"/>
                  <path id="Path_871" data-name="Path 871" d="M2246.056,1177.612c-.037-.942-.071-1.91-.106-2.8h-48.081l-14.534,3.061s20.61,34.026,64.137,39.032C2246.956,1202.546,2246.323,1184.909,2246.056,1177.612Z" transform="translate(-2178.351 -1166.026)" fill="#d46c42"/>
                </g>
                <g id="Group_237" data-name="Group 237">
                  <ellipse id="Ellipse_6" data-name="Ellipse 6" cx="8.014" cy="10.158" rx="8.014" ry="10.158" transform="translate(100.868 75.43) rotate(-2.846)" fill="#ffa46e"/>
                  <path id="Path_872" data-name="Path 872" d="M2189.939,886.9c-.323,1.1,13.7,51.535,11.965,64.128-14.632,37.738-39.373,51.2-79.594,22.473-5.926-6.889-24.281-45.229-24.6-45.592C2070.993,876.133,2169.948,832.58,2189.939,886.9Z" transform="translate(-2086.334 -832.599)" fill="#ffa46e"/>
                  <path id="Path_873" data-name="Path 873" d="M2167.41,857.007c8.622,2.018,11.635,25.245,14.133,32.33l.473-1.344c2.173-96.74-158.683-48.477-93.019,30.4,4.758,2.907,9.875,12.47,12.748,19.385-.77-4.7,4.767-19.067,2.824-29.7,0,0-11.416-14.421-7.911-28.272,2.148-8.488,20.331-5.9,35.809-11.536C2148.215,862.536,2161.214,854.671,2167.41,857.007Z" transform="translate(-2073.234 -814.395)"/>
                  <path id="Path_874" data-name="Path 874" d="M2227.353,1042.756c1.94,5.361-3.6,7.392-5.583,2.049C2219.829,1039.444,2225.366,1037.413,2227.353,1042.756Z" transform="translate(-2170.6 -949.436)"/>
                  <path id="Path_875" data-name="Path 875" d="M2354.209,996.762c1.94,5.36-3.6,7.392-5.583,2.049C2346.685,993.451,2352.222,991.419,2354.209,996.762Z" transform="translate(-2253.985 -919.204)"/>
                  <path id="Path_876" data-name="Path 876" d="M2306.426,1057.059c10.851-3.459-4.644-15.962-7.841-19.194l-2.618-7.135a.915.915,0,0,0-1.718.63l2.778,7.572c4.946,4.309,11.945,11.742,11.466,14.213-1.151,4.083-11.5,2.324-11.108,4.239C2297.307,1059.2,2303.086,1058.048,2306.426,1057.059Z" transform="translate(-2218.471 -943.196)" fill="#c75038"/>
                  <path id="Path_877" data-name="Path 877" d="M2267.781,1150.887c2.866-1.052,4.777-1.9,5.055-2.028a.916.916,0,0,0-.751-1.669c-.253.114-25.362,11.279-35.2,3.944a.915.915,0,0,0-1.28.186C2239.618,1159.72,2260.938,1153.448,2267.781,1150.887Z" transform="translate(-2179.965 -1020.08)" fill="#c75038"/>
                  <path id="Path_878" data-name="Path 878" d="M2195.487,1018.012c-8.136-.32,5.608-12.683,13.669-9.621a1.83,1.83,0,1,1-.727,3.586C2199.053,1010.56,2197.426,1017.125,2195.487,1018.012Z" transform="translate(-2151.957 -928.586)"/>
                  <path id="Path_879" data-name="Path 879" d="M2320.116,972.186c-7.1.286,2.668-11.658,13.875-9.057a1.83,1.83,0,1,1-.727,3.587C2323.911,965.255,2321.953,971.348,2320.116,972.186Z" transform="translate(-2233.927 -898.912)"/>
                  <path id="Path_880" data-name="Path 880" d="M2079.6,829.678s18.684-40.62,56.342-50.735,29.68,13.8,29.68,13.8c39.583-6.2-20.536,37.035-36.4,40.243C2114.9,836.917,2078.716,841.548,2079.6,829.678Z" transform="translate(-2077.406 -776.448)"/>
                  <g id="Group_236" data-name="Group 236" transform="translate(3.511 94.419)">
                    <ellipse id="Ellipse_7" data-name="Ellipse 7" cx="11.643" cy="14.758" rx="11.643" ry="14.758" transform="translate(0 14.16) rotate(-37.454)" fill="#ffa46e"/>
                    <path id="Path_881" data-name="Path 881" d="M2123.616,1106.826a1.033,1.033,0,0,1-1.269-.489c-3.737-7.109-6.554-8.415-7.9-8.56a2.63,2.63,0,0,0-2.223.817,1.038,1.038,0,0,1-1.449.138,1.027,1.027,0,0,1-.155-1.438,4.711,4.711,0,0,1,3.988-1.576c3.137.3,6.356,3.551,9.566,9.659a1.032,1.032,0,0,1-.559,1.45Z" transform="translate(-2101.171 -1080.71)" fill="#c75038"/>
                  </g>
                </g>
              </g>
              <g id="Group_242" data-name="Group 242" transform="translate(66.047 161.042)">
                <g id="_03" data-name="03">
                  <g id="Group_241" data-name="Group 241">
                    <path id="Path_882" data-name="Path 882" d="M1976.67,1559.067c-.855,10-1.73,20.458-2.576,30.9h161.04l1.16-303.23c-8.24-1.744-19.3-6.015-30.489-6.94-7.024,7.535-11.246,12.8-23.2,13.066-7.393.16-18.318-3.652-25.485-13.679-57.369,5.65-87.156,25.74-87.156,25.74l26.454,183.734S1979.888,1521.42,1976.67,1559.067Z" transform="translate(-1963.27 -1267.941)" fill="#9eddff"/>
                    <path id="Path_883" data-name="Path 883" d="M2180.264,2158.577l-1.412-14.335c-46.163,13.533-143.676,16.563-192.935,0-.424,4.96-.853,9.73-1.28,14.335Z" transform="translate(-1972.916 -1836.553)" fill="#204f63"/>
                    <g id="Group_240" data-name="Group 240" transform="translate(65.635)">
                      <g id="Group_239" data-name="Group 239" transform="translate(36.315 25.301)">
                        <path id="Path_884" data-name="Path 884" d="M2272.384,1345.623l10.425-13.456-16.841-11.955-18.037,11.5,10.657,13.911Z" transform="translate(-2247.93 -1320.211)" fill="#3086b3"/>
                        <path id="Path_885" data-name="Path 885" d="M2321.9,1573.335l-20.917,34.419-20.053-33.33c4.785-61.425,2.594-140.715-1.5-205.326l14.259.095C2307.184,1434.912,2318.429,1512.723,2321.9,1573.335Z" transform="translate(-2268.635 -1352.345)" fill="#3086b3"/>
                      </g>
                      <path id="Path_886" data-name="Path 886" d="M2331.793,1269.209l-7.442-7.743c-.633,7.865-15.2,18.055-23.786,20.131,7.716,6.572,13.676,11.55,21.434,23.522Z" transform="translate(-2246.213 -1256.296)" fill="#5bb9eb"/>
                      <path id="Path_887" data-name="Path 887" d="M2141.961,1260.506l11.2-14.125s22.45,16.78,43.156,25.3c-9.272,6.984-13.507,14.174-19.067,23.522Z" transform="translate(-2141.961 -1246.381)" fill="#5bb9eb"/>
                    </g>
                    <path id="Path_888" data-name="Path 888" d="M1950.433,1596.809h90.579c12.128-106.359.072-209.075-26.231-307.215-49.878,7.45-58.054,22.172-58.054,22.172l21.537,187.8Z" transform="translate(-1950.433 -1274.785)" fill="#fff"/>
                    <path id="Path_889" data-name="Path 889" d="M2405.25,1591.707H2452.1L2439.922,1459.3l-8.067-162.756c-22.863-10.949-30.113-12.171-42.326-14.712C2406.247,1390.147,2412.078,1492.828,2405.25,1591.707Z" transform="translate(-2239.055 -1269.683)" fill="#fff"/>
                  </g>
                </g>
              </g>
              <path id="Path_890" data-name="Path 890" d="M2160.334,1909.883l.13-.03c10.522-2.546,2.563-56.3,2.563-56.3-16.123,3.394-33.791,56.3-33.791,56.3l.253.03Z" transform="translate(-2001.916 -1484.441)" fill="#276c9c"/>
              <path id="Path_891" data-name="Path 891" d="M1950.23,1457.909l-26.184,88.073,62.887,36.3c-26.959,7.8-36.755,34.745-47.866,60.221l-76.149-60.836,46.764-142.568Z" transform="translate(-1826.861 -1212.013)" fill="#d9f1ff"/>
              <g id="Group_243" data-name="Group 243" transform="translate(131.579 391.595)">
                <path id="Path_892" data-name="Path 892" d="M2221.856,1953.622l-60.623-.169-16.28-.047c-3.977-8.509-6.144-17.69,4.251-31.544,0,0,2.566-.245,6.5-.587,8.973-.781,25.069-2.069,34.139-2.12C2210.9,1919.036,2221.856,1953.622,2221.856,1953.622Z" transform="translate(-2141.661 -1919.154)" fill="#ffa46e"/>
                <path id="Path_893" data-name="Path 893" d="M2161.233,1957.519l-16.28-.047c-3.977-8.509-6.144-17.69,4.251-31.544,0,0,2.566-.245,6.5-.587C2154.863,1930.718,2152.948,1947.966,2161.233,1957.519Z" transform="translate(-2141.661 -1923.221)" fill="#d17743"/>
                <path id="Path_894" data-name="Path 894" d="M2287.425,1919.29c.644,0,18.9-1.074,25.134,3.652s12.03,15.682,12.03,15.682-1.074,2.363-6.23.644-10.1-9.667-10.1-9.667l-18.474-1.289Z" transform="translate(-2237.473 -1919.174)" fill="#ffa46e"/>
                <path id="Path_895" data-name="Path 895" d="M2315.192,1973.793a.193.193,0,0,1-.189-.157c-3.72-19.274-19.59-23.487-19.75-23.528a.193.193,0,0,1,.094-.375c.162.041,16.27,4.317,20.035,23.829a.193.193,0,0,1-.154.226A.188.188,0,0,1,2315.192,1973.793Z" transform="translate(-2242.522 -1939.251)" fill="#d66d2d"/>
                <path id="Path_896" data-name="Path 896" d="M2295.357,1992.385a.193.193,0,0,1-.18-.123c-3.139-8.057-17.477-13.649-17.621-13.705a.193.193,0,0,1,.138-.36c.146.056,14.642,5.71,17.842,13.925a.193.193,0,0,1-.11.25A.19.19,0,0,1,2295.357,1992.385Z" transform="translate(-2230.904 -1957.955)" fill="#d66d2d"/>
              </g>
              <path id="Path_897" data-name="Path 897" d="M1830.044,1352.115c-1.313.405-95.571,139.133-66.924,182.651,10.4,15.794,131.854,49.145,131.854,49.145-5.681-15.715.173-35.44,23.944-61.394-2.267,0-81.881-29.367-81.881-29.367s47.014-88.913,47.769-112.341S1856.9,1343.826,1830.044,1352.115Z" transform="translate(-1757.703 -1153.23)" fill="#fff"/>
              <path id="Path_898" data-name="Path 898" d="M2533.837,1140.7s89.233,54.98,96.877,68.9c9.315,16.961,1.135,43.171-30.351,41.1s-91.354-71.834-91.354-71.834Z" transform="translate(-2251.543 -1015.876)" fill="#fff"/>
              <path id="Path_899" data-name="Path 899" d="M2565.809,1304.9c-22.339-13.3-56.722-52.435-57.067-52.828l1.176-1.029c.343.392,34.564,39.345,56.691,52.515Z" transform="translate(-2251.368 -1088.402)" fill="#d9f1ff"/>
              <path id="Path_900" data-name="Path 900" d="M2633.416,1417.007c-3.509,8.027-11.919,14.883-27.538,17.5-24.219,1.835-59.663,3.333-91.2,5.588-1.479-8.462-3.541-20.673-3.541-20.673s43.181,11.823,80.219,10.3c16.64-.682,32.038-4.059,41.721-12.412C2633.19,1417.21,2633.3,1417.111,2633.416,1417.007Z" transform="translate(-2252.941 -1197.493)" fill="#f2faff"/>
              <path id="Path_901" data-name="Path 901" d="M2502.053,1208.744l-4.247,2.282-4.916-6.125,6.769-3.637Z" transform="translate(-2240.948 -1055.683)" fill="#333"/>
              <path id="Path_902" data-name="Path 902" d="M2511.2,1237.181a.72.72,0,0,1-.538-1.2c3.853-4.335-2.808-21.234-5.7-27.38a.72.72,0,1,1,1.3-.613c.441.937,10.742,23.021,5.473,28.949A.719.719,0,0,1,2511.2,1237.181Z" transform="translate(-2248.839 -1059.833)" fill="#333"/>
              <path id="Path_903" data-name="Path 903" d="M2519.945,1291.016a.72.72,0,0,1-.392-1.324l6.969-4.517a.72.72,0,1,1,.783,1.209l-6.969,4.517A.719.719,0,0,1,2519.945,1291.016Z" transform="translate(-2258.258 -1110.762)" fill="#333"/>
              <path id="Path_904" data-name="Path 904" d="M2521.457,1297.819a.72.72,0,0,1-.392-1.324l6.97-4.517a.72.72,0,1,1,.783,1.208l-6.969,4.517A.717.717,0,0,1,2521.457,1297.819Z" transform="translate(-2259.252 -1115.234)" fill="#333"/>
              <path id="Path_905" data-name="Path 905" d="M2522.969,1304.621a.72.72,0,0,1-.393-1.324l6.97-4.517a.72.72,0,0,1,.783,1.208l-6.97,4.517A.714.714,0,0,1,2522.969,1304.621Z" transform="translate(-2260.246 -1119.705)" fill="#333"/>
              <path id="Path_906" data-name="Path 906" d="M2524.48,1311.424a.72.72,0,0,1-.392-1.324l6.97-4.517a.72.72,0,0,1,.783,1.209l-6.97,4.517A.713.713,0,0,1,2524.48,1311.424Z" transform="translate(-2261.239 -1124.177)" fill="#333"/>
              <path id="Path_907" data-name="Path 907" d="M2525.991,1318.227a.72.72,0,0,1-.392-1.324l6.969-4.517a.72.72,0,0,1,.784,1.208l-6.97,4.517A.715.715,0,0,1,2525.991,1318.227Z" transform="translate(-2262.232 -1128.648)" fill="#333"/>
              <path id="Path_908" data-name="Path 908" d="M2527.5,1325.029a.72.72,0,0,1-.393-1.324l6.97-4.517a.72.72,0,0,1,.783,1.208l-6.97,4.518A.719.719,0,0,1,2527.5,1325.029Z" transform="translate(-2263.226 -1133.12)" fill="#333"/>
              <path id="Path_909" data-name="Path 909" d="M2529.015,1331.832a.72.72,0,0,1-.392-1.324l6.969-4.518a.72.72,0,0,1,.783,1.209l-6.969,4.517A.715.715,0,0,1,2529.015,1331.832Z" transform="translate(-2264.22 -1137.591)" fill="#333"/>
              <path id="Path_910" data-name="Path 910" d="M2530.526,1338.634a.72.72,0,0,1-.392-1.324l6.969-4.517a.72.72,0,0,1,.783,1.208l-6.969,4.518A.718.718,0,0,1,2530.526,1338.634Z" transform="translate(-2265.213 -1142.062)" fill="#333"/>
              <path id="Path_911" data-name="Path 911" d="M2532.039,1345.437a.72.72,0,0,1-.392-1.324l6.969-4.518a.72.72,0,1,1,.783,1.209l-6.969,4.517A.716.716,0,0,1,2532.039,1345.437Z" transform="translate(-2266.207 -1146.534)" fill="#333"/>
              <path id="Path_912" data-name="Path 912" d="M2533.55,1352.24a.72.72,0,0,1-.392-1.324l6.969-4.517a.72.72,0,1,1,.783,1.208l-6.969,4.517A.717.717,0,0,1,2533.55,1352.24Z" transform="translate(-2267.2 -1151.006)" fill="#333"/>
              <path id="Path_913" data-name="Path 913" d="M2535.062,1359.042a.72.72,0,0,1-.392-1.324l6.97-4.517a.72.72,0,0,1,.783,1.209l-6.969,4.517A.719.719,0,0,1,2535.062,1359.042Z" transform="translate(-2268.194 -1155.476)" fill="#333"/>
              <path id="Path_914" data-name="Path 914" d="M2536.574,1365.845a.72.72,0,0,1-.392-1.324l6.969-4.517a.72.72,0,0,1,.783,1.208l-6.97,4.517A.711.711,0,0,1,2536.574,1365.845Z" transform="translate(-2269.188 -1159.948)" fill="#333"/>
              <path id="Path_915" data-name="Path 915" d="M2538.085,1372.647a.72.72,0,0,1-.393-1.324l6.969-4.517a.72.72,0,1,1,.784,1.208l-6.97,4.517A.716.716,0,0,1,2538.085,1372.647Z" transform="translate(-2270.182 -1164.419)" fill="#333"/>
              <path id="Path_916" data-name="Path 916" d="M2539.6,1379.45a.72.72,0,0,1-.392-1.324l6.969-4.518a.72.72,0,0,1,.783,1.209l-6.969,4.517A.716.716,0,0,1,2539.6,1379.45Z" transform="translate(-2271.175 -1168.891)" fill="#333"/>
              <path id="Path_917" data-name="Path 917" d="M2541.108,1386.252a.72.72,0,0,1-.392-1.324l6.97-4.517a.72.72,0,1,1,.783,1.208l-6.969,4.517A.715.715,0,0,1,2541.108,1386.252Z" transform="translate(-2272.169 -1173.362)" fill="#333"/>
              <path id="Path_918" data-name="Path 918" d="M2542.62,1393.054a.72.72,0,0,1-.392-1.324l6.969-4.517a.72.72,0,1,1,.783,1.208l-6.969,4.518A.718.718,0,0,1,2542.62,1393.054Z" transform="translate(-2273.162 -1177.833)" fill="#333"/>
              <path id="Path_919" data-name="Path 919" d="M2555.251,1492.212a.7.7,0,0,1-.139-.013.72.72,0,0,1-.568-.845c8.178-41.8,4.518-79.11-.2-85.5-1.955-2.647-4.942-1.011-5.068-.94a.72.72,0,1,1-.706-1.255A5.278,5.278,0,0,1,2555.5,1405c4.67,6.32,9.065,42.625.456,86.627A.72.72,0,0,1,2555.251,1492.212Z" transform="translate(-2277.306 -1188.235)" fill="#333"/>
            </g>
            <g id="Group_257" data-name="Group 257" transform="translate(0 8.514)">
              <path id="Path_920" data-name="Path 920" d="M1130.08,903.8s.708,71.155,54.871,77.881c48.5,1.416,73.961,4.063,54.126-91.772C1227.041,847.08,1130.788,857.784,1130.08,903.8Z" transform="translate(-1008.808 -841.792)" fill="#c95138"/>
              <path id="Path_921" data-name="Path 921" d="M1205.181,1563.506H1009.506l13.469-267.9c54.19-22.518,110.089-19.25,168.737,0Z" transform="translate(-929.554 -1115.898)" fill="#9eddff"/>
              <path id="Path_922" data-name="Path 922" d="M1092.049,1396.324c0,2.339-7.38,105.411,20.221,146.578s-36.021,98.707-36.021,98.707C1016.837,1621.494,1053.221,1380.887,1092.049,1396.324Z" transform="translate(-952.816 -1191.945)" fill="#66c2f5"/>
              <g id="Group_245" data-name="Group 245" transform="translate(143.423 112.389)">
                <path id="Path_923" data-name="Path 923" d="M1270.725,1191.717s-5.724,21.646-28.935,22.623-30.329-22.623-30.329-22.623l4.954-39.052,2.971-23.412H1262.8l4.864,38.331Z" transform="translate(-1205.724 -1129.253)" fill="#f7a594"/>
                <path id="Path_924" data-name="Path 924" d="M1277.165,1167.584c-20.993,3.6-39.913-4.969-51.248-14.919l2.971-23.412H1272.3Z" transform="translate(-1215.226 -1129.253)" fill="#de7964"/>
                <path id="Path_925" data-name="Path 925" d="M1202.224,1235.957c0,1.5,27.018,47.731,27.018,47.731s-23.415,15.911-23.415,14.71-11.107-44.129-11.107-44.129Z" transform="translate(-1194.719 -1199.391)" fill="#80d3ff"/>
                <path id="Path_926" data-name="Path 926" d="M1323.126,1242.965c0,1.5-29.419,45.93-29.419,45.93s21.614,17.712,21.614,16.511,15.31-44.129,15.31-44.129Z" transform="translate(-1259.785 -1203.997)" fill="#80d3ff"/>
              </g>
              <path id="Path_927" data-name="Path 927" d="M1012.3,1590.91l-68.182-4.276,26.234-135.179-.039-.677-2.068-35.761-.822-14.242-2.377-41.153-2.179-37.714-.909-15.737a196.556,196.556,0,0,1,30.765-15.236c10.279-4.012,22.108-7.54,33.806-8.655C1023.654,1416.182,1031.124,1491,1012.3,1590.91Z" transform="translate(-886.574 -1117.451)" fill="#fff"/>
              <g id="Group_246" data-name="Group 246" transform="translate(0 184.638)">
                <path id="Path_928" data-name="Path 928" d="M895.7,1421.517a254.551,254.551,0,0,1-24,21.652c-4.27,3.335-8.86,6.637-13.836,9.842a190.9,190.9,0,0,1-54.757,23.852,18.519,18.519,0,0,1-7.061,1.315c-17.5-.393-25.8-29.971-15.062-55.6a57.518,57.518,0,0,1,16.435-22.271l55.067-40.406,24.589-18.043c.023-.013.047-.023.07-.036C903.114,1328.549,926.755,1394.692,895.7,1421.517Z" transform="translate(-776.2 -1340.082)" fill="#fff"/>
                <path id="Path_929" data-name="Path 929" d="M875.752,1585.735l-4.043,15.672-11.768,45.6-2.068-35.761a190.893,190.893,0,0,1-54.757,23.852,18.521,18.521,0,0,1-7.061,1.315c-17.5-.393-25.8-29.971-15.062-55.6.943,16.052,4.838,30.075,15.005,33.238,8.829,2.747,20.855.365,32.889-3.978a204.382,204.382,0,0,0,28.163-13.07C868.042,1590.958,875.752,1585.735,875.752,1585.735Z" transform="translate(-776.2 -1498.319)" fill="#d9f1ff"/>
              </g>
              <path id="Path_930" data-name="Path 930" d="M1392,1289.818c31.806,3.029,60.7,18.725,60.7,18.725l-8.155,147.866,26.234,135.179h-89.513C1387.374,1537.783,1403.36,1416.4,1392,1289.818Z" transform="translate(-1173.91 -1122.405)" fill="#fff"/>
              <path id="Path_931" data-name="Path 931" d="M1430.386,1339.754s39.06,59.273,45.6,155.293c1.8,26.5-58.208,118.361-58.208,118.361h-69.131l68.034-104.794s-48.176-97.558-34.46-129.38S1414.868,1332.317,1430.386,1339.754Z" transform="translate(-1152.474 -1154.001)" fill="#fff"/>
              <path id="Path_932" data-name="Path 932" d="M1351.583,1796.365l-1.042-.656L1422.116,1682l-22.845-63.223,1.159-.418,23.049,63.788-.16.255Z" transform="translate(-1153.719 -1338.358)" fill="#d9f1ff"/>
              <path id="Path_933" data-name="Path 933" d="M1120.524,1236.1c-3.361,33.236-12.677,167.584-12.677,167.584-20.569-45.033-29.795-77.717-29.795-77.717l14.938-16.058-23.958-39.877C1085.534,1247.2,1120.524,1236.1,1120.524,1236.1Z" transform="translate(-968.682 -1087.098)" fill="#d9f1ff"/>
              <path id="Path_934" data-name="Path 934" d="M1376.32,1236.807c1.689,36.2,18.415,85.079,15.123,166.16,20.569-45.033,26.719-76.948,26.719-76.948l-14.937-16.058,23.958-39.877C1414.456,1251.065,1376.32,1236.807,1376.32,1236.807Z" transform="translate(-1170.664 -1087.56)" fill="#d9f1ff"/>
              <g id="Group_247" data-name="Group 247" transform="translate(174.639 107.311)">
                <path id="Path_935" data-name="Path 935" d="M1332.262,1300.175s-58.561-16.593-44.176-66.862c7.1-24.8,49.334-36.672,26.245-74.6-.1-.169-.206-.341-.312-.513l-3.151-27.936s21.869-5.179,29.926-15.826c-6.018,16.114.86,24.182,4.4,27.559,13.9,13.271,28.545,27.3,28.753,51.188C1374.343,1238.554,1328.224,1237.521,1332.262,1300.175Z" transform="translate(-1285.812 -1114.436)" fill="#c95138"/>
              </g>
              <g id="Group_252" data-name="Group 252" transform="translate(116.627)">
                <path id="Path_936" data-name="Path 936" d="M1249.141,886.968c10.388,13.634-10.02,52.174-44.876,52.293-21.991-.874-56.686-21.631-47.708-64.941-6.285-36.137,15.981-70.282,47.708-70.282S1256.211,848.867,1249.141,886.968Z" transform="translate(-1141.884 -803.097)" fill="#f7a594"/>
                <circle id="Ellipse_8" data-name="Ellipse 8" cx="10.406" cy="10.406" r="10.406" transform="translate(101.555 71.548)" fill="#f7a594"/>
                <path id="Path_937" data-name="Path 937" d="M1212.449,828.172c-14.925,29.846-69.648,43.612-69.648,43.612l-8.646,1.25-2.411.35s-4.575-26.178,12.076-50.2,43.156-21.839,43.156-21.839a51.939,51.939,0,0,1,11.3,1.108C1208.155,804.576,1219.85,810.69,1212.449,828.172Z" transform="translate(-1126.15 -801.293)" fill="#c95138"/>
                <path id="Path_938" data-name="Path 938" d="M1198.276,802.453c-17.927,2.575-35.027,8.459-47.748,21.826-11.517,12.1-15.255,37.223-16.374,48.755l-2.411.35s-4.575-26.178,12.076-50.2,43.156-21.839,43.156-21.839A51.939,51.939,0,0,1,1198.276,802.453Z" transform="translate(-1126.15 -801.293)" fill="#f56245"/>
                <path id="Path_939" data-name="Path 939" d="M1293.3,827.635c-8.823-19.984-1.74-25.651-1.74-25.651s26.5-2.184,43.155,21.838,6.419,49.266,6.419,49.266S1300.975,880.064,1293.3,827.635Z" transform="translate(-1229.808 -801.713)" fill="#c95138"/>
                <g id="Group_250" data-name="Group 250" transform="translate(0 70.982)">
                  <circle id="Ellipse_9" data-name="Ellipse 9" cx="10.406" cy="10.406" r="10.406" transform="translate(1.36)" fill="#f7a594"/>
                  <g id="Group_249" data-name="Group 249" transform="translate(0 0.809)">
                    <g id="Group_248" data-name="Group 248" transform="translate(0 7.362)">
                      <path id="Path_940" data-name="Path 940" d="M1156.335,1082.81s8.614,15.5,25.333,19.655a1.75,1.75,0,0,1,1.276,2.086h0a1.754,1.754,0,0,1-2.109,1.324,44.455,44.455,0,0,1-27.387-21.2Z" transform="translate(-1140.795 -1065.49)"/>
                      <ellipse id="Ellipse_10" data-name="Ellipse 10" cx="6.643" cy="9.108" rx="6.643" ry="9.108" transform="matrix(0.954, -0.3, 0.3, 0.954, 2.978, 3.992)"/>
                      <ellipse id="Ellipse_11" data-name="Ellipse 11" cx="7.025" cy="9.632" rx="7.025" ry="9.632" transform="translate(0 4.379) rotate(-17.485)" fill="#fff"/>
                      <ellipse id="Ellipse_12" data-name="Ellipse 12" cx="4.049" cy="5.552" rx="4.049" ry="5.552" transform="translate(2.943 8.025) rotate(-17.485)" fill="#b8e5ff"/>
                    </g>
                    <path id="Path_941" data-name="Path 941" d="M1140.5,1032.988a.752.752,0,0,1-.123-.01.741.741,0,0,1-.609-.853c1.191-7.145-1.438-14.933-4.556-18.051-3.632-3.632-8.137-.736-8.327-.611a.742.742,0,0,1-.82-1.236c.057-.037,5.7-3.7,10.2.8,3.453,3.453,6.255,11.632,4.97,19.344A.742.742,0,0,1,1140.5,1032.988Z" transform="translate(-1122.576 -1010.785)"/>
                  </g>
                </g>
                <path id="Path_942" data-name="Path 942" d="M1158.081,873.26s48.789-12.052,60.512-40.25c7.393-19.433-4.541-29.677-4.541-29.677s12.02,4.714,11.617,24.819C1225.038,859.671,1158.081,873.26,1158.081,873.26Z" transform="translate(-1143.841 -802.634)" fill="#a33a23"/>
                <g id="Group_251" data-name="Group 251" transform="translate(31.04 73.024)">
                  <path id="Path_943" data-name="Path 943" d="M1281.4,1041.821c-1.674,0-5.334-.2-5.878-1.878-.649-2,5.123-17.69,6.287-20.814a.521.521,0,1,1,.976.364c-3.358,9.017-6.623,19.011-6.272,20.13.292.9,3.46,1.218,5.515,1.147h.019a.521.521,0,0,1,.018,1.041C1281.923,1041.815,1281.693,1041.821,1281.4,1041.821Z" transform="translate(-1252.045 -1017.279)" fill="#ba4228"/>
                  <path id="Path_944" data-name="Path 944" d="M1264.41,1117.448s17.834,1.918,32.792-6.52C1293.175,1127.42,1274.957,1136.049,1264.41,1117.448Z" transform="translate(-1244.772 -1077.843)" fill="#a33a23"/>
                  <path id="Path_945" data-name="Path 945" d="M1218.995,1023.839h0a2.371,2.371,0,0,1-2.364-2.364v-4.728a2.371,2.371,0,0,1,2.364-2.364h0a2.371,2.371,0,0,1,2.364,2.364v4.728A2.371,2.371,0,0,1,1218.995,1023.839Z" transform="translate(-1213.366 -1014.383)"/>
                  <path id="Path_946" data-name="Path 946" d="M1365.675,1024.963h0a2.371,2.371,0,0,1-2.364-2.364v-4.728a2.371,2.371,0,0,1,2.364-2.364h0a2.371,2.371,0,0,1,2.364,2.364v4.728A2.371,2.371,0,0,1,1365.675,1024.963Z" transform="translate(-1309.78 -1015.122)"/>
                  <path id="Path_947" data-name="Path 947" d="M1364.13,1054.715c0,1.09-2.65,1.973-5.919,1.973s-5.919-.883-5.919-1.973,2.65-1.973,5.919-1.973S1364.13,1053.625,1364.13,1054.715Z" transform="translate(-1302.537 -1039.597)" fill="#f79985"/>
                  <path id="Path_948" data-name="Path 948" d="M1218.942,1054.715c0,1.09-2.65,1.973-5.919,1.973s-5.919-.883-5.919-1.973,2.65-1.973,5.919-1.973S1218.942,1053.625,1218.942,1054.715Z" transform="translate(-1207.104 -1039.597)" fill="#f79985"/>
                </g>
                <path id="Path_949" data-name="Path 949" d="M1435.135,1038.192h0a.52.52,0,0,1-.52-.521c0-.328.055-8.041,4.853-9.329a.521.521,0,1,1,.27,1.006c-4.028,1.08-4.081,8.251-4.081,8.323A.521.521,0,0,1,1435.135,1038.192Z" transform="translate(-1325.609 -950.523)" fill="#ba4228"/>
              </g>
              <g id="Group_255" data-name="Group 255" transform="translate(63.867 82.307)">
                <g id="Group_253" data-name="Group 253" transform="translate(0 67.6)">
                  <path id="Path_950" data-name="Path 950" d="M981.806,1292.433l-19.237-21.862,33.79-31.839,15.6,9.808Z" transform="translate(-962.57 -1238.733)" fill="#f7a594"/>
                </g>
                <g id="Group_254" data-name="Group 254" transform="translate(32.932 30.954)">
                  <path id="Path_951" data-name="Path 951" d="M1058.676,1169.676c.164-1.878,7.149-35.514,6.661-34.718,6.944-8.82,22.078,2.162,22.661,16.4,0,0-6.425,24.19-14.883,29.171C1057.853,1189.415,1058.676,1169.676,1058.676,1169.676Z" transform="translate(-1058.668 -1131.797)" fill="#f7a594"/>
                </g>
                <path id="Path_952" data-name="Path 952" d="M1078.056,1075.514s12.362-34.216,12.725-34.042,3.486.821,2.98,5.885-8.887,32.931-8.887,32.931Z" transform="translate(-1038.48 -1041.471)" fill="#f7a594"/>
                <path id="Path_953" data-name="Path 953" d="M1094.583,1090.424s18.217-30.77,18.56-30.521,3.458,1.517,1.968,6.671S1102,1094.38,1102,1094.38Z" transform="translate(-1049.343 -1053.586)" fill="#f7a594"/>
                <path id="Path_954" data-name="Path 954" d="M1098.65,1141.192c.548-.98,11.891-10,14.473-11.174s16.883-1.419,16.883-1.419.728,4.048-4.747,4.553a23.951,23.951,0,0,0-9.413,2.917l-8.969,14.786Z" transform="translate(-1052.016 -1098.742)" fill="#f7a594"/>
                <path id="Path_955" data-name="Path 955" d="M1121.7,1170.856s3.161-10.744,10.15-11.366c6.69-.6,14.323,6.233,14.323,6.233s-.167,2.386-4.827,1.534-5.861-2.05-5.861-2.05l-4.761,1.406-3.776,10.951Z" transform="translate(-1067.167 -1119.022)" fill="#f7a594"/>
              </g>
              <g id="Group_256" data-name="Group 256" transform="translate(0.04 142.639)">
                <path id="Path_956" data-name="Path 956" d="M860.494,1222.218c-3.056-1.623-6.134-3.238-9.281-4.692l-51.738,96.291L783.3,1335.925c-20.759,33.613,7.01,81.424,53.859,37.524a41.943,41.943,0,0,0,11.34-18.9l13.054-32.4,21.266-52.782,17.041-23.254A363.447,363.447,0,0,0,860.494,1222.218Z" transform="translate(-776.317 -1217.526)" fill="#fff"/>
                <path id="Path_957" data-name="Path 957" d="M950.569,1424.374l-.991-.732c3.759-5.085,6.575-10.83,9.3-16.386q.866-1.766,1.737-3.52c3.59-6.925,6.729-13.45,9.882-20.544q2.732-6.282,5.46-12.5c6.1-13.931,11.858-27.089,17.444-40.854l.058-.11c4.407-6.61,9.12-13.158,13.679-19.491,1.9-2.635,3.858-5.36,5.75-8.024l1,.713c-1.894,2.667-3.857,5.394-5.754,8.031-4.54,6.306-9.234,12.828-13.619,19.4-5.586,13.761-11.608,27.52-17.433,40.826q-2.724,6.222-5.461,12.5c-3.165,7.121-6.314,13.668-9.912,20.607-.579,1.157-1.153,2.329-1.729,3.5C957.234,1413.4,954.393,1419.2,950.569,1424.374Z" transform="translate(-890.203 -1273.191)" fill="#d9f1ff"/>
              </g>
            </g>
          </g>
        </g>
      </g>
      <g id="Group_264" data-name="Group 264" transform="translate(534.075 512.014)">
        <g id="Group_261" data-name="Group 261" transform="translate(36.879)">
          <path id="Path_958" data-name="Path 958" d="M1754.142,1720.578a83.927,83.927,0,0,1-11.595,15.911,98.656,98.656,0,0,1-11.917-38.939c-1.384-17.013,2.118-37.218,18.817-55.5C1749.447,1642.055,1776.509,1680.38,1754.142,1720.578Z" transform="translate(-1730.356 -1642.055)" fill="#5fb38c"/>
          <path id="Path_959" data-name="Path 959" d="M1754.667,1827.024a83.932,83.932,0,0,1-11.595,15.911A98.656,98.656,0,0,1,1731.156,1804Z" transform="translate(-1730.882 -1748.5)" fill="#379168"/>
          <path id="Path_960" data-name="Path 960" d="M1748.879,1741.634c-.578-9.107-.6-18.513-.3-27.537l-8.157-10.168.285-.229,7.891,9.837c.267-7.7.765-15.111,1.346-21.807l-.137.11-8.223-10.251.285-.229,8.1,10.1c.347-3.967.722-7.681,1.1-11.051,0-.036.008-.071.012-.107h0c1.9-17.16,4.159-29.329,4.182-29.45l.359.067c-.023.12-2.245,12.115-4.14,29.078l11.158-8.462.221.291-11.435,8.672c-.621,5.612-1.247,12.174-1.737,19.274l14.1-8.594.19.312-14.324,8.728a323.373,323.373,0,0,0-.41,41.4Z" transform="translate(-1736.973 -1647.833)" fill="#379168"/>
        </g>
        <g id="Group_262" data-name="Group 262" transform="translate(46.53 23.768)">
          <path id="Path_961" data-name="Path 961" d="M1776.208,1783.248a83.956,83.956,0,0,1-17.627,8.769,98.651,98.651,0,0,1,7.389-40.046c6.619-15.734,19.047-32.045,42.294-40.559C1808.264,1711.412,1814.6,1757.9,1776.208,1783.248Z" transform="translate(-1758.519 -1711.412)" fill="#74c9a2"/>
          <path id="Path_962" data-name="Path 962" d="M1776.208,1861.043a83.938,83.938,0,0,1-17.627,8.769,98.65,98.65,0,0,1,7.389-40.046Z" transform="translate(-1758.519 -1789.207)" fill="#379168"/>
          <path id="Path_963" data-name="Path 963" d="M1803.421,1740.241l-.062-.36-13.8,2.361c9.506-14.177,17.011-23.794,17.086-23.891l-.288-.225c-.076.1-7.69,9.854-17.3,24.2h0l-.06.089c-1.886,2.818-3.932,5.94-6.07,9.3l-2.529-12.695-.359.072,2.568,12.888.173-.035c-3.605,5.674-7.465,12.019-11.254,18.728l-.276.488c-4.428,7.869-8.748,16.223-12.436,24.57l.334.148a323.447,323.447,0,0,1,19.46-36.541l16.735-1.136-.025-.365-16.477,1.119c3.709-6.074,7.292-11.606,10.432-16.3Z" transform="translate(-1758.715 -1715.825)" fill="#379168"/>
        </g>
        <g id="Group_263" data-name="Group 263" transform="translate(0 12.499)">
          <path id="Path_964" data-name="Path 964" d="M1681.321,1772.826s4.531-71.351-58.123-94.3C1623.2,1678.528,1613.708,1748.193,1681.321,1772.826Z" transform="translate(-1622.742 -1678.528)" fill="#74c9a2"/>
          <path id="Path_965" data-name="Path 965" d="M1686.227,1777.176c-4.315-9.765-9.368-19.539-14.548-28.744l2.979-14.956-.419-.083-2.882,14.468c-4.432-7.848-8.948-15.272-13.165-21.909l.2.04,3-15.077-.419-.083-2.959,14.851c-2.5-3.931-4.895-7.583-7.1-10.88l-.07-.1v0h0c-11.237-16.784-20.144-28.2-20.233-28.312l-.337.264c.088.113,8.867,11.364,19.988,27.949l-16.148-2.762-.072.422,16.548,2.831c3.673,5.49,7.865,11.963,12.2,19.068l-19.276-1.309-.029.426,19.578,1.33a378.3,378.3,0,0,1,22.765,42.749Z" transform="translate(-1627.695 -1683.691)" fill="#379168"/>
        </g>
        <path id="Path_966" data-name="Path 966" d="M1745.458,1889.906l-6.312,50.6h-46.791l-5.51-44.174-.8-6.429Z" transform="translate(-1664.35 -1804.97)" fill="#e3733f"/>
        <path id="Path_967" data-name="Path 967" d="M1745.458,1889.907l-6.312,50.6h-24.14c15.2-6.766,24.5-23.259,22.789-32.727-1.906-10.575-46.805-11.4-50.95-11.448l-.8-6.429Z" transform="translate(-1664.35 -1804.97)" fill="#db542e"/>
        <rect id="Rectangle_146" data-name="Rectangle 146" width="62.766" height="5.682" transform="translate(20.017 84.604)" fill="#e3733f"/>
        <path id="Path_968" data-name="Path 968" d="M1738.937,2029.957h-60.984l-2.12-4.181h65.224Z" transform="translate(-1657.64 -1894.278)" fill="#db542e"/>
      </g>
    </g>
    <g id="laptops" transform="translate(172.431 548.227)">
      <g id="Group_267" data-name="Group 267" transform="translate(515.438)">
        <g id="Group_265" data-name="Group 265">
          <path id="Path_969" data-name="Path 969" d="M2175.876,1590.384l-46.854,147.451h-125.84v6.238H2134.2c13.623-42.66,44.366-138.676,49.874-153.689Z" transform="translate(-2003.182 -1590.384)" fill="#33ace6"/>
          <path id="Path_970" data-name="Path 970" d="M2435.561,1590.384l-49.932,153.689h197.636l48.836-153.689Z" transform="translate(-2254.568 -1590.384)" fill="#2786b4"/>
        </g>
        <g id="Group_266" data-name="Group 266" transform="translate(236.32 50.912)">
          <path id="Path_971" data-name="Path 971" d="M2741.92,1787.5h-14.6l14.7-48.549h14.6Z" transform="translate(-2715.486 -1738.949)" fill="#fff"/>
          <path id="Path_972" data-name="Path 972" d="M2692.782,1803.084l4.419-14.6h48.55l-4.419,14.6Z" transform="translate(-2692.782 -1771.511)" fill="#fff"/>
        </g>
      </g>
      <g id="Group_270" data-name="Group 270">
        <g id="Group_268" data-name="Group 268">
          <path id="Path_973" data-name="Path 973" d="M1081.1,1590.384l46.854,147.451h125.84v6.238h-131.02c-13.623-42.66-44.366-138.676-49.875-153.689Z" transform="translate(-876.26 -1590.384)" fill="#33ace6"/>
          <path id="Path_974" data-name="Path 974" d="M695.631,1590.384l49.933,153.689H547.928l-48.836-153.689Z" transform="translate(-499.092 -1590.384)" fill="#2786b4"/>
        </g>
        <g id="Group_269" data-name="Group 269" transform="translate(88.244 50.912)">
          <path id="Path_975" data-name="Path 975" d="M805.834,1787.5h14.6l-14.7-48.549h-14.6Z" transform="translate(-779.299 -1738.949)" fill="#fff"/>
          <path id="Path_976" data-name="Path 976" d="M809.565,1803.084l-4.419-14.6H756.6l4.419,14.6Z" transform="translate(-756.595 -1771.511)" fill="#fff"/>
        </g>
      </g>
    </g>
    <g id="icons" transform="translate(165.446 150.413)">
      <g id="profile" transform="translate(0 91.023)">
        <rect id="Rectangle_147" data-name="Rectangle 147" width="155.638" height="170.285" rx="36.762" fill="#b3e4ff"/>
        <g id="Group_273" data-name="Group 273" transform="translate(22.927 22.687)">
          <rect id="Rectangle_148" data-name="Rectangle 148" width="42.203" height="46.079" fill="#fff"/>
          <g id="Group_272" data-name="Group 272" transform="translate(6.391 6.702)">
            <g id="Group_271" data-name="Group 271" transform="translate(6.494)">
              <path id="Path_977" data-name="Path 977" d="M591.681,797.842a8.481,8.481,0,0,0,6.588-3.226,8.268,8.268,0,0,0,1.815-5.244,8.436,8.436,0,1,0-16.872,0,8.259,8.259,0,0,0,1.815,5.244A8.511,8.511,0,0,0,591.681,797.842Z" transform="translate(-583.211 -780.903)" fill="#296acc"/>
            </g>
            <path id="Path_978" data-name="Path 978" d="M594.107,850.813l.005-7.123c-2.431-8.873-28.664-8.515-29.844,0l-.009,7.123Z" transform="translate(-564.26 -817.887)" fill="#296acc"/>
          </g>
        </g>
        <rect id="Rectangle_149" data-name="Rectangle 149" width="57.293" height="5.794" rx="2.897" transform="translate(75.457 23.475)" fill="#80b2ff"/>
        <rect id="Rectangle_150" data-name="Rectangle 150" width="57.293" height="5.794" rx="2.897" transform="translate(75.457 39.044)" fill="#80b2ff"/>
        <rect id="Rectangle_151" data-name="Rectangle 151" width="57.293" height="5.794" rx="2.897" transform="translate(75.457 56.197)" fill="#80b2ff"/>
        <rect id="Rectangle_152" data-name="Rectangle 152" width="53.737" height="5.794" rx="2.897" transform="translate(22.01 85.245)" fill="#80b2ff"/>
        <rect id="Rectangle_153" data-name="Rectangle 153" width="53.737" height="5.794" rx="2.897" transform="translate(22.01 103.37)" fill="#80b2ff"/>
        <rect id="Rectangle_154" data-name="Rectangle 154" width="53.737" height="5.794" rx="2.897" transform="translate(22.01 121.496)" fill="#80b2ff"/>
        <rect id="Rectangle_155" data-name="Rectangle 155" width="53.737" height="5.794" rx="2.897" transform="translate(22.01 139.622)" fill="#80b2ff"/>
        <rect id="Rectangle_156" data-name="Rectangle 156" width="49.031" height="63.317" transform="translate(85.745 83.371)" fill="#fff"/>
      </g>
      <g id="text_box" data-name="text box" transform="translate(331.45 56.833)">
        <g id="Group_274" data-name="Group 274" transform="translate(0)">
          <rect id="Rectangle_157" data-name="Rectangle 157" width="147.951" height="73.439" rx="25.502" transform="translate(147.951 73.439) rotate(180)" fill="#80b2ff"/>
          <path id="Path_979" data-name="Path 979" d="M1517.166,773.826v33.132l33.769-33.769Z" transform="translate(-1492.745 -712.254)" fill="#80b2ff"/>
        </g>
        <g id="Group_275" data-name="Group 275" transform="translate(26.735 30.956)">
          <circle id="Ellipse_13" data-name="Ellipse 13" cx="6.447" cy="6.447" r="6.447" transform="translate(86.468)" fill="#fff"/>
          <circle id="Ellipse_14" data-name="Ellipse 14" cx="6.447" cy="6.447" r="6.447" transform="translate(64.851)" fill="#fff"/>
          <circle id="Ellipse_15" data-name="Ellipse 15" cx="6.447" cy="6.447" r="6.447" transform="translate(43.234)" fill="#fff"/>
          <circle id="Ellipse_16" data-name="Ellipse 16" cx="6.447" cy="6.447" r="6.447" transform="translate(21.617)" fill="#fff"/>
          <circle id="Ellipse_17" data-name="Ellipse 17" cx="6.447" cy="6.447" r="6.447" fill="#fff"/>
        </g>
      </g>
      <g id="text_box-2" data-name="text box" transform="translate(206.379 4.152)">
        <g id="Group_276" data-name="Group 276">
          <rect id="Rectangle_158" data-name="Rectangle 158" width="99.635" height="49.456" rx="17.174" fill="#80b2ff"/>
          <path id="Path_980" data-name="Path 980" d="M1280.07,561.819v22.312l-22.741-22.741Z" transform="translate(-1196.881 -520.355)" fill="#80b2ff"/>
        </g>
        <g id="Group_277" data-name="Group 277" transform="translate(14.718 20.847)">
          <circle id="Ellipse_18" data-name="Ellipse 18" cx="4.342" cy="4.342" r="4.342" fill="#fff"/>
          <circle id="Ellipse_19" data-name="Ellipse 19" cx="4.342" cy="4.342" r="4.342" transform="translate(14.557)" fill="#fff"/>
          <circle id="Ellipse_20" data-name="Ellipse 20" cx="4.342" cy="4.342" r="4.342" transform="translate(29.115)" fill="#fff"/>
          <circle id="Ellipse_21" data-name="Ellipse 21" cx="4.342" cy="4.342" r="4.342" transform="translate(43.672)" fill="#fff"/>
          <circle id="Ellipse_22" data-name="Ellipse 22" cx="4.342" cy="4.342" r="4.342" transform="translate(58.23)" fill="#fff"/>
        </g>
      </g>
      <g id="calener" transform="translate(755.448 161.219)">
        <path id="Path_981" data-name="Path 981" d="M2751.179,899.981h-53.925a14.107,14.107,0,0,0-14.091,14.091V968a14.11,14.11,0,0,0,14.091,14.1h53.925A14.109,14.109,0,0,0,2765.27,968V914.072A14.106,14.106,0,0,0,2751.179,899.981Zm0,79.271h-53.925A11.265,11.265,0,0,1,2686,968V920.273h76.425V968A11.266,11.266,0,0,1,2751.179,979.252Z" transform="translate(-2683.164 -899.981)" fill="#80b2ff"/>
        <g id="Group_278" data-name="Group 278" transform="translate(21.214 29.816)">
          <rect id="Rectangle_159" data-name="Rectangle 159" width="11.197" height="10.797" fill="#80b2ff"/>
          <rect id="Rectangle_160" data-name="Rectangle 160" width="11.197" height="10.797" transform="translate(14.692)" fill="#fff"/>
          <rect id="Rectangle_161" data-name="Rectangle 161" width="11.197" height="10.797" transform="translate(28.481)" fill="#fff"/>
          <rect id="Rectangle_162" data-name="Rectangle 162" width="11.197" height="10.797" transform="translate(43.173)" fill="#fff"/>
        </g>
        <g id="Group_279" data-name="Group 279" transform="translate(6.523 44.383)">
          <rect id="Rectangle_163" data-name="Rectangle 163" width="11.197" height="10.797" fill="#fff"/>
          <rect id="Rectangle_164" data-name="Rectangle 164" width="11.197" height="10.797" transform="translate(14.692)" fill="#fff"/>
          <rect id="Rectangle_165" data-name="Rectangle 165" width="11.197" height="10.797" transform="translate(29.384)" fill="#fff"/>
          <rect id="Rectangle_166" data-name="Rectangle 166" width="11.197" height="10.797" transform="translate(43.173)" fill="#fff"/>
          <rect id="Rectangle_167" data-name="Rectangle 167" width="11.197" height="10.797" transform="translate(57.865)" fill="#fff"/>
        </g>
        <g id="Group_280" data-name="Group 280" transform="translate(6.523 58.95)">
          <rect id="Rectangle_168" data-name="Rectangle 168" width="11.197" height="10.797" fill="#fff"/>
          <rect id="Rectangle_169" data-name="Rectangle 169" width="11.197" height="10.797" transform="translate(14.692)" fill="#fff"/>
          <rect id="Rectangle_170" data-name="Rectangle 170" width="11.197" height="10.797" transform="translate(29.384)" fill="#fff"/>
          <rect id="Rectangle_171" data-name="Rectangle 171" width="11.197" height="10.797" transform="translate(43.173)" fill="#fff"/>
        </g>
      </g>
      <g id="Group_281" data-name="Group 281" transform="translate(396.075 185.561)">
        <g id="bag">
          <circle id="Ellipse_23" data-name="Ellipse 23" cx="48.341" cy="48.341" r="48.341" fill="#a6dfff"/>
        </g>
        <path id="Path_982" data-name="Path 982" d="M1694.941,1034.015l-1,1-.13-.13-10.444,10.444L1696.043,1058l5.65-5.65a182.779,182.779,0,0,1,20.346,20.317l-5.664,5.664L1729.047,1091l2.093-2.093a1.492,1.492,0,0,1-.244.324l9.631-9.631C1745.6,1074.523,1700.019,1028.937,1694.941,1034.015Z" transform="translate(-1666.618 -1012.166)" fill="#fff"/>
      </g>
      <g id="Group_282" data-name="Group 282" transform="translate(697.59 92.501)">
        <g id="_" data-name="+">
          <circle id="Ellipse_24" data-name="Ellipse 24" cx="25.953" cy="25.953" r="25.953" fill="#a6dfff"/>
        </g>
        <path id="Path_983" data-name="Path 983" d="M2599.781,744.991H2580.73V721.627h3.6v19.764h15.451Z" transform="translate(-2557.976 -714.029)" fill="#fff"/>
      </g>
      <g id="Group_285" data-name="Group 285" transform="translate(557.555)">
        <g id="Group_283" data-name="Group 283">
          <g id="_2" data-name="+">
            <circle id="Ellipse_25" data-name="Ellipse 25" cx="24.582" cy="24.582" r="24.582" fill="#a6dfff"/>
          </g>
        </g>
        <g id="Group_284" data-name="Group 284" transform="translate(16.379 12.455)">
          <path id="Path_984" data-name="Path 984" d="M2158.266,482.663V482c0-2.3.94-4.04,3.517-6.339a4.537,4.537,0,0,0,1.881-3.552,2.239,2.239,0,0,0-2.438-2.4c-1.985,0-2.647,1.358-2.821,3.03h-4.911c.174-2.925,2.02-6.9,7.8-6.861,5.712,0,7.384,3.692,7.384,6.408,0,2.194-.7,3.692-3.2,6.025a5.051,5.051,0,0,0-1.985,3.97v.383Zm0,7.557v-5.781h5.224v5.781Z" transform="translate(-2153.494 -465.875)" fill="#fff"/>
        </g>
      </g>
    </g>
  </g>
</svg>
