<svg xmlns="http://www.w3.org/2000/svg" xmlns:xlink="http://www.w3.org/1999/xlink" width="1028.469" height="661.747" viewBox="0 0 1028.469 661.747">
  <defs>
    <clipPath id="clip-path">
      <path id="Path_858" data-name="Path 858" d="M203.4,939.243c43.768-18.008,15.668-156.064,15.668-156.064S136.2,507.883,259.148,419.4s330.86-226.238,484.026-73.077c97.169,97.17,333.17-20.266,443.9,144.7,59.171,88.153-59.666,277.626-56.109,345.792,3.366,64.5,89.262,102.434,89.262,102.434Z" transform="translate(-203.4 140.752)" fill="#d9f3ff"/>
    </clipPath>
    <clipPath id="clip-path-2">
      <rect id="Rectangle_44" data-name="Rectangle 44" width="143.237" height="349.178" fill="none"/>
    </clipPath>
  </defs>
  <g id="Mask_Group_2" data-name="Mask Group 2" transform="translate(11.644 -418.253)" clip-path="url(#clip-path)">
    <g id="Group_61" data-name="Group 61" transform="translate(-13.812 475.731)">
      <rect id="Rectangle_17" data-name="Rectangle 17" width="1156.724" height="696.871" transform="translate(-62.918 -93)" fill="#f7e1e5"/>
      <g id="Group_41" data-name="Group 41" transform="translate(61 0)">
        <path id="Path_136" data-name="Path 136" d="M600.448,501.872H44.363C86.86,398.278,224.279,62.938,239.311,21.747c.094-.257.176-.5.263-.726H405.237c.088.228.17.468.263.726,7.677,21.052,47.341,118.965,89.961,223.5,31.368,76.948,64.333,157.477,87.334,213.584,6.881,16.781,12.867,31.385,17.653,43.047" transform="translate(215.21 101.975)" fill="#daf2e9"/>
        <path id="Path_137" data-name="Path 137" d="M120.178,36.242c0,9.888-6.869,17.91-15.348,17.91s-15.353-8.022-15.353-17.91,6.875-17.9,15.353-17.9,15.348,8.016,15.348,17.9" transform="translate(434.064 88.96)" fill="#fff"/>
        <path id="Path_138" data-name="Path 138" d="M179.664,12.654H142.5L78.826,58.568a2.9,2.9,0,0,0,1.7,5.248H241.64a2.9,2.9,0,0,0,1.7-5.248Z" transform="translate(376.532 61.386)" fill="#fff"/>
        <rect id="Rectangle_18" data-name="Rectangle 18" width="5.149" height="61.232" transform="translate(535.027)" fill="#7e3e1a"/>
        <path id="Path_139" data-name="Path 139" d="M218.459,9.594H164.833L72.871,57.848a2.9,2.9,0,0,0,1.352,5.465H309.075a2.9,2.9,0,0,0,1.346-5.465Z" transform="translate(345.964 46.542)" fill="#feab4f"/>
        <path id="Path_140" data-name="Path 140" d="M115.518,62.779A43.813,43.813,0,0,0,94.711,89.624c-2.124,8.1-1.855,16.646-3.575,24.838-6.624,31.52-40.923,52.3-45.258,84.221-2.692,19.788,7.343,39.647,21.831,53.386,3.815,3.616,8.753,7.115,13.885,5.992,2.586-.568,4.769-2.247,6.793-3.95,28.869-24.27,43.591-61.372,52.748-97.959,6.8-27.219,11.152-54.977,15.488-82.694.661-4.224,1.317-8.578.316-12.732A16.658,16.658,0,0,0,146.78,49.234,16.83,16.83,0,0,0,130.461,51.9a85.725,85.725,0,0,1-14.944,10.883" transform="translate(220.436 233.884)" fill="#7e3e1a"/>
        <path id="Path_141" data-name="Path 141" d="M168.96,97.864a12.913,12.913,0,0,0-1.673-2.1c-2.282-2.259-4.581-4.406-6.776-6.776a35.333,35.333,0,0,0-9.017-7.39c-3.487-1.843-7.267-3.054-10.789-4.827-2.065-1.036-3.5-2.4-5.886-2.417a20.3,20.3,0,0,0-6.869,1.48c-1.779.632-3.47,1.434-5.219,2.136a94.342,94.342,0,0,1-17.021,5.055c-4,.79-8.063,1.328-11.913,2.668-5.582,1.937-10.971,5.412-15.857,8.642-.538.357-1.065.714-1.6,1.065a3.447,3.447,0,0,0-2.077.275c-1.451.755-1.3,2.621-1.123,3.99A47.975,47.975,0,0,0,75.91,110.28a103.442,103.442,0,0,0,4.6,10.158q.623,1.229,1.258,2.457a5.663,5.663,0,0,0,1.3,2.095c1.428,1.024,3.253-.456,4.418-1.235,2.656-1.773,5.044-3.926,7.788-5.553a15.961,15.961,0,0,1,5.243-2.089c1.89-.328,3.862-.228,5.781-.579a30.1,30.1,0,0,0,11.082-4.435,14.982,14.982,0,0,1,2.691-1.574c2.539-.995,5.395-.152,7.993.69a1.575,1.575,0,0,1,.807.462,1.847,1.847,0,0,1,.187,1.1c-.012,3.938,5,4.716,7.87,3.247a2.344,2.344,0,0,1,.714-.287,2.29,2.29,0,0,1,.8.1,7.609,7.609,0,0,0,5.728-1.334,20.785,20.785,0,0,0,4.283-4.225,18.01,18.01,0,0,1,2.376.456,4.679,4.679,0,0,0,2.8-.884,42.17,42.17,0,0,0,5.465-4.277,3.013,3.013,0,0,1,2.025-.924,3.7,3.7,0,0,1,1.434.591,8.3,8.3,0,0,0,3.733,1.246,4.252,4.252,0,0,0,3.955-2.282c.62-1.556-.187-3.651-1.275-5.342" transform="translate(354.277 360.7)" fill="#fdb082"/>
        <path id="Path_142" data-name="Path 142" d="M103.016,91.068,91.074,95.508,87.118,84.871a5.484,5.484,0,0,1,3.236-7.051l1.662-.62a5.482,5.482,0,0,1,7.045,3.23Z" transform="translate(420.953 372.839)" fill="#361907"/>
        <rect id="Rectangle_19" data-name="Rectangle 19" width="1.979" height="22.753" transform="translate(512.105 453.278) rotate(-20.417)" fill="#361907"/>
        <path id="Path_143" data-name="Path 143" d="M93.447,86.665,90.733,81l-1.855.69,1.65,6.062Z" transform="translate(431.157 392.919)" fill="#568b81"/>
        <path id="Path_144" data-name="Path 144" d="M95.108,91.989c1.954.146,3.9.293,5.839.585,4.6.7,9.075,2.223,13.721,2.446a11.32,11.32,0,0,0,5.26-.8c2.709-1.264,4.453-4.54,2.077-6.945a8.927,8.927,0,0,0-3-2,11.249,11.249,0,0,0-1.79-.538c-1.884-.427-3.786-.38-5.652-.813-2.288-.532-4.564-.983-6.828-1.627a53.088,53.088,0,0,1-5.19-1.673A19.9,19.9,0,0,0,96.7,79.6c-.883-.2-1.808-.252-2.668-.544-1.9-.649-3.323-2.463-5.307-2.75a4.535,4.535,0,0,0-3.552,1.159,7.781,7.781,0,0,0-2.083,3.2,10.65,10.65,0,0,0-.176,7.25c.7,1.972,2.37,4.306,4.423,5,1.387.468,1.948-.2,3.177-.638a11.357,11.357,0,0,1,4.593-.287" transform="translate(399.54 369.992)" fill="#fdb082"/>
        <path id="Path_145" data-name="Path 145" d="M136.618,89.36c-.3-2.645-3.037-4.347-5.336-5.09a25.76,25.76,0,0,0-4.57-.889c-1.539-.2-3.06-.439-4.581-.743-3.113-.626-6.2-1.422-9.256-2.264a25.55,25.55,0,0,1-8.829-3.885.994.994,0,0,0-.86-.111c-.17.053-.468.257-.228.439a23.754,23.754,0,0,0,7.22,3.5c2.785.884,5.646,1.574,8.484,2.247,1.5.351,3.019.679,4.535.954s3.031.439,4.546.661c2.569.386,5.412,1.147,6.934,3.452a3.7,3.7,0,0,1,.006,4.254,6.172,6.172,0,0,1-3.575,2.469,13.028,13.028,0,0,1-4.763.047c-1.773-.228-3.522-.626-5.266-1.03a77.069,77.069,0,0,0-10.058-1.738,41.466,41.466,0,0,0-4.968-.24,15.4,15.4,0,0,0-4.839.983c-3.259,1.182-6.466,2.516-9.73,3.692-3.394,1.223-7.226,2.229-10.731.843a1.05,1.05,0,0,0-.889,0c-.2.111-.257.351,0,.451a15.012,15.012,0,0,0,9.467.152,103.476,103.476,0,0,0,9.947-3.61c.655-.252,1.3-.515,1.966-.772a.168.168,0,0,0,.064.228,43.626,43.626,0,0,0,4.833,3.417.6.6,0,0,0,.211.076,1.876,1.876,0,0,0,.176,1.4.559.559,0,0,0,.14.123,7.256,7.256,0,0,0-1.96,1.726l-.035-.023a7.542,7.542,0,0,0-4.657-.831,4.312,4.312,0,0,0-3.3,2.44c-.193.45,1.041.562,1.211.17a3.311,3.311,0,0,1,2.422-1.989,5.471,5.471,0,0,1,3.435.661,1.044,1.044,0,0,0,.573.088,3.844,3.844,0,0,0,.041,4.23.839.839,0,0,0,.772.222c.129-.018.609-.17.439-.4a3.617,3.617,0,0,1,.246-4.324,9.173,9.173,0,0,1,4.1-2.691c.252-.105.2-.339,0-.456a1.059,1.059,0,0,0-.884,0c-.491.2-.977.415-1.457.655a2.521,2.521,0,0,1,.006-1.106,3.494,3.494,0,0,1,.439-1.451c.146-.24-.287-.38-.439-.4-.246-.029-.626-.012-.772.222a3.119,3.119,0,0,0-.345.86,42.45,42.45,0,0,1-4.113-2.949.828.828,0,0,0-.462-.158,15.345,15.345,0,0,1,2.317-.655,20.363,20.363,0,0,1,5.336-.064,64.759,64.759,0,0,1,6.811.907.559.559,0,0,0-.181.111,5.447,5.447,0,0,0-1.872,2.756,4.1,4.1,0,0,0,1.293,3.347c.269.3,1.48.111,1.088-.322a3.668,3.668,0,0,1-1.129-3.025,5.04,5.04,0,0,1,1.7-2.434.178.178,0,0,0,.047-.246c.907.176,1.808.369,2.715.579,1.984.462,3.973.919,6,1.182a24.506,24.506,0,0,0,3.815.269,6.937,6.937,0,0,0,3.206-.889c1.7-.919,3.5-2.37,3.569-4.464a3.729,3.729,0,0,0-.023-.573" transform="translate(386.589 370.269)" fill="#ed7d6b"/>
        <path id="Path_146" data-name="Path 146" d="M85.2,80a.694.694,0,0,0-.374-.146.806.806,0,0,0-.772.222c-.058.082-.123.164-.187.246a5.275,5.275,0,0,1-.708.69c-.058.047-.123.1-.193.146l-.111.076-.018.018h-.006a5.2,5.2,0,0,1-.462.263c-.082.041-.187.123-.187.228s.105.187.187.222a1.051,1.051,0,0,0,.889,0,5.47,5.47,0,0,0,2.007-1.72c.059-.082-.006-.193-.064-.246" transform="translate(398.69 387.308)" fill="#ed7d6b"/>
        <path id="Path_147" data-name="Path 147" d="M204.474,216.887c-4.482,29.893-11.907,60.366-22.732,88.645-.456,1.188-.93,2.387-1.434,3.569H48.173c1.328-10.117,6.272-21.234,7.805-29.027,2.218-11.287,2.212-22.878,2.194-34.381q-.035-24.908-.07-49.816c-.006-5.559-.451-10.842-.117-16.412q.579-9.69,1.6-19.338c3.359-31.684,8.87-64.31,32.45-87.761a43.557,43.557,0,0,1,10.807-8.227c7.759-3.914,16.81-4.061,25.172-2.3,8.063,1.7,15.991,2.873,23.475,6.723,16.1,8.279,19.935,23.5,26.137,39.232,5.307,13.475,10.579,26.792,16.6,40.139,4.523,10.041,8.706,20.432,10.889,31.233a77.289,77.289,0,0,1,1.568,13.323c.222,8.174-.995,16.313-2.206,24.4" transform="translate(233.693 294.747)" fill="#fff"/>
        <path id="Path_148" data-name="Path 148" d="M124.871,218.416c-.819-4.312-1.82-8.59-2.879-12.843-2.194-8.783-4.265-17.6-6.436-26.377-2.124-8.572-2.6-17.864-3.774-26.669q-3.713-27.892-8.039-55.691c-1.51-9.736-3.247-19.759-11.263-26.283a27.962,27.962,0,0,0-3.914-2.762,18.157,18.157,0,0,0-17.337-.076c-6.3,3.476-9.883,10.368-12.328,17.132a92.192,92.192,0,0,0-5.114,25.733c-.48,7.876-.884,16.582.24,24.352C58.858,168.248,62.72,203.2,77,234.062c3.61,7.8,8.379,16.073,16,20.584,7.647,4.523,18.817-4.816,24.674-9.812,6.664-5.7,9.526-11.012,8.274-19.935-.047-.345-.094-.69-.146-1.036q-.4-2.738-.925-5.447" transform="translate(258.577 317.986)" fill="#fdb082"/>
        <path id="Path_149" data-name="Path 149" d="M191.693,115.3q3.59-1.4,7.162-2.8a9.68,9.68,0,0,0,3.364-1.89c1.773-1.744,1.1-5.9.989-8.2a31.441,31.441,0,0,0-2.335-10.491c-.7-1.709-1.685-3.476-3.376-4.213a6.676,6.676,0,0,0-2.82-.415,41.674,41.674,0,0,0-9.748,1.872,184.6,184.6,0,0,1-35.85,5.857c-11.8.743-23.533,2.194-35.353,2.791a162.531,162.531,0,0,0-20.508,1.907,80.345,80.345,0,0,0-10.9,2.75C73.026,105.5,63.7,110.991,61.1,121.014c-1.831,7.056-2.867,15.108-.667,22.217a10.553,10.553,0,0,0,4.084,6.056c2.563,1.592,5.828,1.322,8.818.9,11.737-1.632,23.217-4.669,34.7-7.53,11.732-2.92,23.346-6.272,34.861-9.947,16.459-5.254,32.7-11.158,48.8-17.407" transform="translate(287.117 423.422)" fill="#fdb082"/>
        <path id="Path_150" data-name="Path 150" d="M135.095,111.563a81.913,81.913,0,0,0,1.638-9.139c.363-2.85,1.556-6.916.152-9.608a2.781,2.781,0,0,0-3.1-1.609,35.311,35.311,0,0,0-4.587.965,17.064,17.064,0,0,0-3.517,2.147c-1.492.948-2.978,1.9-4.482,2.838a34.1,34.1,0,0,1-4.968,2.715,18.554,18.554,0,0,1-6.571,1.41,2.81,2.81,0,0,1-2.422-.778c-.69-.913-.14-2.229.544-3.142,3.037-4.031,8.2-5.728,12.229-8.777a5.674,5.674,0,0,0,1.814-1.972,2.355,2.355,0,0,0-.2-2.545,2.438,2.438,0,0,0-2.1-.661,7.812,7.812,0,0,0-2.165.7,51.1,51.1,0,0,1-7.472,2.545c-6.132,1.586-12.767,2.773-17.489,7.331a42.14,42.14,0,0,0-8.461,10.86,23.157,23.157,0,0,0-2.651,13.364,16.036,16.036,0,0,0,6.91,11.468c2.054,1.311,4.277,1.387,6.542,1.96a23.808,23.808,0,0,0,7.759.228l10.386-.843a47.9,47.9,0,0,0,8.987-1.3,31.622,31.622,0,0,0,5.014-1.943c1.463-.7,2.223-2.048,3.06-3.4a43.552,43.552,0,0,0,4.8-11.462c.123-.451.24-.9.351-1.357" transform="translate(393.584 404.518)" fill="#fdb082"/>
        <path id="Path_151" data-name="Path 151" d="M63.75,76.021C54.6,87.577,52.521,103.147,52.223,117.886c-.234,11.772.445,23.545,1.153,35.3.766,12.674,1.205,25.259,1.96,37.921a4.162,4.162,0,0,0,.772,2.615,4.11,4.11,0,0,0,3.195.848,190.461,190.461,0,0,0,67.984-14.394c-.585-13.551-4.985-25.716-7.25-38.816-2.416-14.037-4.979-28.056-8.3-41.912a77.075,77.075,0,0,0-5.248-16.055,42.853,42.853,0,0,0-6.606-9.771,28.124,28.124,0,0,0-11.948-8.268c-9.847-3.189-18.314,3.253-24.183,10.667" transform="translate(253.112 312.985)" fill="#fff"/>
        <path id="Path_152" data-name="Path 152" d="M90.644,89.656c-.146-.351-.807-.351-1.094-.316A39.947,39.947,0,0,0,64.3,102.564a37.676,37.676,0,0,0-4.7,6.653c-.316.573,1.416.778,1.714.24A38.464,38.464,0,0,1,82.423,91.909a36.58,36.58,0,0,1,7.595-1.7c.269-.029.772-.2.626-.556" transform="translate(288.901 433.329)" fill="#ed7d6b"/>
        <path id="Path_153" data-name="Path 153" d="M61.239,139.033q-2.615-11.971-4.353-24.118-1.738-12.129-2.592-24.364-.483-6.925-.685-13.867c-.012-.556-1.568-.544-1.556,0q.36,12.252,1.592,24.452T57,125.411q1.2,6.837,2.68,13.621c.123.573,1.662.486,1.556,0" transform="translate(252.516 369.998)" fill="#c3d8d1"/>
        <path id="Path_154" data-name="Path 154" d="M92.392,154.7q-2.308-12.831-4.611-25.669c-1.486-8.268-2.826-16.582-4.792-24.75A89.692,89.692,0,0,0,75.142,82.6a51.859,51.859,0,0,0-13.13-16.178c-.679-.538-1.369-1.053-2.083-1.545a1.23,1.23,0,0,0-1.059-.146c-.2.064-.591.328-.281.544A48.845,48.845,0,0,1,72.5,80.778,82.244,82.244,0,0,1,80.83,101.86c2.077,8.016,3.423,16.2,4.886,24.341q2.291,12.726,4.57,25.447,2.3,12.779,4.593,25.558l.568,3.165c.105.573,1.644.5,1.556,0q-2.308-12.831-4.611-25.669" transform="translate(283.666 313.722)" fill="#c3d8d1"/>
        <path id="Path_155" data-name="Path 155" d="M102.369,86.1a25.41,25.41,0,0,1-15.061,9.853c-.234.053-.415.257-.234.468.193.228.661.176.913.123a26.5,26.5,0,0,0,15.669-10.263c.269-.369-1.012-.556-1.287-.181" transform="translate(422.05 416.712)" fill="#ed7d6b"/>
        <path id="Path_156" data-name="Path 156" d="M104.093,86.654a23.433,23.433,0,0,1-11.527,11.62,21.463,21.463,0,0,1-4.482,1.5c-.187.041-.579.146-.462.421.1.246.614.281.819.234a24.4,24.4,0,0,0,14.4-9.251,22.847,22.847,0,0,0,2.539-4.342c.211-.468-1.1-.6-1.287-.181" transform="translate(424.96 419.152)" fill="#ed7d6b"/>
        <path id="Path_157" data-name="Path 157" d="M100.1,88.209a26.421,26.421,0,0,1-11.726,11.07c-.252.123-.217.351,0,.486a1.127,1.127,0,0,0,.942,0A27.21,27.21,0,0,0,101.392,88.39c.234-.433-1.065-.585-1.287-.181" transform="translate(427.884 426.772)" fill="#ed7d6b"/>
        <path id="Path_158" data-name="Path 158" d="M126.552,143.943c-5.178,2.3-10.93-3.236-14.757-6.091q-8.452-6.3-16.892-12.638-16.553-12.393-33.112-24.78c-1.264-.942-2.621-2.042-2.873-3.6A5.876,5.876,0,0,1,60.089,93c5.7-9.414,14.248-16.652,20.3-25.809,4.868-7.367,12.375-17.489,22.234-11.135A103.419,103.419,0,0,1,119.449,69.4c3.593,3.569,7.1,8.209,6.214,13.194a9.482,9.482,0,0,1-.439,1.609,15.268,15.268,0,0,1-.749,1.709c-.4.79-.854,1.562-1.3,2.323q-3.326,5.6-6.659,11.211l-.035.058c-.977,1.621-2.346,3.177-2.68,5.038a16.7,16.7,0,0,0,.667,6.811,66.093,66.093,0,0,0,3.259,8.958l6.934,16.5c.96,2.282,1.937,4.652,1.9,7.133" transform="translate(285.625 262.218)" fill="#fdb082"/>
        <path id="Path_159" data-name="Path 159" d="M89.314,69.02c-.4.79-.854,1.562-1.3,2.323q-3.326,5.6-6.659,11.211l-.035.058a19.821,19.821,0,0,1-4.827-3.645,47.227,47.227,0,0,1-9.5-13.323c-1.047-2.2-1.4-5.05.445-7.027,1.65-1.779,4.657-.96,6.664-.369a19.266,19.266,0,0,1,6.612,2.961c.878.69,1.387,1.515,2.4,1.937,1.375.562,3.739.451,4.88,1.428a3.417,3.417,0,0,1,.954,1.861c.2.848.269,1.779.369,2.5l.006.082" transform="translate(320.779 279.116)" fill="#ed7d6b"/>
        <path id="Path_160" data-name="Path 160" d="M149.132,70.593a29.955,29.955,0,0,1,.655,9.04c-.4,5.026-2,9.836-3.177,14.7-1.047,4.33-2.686,9.643.17,13.4q3.853,5.064,7.712,10.14a7.9,7.9,0,0,1,1.521,2.656c.55,2.06-.948,3-2.534,3.856-1.773.954-3.715,1.568-5.459,2.569-5.617,3.224-5.98,9.76-8.151,15.2-2.153,5.395-5.845,9.292-11.837,9.976-9.941,1.141-19.976-4.944-26.9-11.392a45.722,45.722,0,0,1-7.841-9.584c-1.931-3.171-4.242-7.255-4.716-11-.591-4.6-4.845-5.564-8.952-5.465C58.34,113.88,57.948,90.669,62.647,75.052c2.024-6.741,4.751-13.879,8.648-19.771,4.429-6.7,9.684-9.18,17.349-11.053a65.814,65.814,0,0,1,32.626.105,45.355,45.355,0,0,1,14.8,6.934,33.259,33.259,0,0,1,13.066,19.326" transform="translate(292.113 204.848)" fill="#fdb082"/>
        <path id="Path_161" data-name="Path 161" d="M87.208,53.742a3.519,3.519,0,0,1-.924.486,5.47,5.47,0,0,1-2.089.246,58.11,58.11,0,0,0-6.688-.281c-1.632.14-3.92,1.188-5.418.17a.525.525,0,0,1-.193-.2.533.533,0,0,1,0-.357c.328-1.164,1.562-1.785,2.674-2.264a14.71,14.71,0,0,1,10.339-.837c1.492.48,3.721,1.919,2.3,3.037" transform="translate(348.624 243.109)" fill="#7e3e1a"/>
        <path id="Path_162" data-name="Path 162" d="M78.113,54.966a2.529,2.529,0,0,0-2.393-2.89c-2.147-.047-3.113,3.288-3.13,5a2.186,2.186,0,0,0,2.961,2.686c1.685-.726,2.551-3.019,2.563-4.792" transform="translate(351.506 252.622)" fill="#361907"/>
        <path id="Path_163" data-name="Path 163" d="M82.121,164.784a83.069,83.069,0,0,1-22.954,12.083c-1.5.509-3.242.954-4.581.111-2.4-1.5-1.252-5.184.187-7.624,6.934-11.755,14.1-22.638,19.543-35.124,3.862-8.853,5.664-19.4,8.034-28.782,1.469-5.8,2.879-11.609,4.634-17.331,1.568-5.1,3.815-9.76,5.7-14.68A51.853,51.853,0,0,1,110.13,50.488a48.787,48.787,0,0,1,5.652-3.622,43.18,43.18,0,0,1,19.086-5.518c8.11-.281,16.056,2.089,23.773,4.593,5.073,1.644,10.21,3.364,14.757,6.214,4.886,3.066,7.659,6.893,10.2,12.053,2.03,4.119,3.557,8.788,2.557,13.27a12.593,12.593,0,0,1-8.35,8.794,26.792,26.792,0,0,1-8.075,1.082c1.58-2.024,5.114-4.979,4.944-7.735a34.615,34.615,0,0,1-11.86,9.063c-8.548,4.283-17.2,8.291-24.06,15.049-19.876,19.59-33.983,44.164-56.633,61.051" transform="translate(258.058 200.478)" fill="#7e3e1a"/>
        <path id="Path_164" data-name="Path 164" d="M83.906,58.446a11.866,11.866,0,0,0-.333-1.2,9.539,9.539,0,0,0-8.519-6.272c-6.9-.2-9.011,5.477-9.292,11.222a39.965,39.965,0,0,0,2.381,15.634c.913,2.487,2.651,5.266,5.3,5.19a5.764,5.764,0,0,0,3.1-1.276A17.608,17.608,0,0,0,83.28,71.611c.6-2.463.3-5.126.644-7.606a15.429,15.429,0,0,0-.018-5.559" transform="translate(318.792 247.258)" fill="#fdb082"/>
        <path id="Path_165" data-name="Path 165" d="M78.954,66.989a6.3,6.3,0,0,0,1.2.17,4.649,4.649,0,0,0,3.054-1c.626-.515,1.679-2.042,1.533-2.9-.111-.673-.854-1.018-1.5-1.258a51.078,51.078,0,0,1-9.959-5.055c-.527-.345-1.369-.644-1.679-.088-1.5,2.674,2.317,7.039,4.172,8.5a8.561,8.561,0,0,0,3.177,1.632" transform="translate(345.709 274.313)" fill="#fff"/>
        <path id="Path_166" data-name="Path 166" d="M77.757,64.432c-2.235,3.575-9.373,3.136-15.938-.977s-4.172-7.788-1.937-11.363,3.464-5.681,10.035-1.574,10.076,10.345,7.841,13.914" transform="translate(279.162 234.151)" fill="#d3acc9"/>
        <path id="Path_167" data-name="Path 167" d="M49.766,72.68a26.844,26.844,0,0,0-2.475,16.646c.105.579,1.644.544,1.556.059a26.484,26.484,0,0,1,2.411-16.442c.269-.532-1.252-.737-1.492-.263" transform="translate(227.501 351.292)" fill="#361907"/>
        <path id="Path_168" data-name="Path 168" d="M75.771,45.322c-.211-.486-1.744-.392-1.5.158,2.083,4.833,3.756,10.4,2.036,15.6-.2.6,1.334.749,1.492.269,1.773-5.371.129-11.029-2.025-16.032" transform="translate(360.156 218.335)" fill="#361907"/>
        <path id="Path_169" data-name="Path 169" d="M84.62,46.023a21.946,21.946,0,0,1-8.677,16.02,20.674,20.674,0,0,1-4.617,2.615c-.31.123-.269.4-.023.556a1.293,1.293,0,0,0,1.1.041,22.58,22.58,0,0,0,12.75-13.8,21.311,21.311,0,0,0,1.024-5.383c.029-.538-1.527-.609-1.556-.053" transform="translate(344.946 221.396)" fill="#361907"/>
        <path id="Path_170" data-name="Path 170" d="M80.337,46.091c-1.568,4.494-5.892,6.9-9.853,9.011-.281.146-.287.392-.018.562a1.272,1.272,0,0,0,1.1.035c4.09-2.177,8.642-4.693,10.263-9.344.2-.591-1.322-.743-1.492-.263" transform="translate(340.88 222.212)" fill="#361907"/>
        <path id="Path_171" data-name="Path 171" d="M82.779,42.924a1.212,1.212,0,0,0-1.059-.181C74.962,44.591,68.514,48.3,64.71,54.351a20.636,20.636,0,0,0-2.34,5.254c-.135.462,1.393.626,1.556.058,1.872-6.495,7.062-11.427,13.066-14.218a34.546,34.546,0,0,1,5.488-1.989c.257-.07.527-.275.3-.532" transform="translate(302.524 207.142)" fill="#361907"/>
        <path id="Path_172" data-name="Path 172" d="M73.119,43.653a1.233,1.233,0,0,0-1.071.105A20.211,20.211,0,0,0,63.9,54.331c-.193.6,1.334.749,1.492.269a19.767,19.767,0,0,1,7.987-10.4c.31-.2-.064-.48-.257-.55" transform="translate(309.895 211.398)" fill="#361907"/>
        <path id="Path_173" data-name="Path 173" d="M108.795,54.985a1.04,1.04,0,0,0-.96.275q-9.7,11.734-19.4,23.463A81.606,81.606,0,0,1,78.813,88.9a54.78,54.78,0,0,1-10.678,7.068A60.953,60.953,0,0,1,54.519,100.9c-.269.064-.509.3-.281.544.24.257.761.211,1.065.14a59.926,59.926,0,0,0,23.41-11.105,69.583,69.583,0,0,0,9.859-9.918c3.242-3.844,6.413-7.735,9.613-11.609q5.573-6.741,11.152-13.487c.222-.269-.392-.462-.544-.486" transform="translate(262.676 266.652)" fill="#361907"/>
        <path id="Path_174" data-name="Path 174" d="M72.306,58.545A37.782,37.782,0,0,1,55.882,72.389c-.31.129-.252.41,0,.562a1.336,1.336,0,0,0,1.1,0A38.758,38.758,0,0,0,73.81,58.756c.3-.456-1.205-.661-1.5-.211" transform="translate(270.067 282.786)" fill="#361907"/>
        <path id="Path_175" data-name="Path 175" d="M66.024,52.6a1.205,1.205,0,0,0-1.065.14,34.849,34.849,0,0,0-9.684,14.335c-.211.579,1.322.7,1.5.211A34.366,34.366,0,0,1,66.3,53.144c.263-.24-.053-.468-.281-.544" transform="translate(268.052 254.865)" fill="#361907"/>
        <path id="Path_176" data-name="Path 176" d="M290.924,188.363c-1.826,6.144-2.873,12.264-5.365,18.3-2.651,6.43-5.828,12.638-8.566,19.028-4.8,11.211-6.161,22.445-7.776,34.434a92.248,92.248,0,0,0,3.844,41.332c1.773,5.3,4.043,10.479,5.763,15.786H128.262a168.068,168.068,0,0,1-2.434-16.81c-1.357-14.71-.749-29.577-2.814-44.205-3.675-26.125-15.81-51.349-13.569-77.639a115.632,115.632,0,0,1,3.721-19.513c2.662-10.122,5.863-20.087,9.069-30.045,4.043-12.6,7.419-25.148,11.158-37.81,1.281-4.336,2.177-9.1,4.131-13.194,1.375-2.861,3.171-7.519,5.43-9.619,2.721-2.528,6.869-2.463,10.585-2.335,4.423.146,8.859.164,13.282.041,1.673-.047,3.663.211,5.213-.374,1.785-.667,3.417-2.457,5.1-3.405a21.787,21.787,0,0,1,3.926-1.72c5.676-1.872,12.047-1.632,18.115-1.328,9.567.48,19.162.96,28.624,2.469,8.4,1.34,17.132,3.751,23.012,9.888a29.744,29.744,0,0,1,4.663,6.623c1.036,1.925,1.644,4.429,3.253,5.951,3.54,3.335,8.987,6.12,13.218,8.531,4.634,2.639,9.882,4.342,13.6,8.221a39.48,39.48,0,0,1,8.543,14.452c2.417,6.986,3.224,14.423,3.464,21.831l.035.977a162.219,162.219,0,0,1-6.664,50.132" transform="translate(529.603 286.602)" fill="#d3acc9"/>
        <path id="Path_177" data-name="Path 177" d="M119.356,158.152c-.8-7.285,1.539-14.5,3.745-21.491q3.73-11.787,7.045-23.685a19.065,19.065,0,0,0,1-6.22c-.216-3.476-2.264-6.542-3.288-9.871-2.329-7.554,1.5-16.746,3.885-23.908,1.363-4.1,1.82-9.327,6.442-10.778,8.344-2.621,18.835-2.814,27.506-2.534a55.357,55.357,0,0,1,21.152,5.266c3,1.4,7.261,3.458,9.1,6.378,2.481,3.95-.831,8.408-3.663,11.217a101.647,101.647,0,0,1-22.72,16.933c-7.864,4.312-15.336,6.191-18.846,15.242-1.51,3.885-2.534,8.028-4.88,11.474-1.738,2.551-4.108,4.587-6.109,6.939-3.733,4.4-6.068,9.748-9.526,14.353a56.171,56.171,0,0,1-5.5,6.173c-.38.374-5.348,4.494-5.348,4.511" transform="translate(578.232 288.979)" fill="#fdb082"/>
        <path id="Path_178" data-name="Path 178" d="M120.374,80.7a.668.668,0,0,0-.451.222,3.237,3.237,0,0,0-.339.094c-1.755.614-2.288,2.5-2.147,4.2a4.043,4.043,0,0,0,.919,2.393,3.018,3.018,0,0,0,2.452.942,3.111,3.111,0,0,0,2.375-1.621,5.672,5.672,0,0,0,.942-2.89,3.287,3.287,0,0,0-3.751-3.335" transform="translate(569.596 391.337)" fill="#fff"/>
        <path id="Path_179" data-name="Path 179" d="M120.374,90.048a.668.668,0,0,0-.451.222,3.22,3.22,0,0,0-.339.094c-1.755.614-2.288,2.5-2.147,4.2a4.042,4.042,0,0,0,.919,2.393,3.018,3.018,0,0,0,2.452.942,3.111,3.111,0,0,0,2.375-1.621,5.672,5.672,0,0,0,.942-2.89,3.287,3.287,0,0,0-3.751-3.335" transform="translate(569.596 436.67)" fill="#fff"/>
        <path id="Path_180" data-name="Path 180" d="M120.374,99.393a.668.668,0,0,0-.451.222,3.224,3.224,0,0,0-.339.094c-1.755.614-2.288,2.5-2.147,4.2a4.042,4.042,0,0,0,.919,2.393,3.036,3.036,0,0,0,2.452.942,3.111,3.111,0,0,0,2.375-1.621,5.69,5.69,0,0,0,.942-2.89,3.287,3.287,0,0,0-3.751-3.335" transform="translate(569.596 482.004)" fill="#fff"/>
        <path id="Path_181" data-name="Path 181" d="M168.254,42.816a27.6,27.6,0,0,0-9.941,5.079,37.739,37.739,0,0,0-10.421,14.382c-1.709,4-2.908,8.332-5.664,11.7-2.931,3.575-7.267,5.635-10.959,8.414-8.35,6.29-13.7,18.045-14.247,28.366-.31,5.851-.72,11.6-1.223,17.466a1.588,1.588,0,0,0,.07.8,1.464,1.464,0,0,0,.5.55c4.827,3.739,10.444,6.343,15.266,9.918a53.08,53.08,0,0,0,3.674-4.47c-.439.55-.029,4.851.328,5.623.609,1.311,1.439,1.393,2.686,1.913a76.4,76.4,0,0,0,12.516,4.061c10.725,2.434,21.912.995,32.813-.456a1.615,1.615,0,0,0,1.785-1.884c.585-14.318.708-28.688,1.943-42.924.848-9.795,3.335-19.385,4.318-29.168s.316-20.145-4.675-28.618c-2.709-4.6-8.736-3.47-12.919-2.358-2.036.544-3.979,1.03-5.851,1.609" transform="translate(561.668 195.097)" fill="#361907"/>
        <path id="Path_182" data-name="Path 182" d="M179.24,110.846a23.5,23.5,0,0,1-7.53,2.446,14.048,14.048,0,0,1-4.365-.345,15.644,15.644,0,0,0-3.991-.082q-10.155.386-20.315.784c-3.476.135-7.033.059-10.5.41A4.981,4.981,0,0,1,127,110.922a17.225,17.225,0,0,1-1.357-5.6l-.023-.24Q124.2,93.357,122.788,81.62c-.152-1.252-.3-2.5-.45-3.751-.445-3.692-.889-7.46-.164-11.105.094-.474.2-.977.339-1.5.673-2.686,1.861-5.915,3.517-7.77,1.814-2.013,4.979-2.463,7.483-2.908a103.509,103.509,0,0,1,21.433-1.428c5.044.158,9.824,1.58,12.761,5.986,4.061,6.085,4.494,14.757,6.237,21.731,1.738,6.945,3.224,13.932,6.7,20.321a20.281,20.281,0,0,1,2.007,4.23c.919,3.405-.813,4.154-3.411,5.424" transform="translate(590.815 257.57)" fill="#fdb082"/>
        <path id="Path_183" data-name="Path 183" d="M144.153,61.95a8.738,8.738,0,0,1-2.358,2.615,36.906,36.906,0,0,1-17.284,7.776,10.056,10.056,0,0,1-1.726.146q-.219-1.869-.45-3.745c-.445-3.692-.884-7.46-.158-11.105.088-.474.2-.977.339-1.5.117-.041.24-.076.357-.105A40.061,40.061,0,0,1,133.9,54.982a19.488,19.488,0,0,1,5.442.585c2.662.8,6.442,3.224,4.81,6.384" transform="translate(590.818 266.701)" fill="#ed7d6b"/>
        <path id="Path_184" data-name="Path 184" d="M153.173,48.985a30,30,0,0,0-5.67,7.068c-2.528,4.365-3.944,9.227-5.74,13.908-1.592,4.16-3.265,9.461-7.741,10.93q-6.056,1.992-12.112,3.973a7.913,7.913,0,0,0-2.756,1.322c-1.621,1.387-.924,3.013-.105,4.617.919,1.79,2.165,3.4,3.037,5.213,2.8,5.839-.614,11.427-1.919,17.138-1.293,5.664-.462,10.971,4.078,14.938,7.53,6.577,19.25,7.267,28.618,5.892a45.79,45.79,0,0,0,11.89-3.44c3.394-1.51,7.618-3.563,10.134-6.372,3.1-3.452,7.144-1.837,10.468.579,17.981,11.416,31.479-7.466,36.482-22.989,2.159-6.7,3.967-14.125,4.1-21.187.158-8.034-2.756-13.054-8-18.952a65.827,65.827,0,0,0-26.921-18.431A45.166,45.166,0,0,0,174.9,40.5a33.247,33.247,0,0,0-21.731,8.49" transform="translate(573.279 196.382)" fill="#fdb082"/>
        <path id="Path_185" data-name="Path 185" d="M122.954,46.261a3.363,3.363,0,0,0,.375.977,5.412,5.412,0,0,0,1.4,1.568,59.023,59.023,0,0,1,5.2,4.219c1.129,1.188,2.147,3.487,3.944,3.715a.51.51,0,0,0,.281-.023.517.517,0,0,0,.234-.263c.527-1.094.012-2.376-.5-3.47a14.707,14.707,0,0,0-7.191-7.478c-1.434-.626-4.061-1.024-3.733.755" transform="translate(596.33 218.187)" fill="#361907"/>
        <path id="Path_186" data-name="Path 186" d="M123.369,48.681a2.527,2.527,0,0,1,3.61-1.018c1.79,1.176.7,4.476-.257,5.886a2.185,2.185,0,0,1-3.961.532c-.977-1.556-.386-3.938.609-5.4" transform="translate(593.101 229.23)" fill="#361907"/>
        <path id="Path_187" data-name="Path 187" d="M197.246,152.977c2.136-3.259.415-6.319.515-9.707a48.407,48.407,0,0,1,1.287-11.492,24.912,24.912,0,0,0-1.112-16.015c-1.281-3.031-3.165-5.816-3.99-9-1.211-4.681.012-9.6.913-14.347,1.861-9.877-1.083-20.625-7.232-28.559A61.633,61.633,0,0,0,153.9,41.6a40.479,40.479,0,0,0-12.6-1.545,21.81,21.81,0,0,0-13.112,5.453c-3.417,3.078-3.282,8.619-3.054,12.9A85.589,85.589,0,0,0,127.6,72.992q1.641,7.083,3.271,14.154a15,15,0,0,0,2.165,5.681,31.239,31.239,0,0,0,2.656,2.773c4.517,4.8,3.552,12.083,3.558,18.109a15.253,15.253,0,0,0,.187,2.335,57.484,57.484,0,0,1,1.036,6.6c.129,3.985.386,8.127.17,12.106a39.115,39.115,0,0,0,.924,9.608c1.071,3.99,3.8,8.139,7.981,9.233a13.386,13.386,0,0,1,1.439-3.628c.4,5.365,3.125,5.155,7.688,6.261,3.809.924,9.467,2.832,13.387,1.656,3.464-1.041,4.546-7.39,5.769-10.45.292,1.621.591,3.236.878,4.856.38,2.165.17,2.621,1.978,3.37,2.223.919,5.57.878,7.928.9,3.247.023,6.846-.86,8.63-3.581" transform="translate(606.565 194.065)" fill="#361907"/>
        <path id="Path_188" data-name="Path 188" d="M133.89,51.58c.3-.269.632-.532.971-.778a9.535,9.535,0,0,1,10.579-.129c5.722,3.862,4.131,9.707,1.006,14.534a40.075,40.075,0,0,1-11.059,11.31c-2.182,1.492-5.225,2.733-7.331,1.129a5.827,5.827,0,0,1-1.773-2.844,17.62,17.62,0,0,1,.439-12.164c.948-2.352,2.75-4.336,3.915-6.553a15.514,15.514,0,0,1,3.253-4.505" transform="translate(608.354 238.361)" fill="#fdb082"/>
        <path id="Path_189" data-name="Path 189" d="M126.229,58.94a11.231,11.231,0,0,1-6.056-1.72,1.109,1.109,0,0,1-.386-.4,1.091,1.091,0,0,1-.059-.55c.07-1.375-.158-3.587.971-4.6.708-.638,1.8-.445,2.732-.24a60.539,60.539,0,0,0,12.937,1.48c-.486,3.914-3.727,5.605-7.408,5.956a20.809,20.809,0,0,1-2.732.082" transform="translate(580.775 248.501)" fill="#fff"/>
        <path id="Path_190" data-name="Path 190" d="M139.528,60.409a7.114,7.114,0,1,1-6.711-7.489,7.112,7.112,0,0,1,6.711,7.489" transform="translate(607.9 256.664)" fill="#74a59b"/>
        <path id="Path_191" data-name="Path 191" d="M133.861,59.938c1.071,6.22,3.657,13.68-.141,19.5-1.4,2.147-3.464,3.78-5.055,5.8a16.513,16.513,0,0,0-3.517,9.7c-.181,6.407,3.376,12.773,1.843,19a55.9,55.9,0,0,1-2.013,5.418,21.459,21.459,0,0,0,.023,14.5,2.588,2.588,0,0,0,.708,1.188,2.854,2.854,0,0,0,1.346.486c2.861.527,5.641,1.492,8.537,1.738.357.029,4.552-.018,4.295.515a23.793,23.793,0,0,0,1.826-14.7c-.983-4.944-3.534-9.537-3.985-14.558A17.836,17.836,0,0,1,140,98.14c1.463-2.557,3.534-4.7,5.178-7.138,3.2-4.734,3.288-9.491,4.646-14.762,1.276-4.962.445-10.421-.211-15.459-.673-5.2-1.866-10.754-5.114-15.008-3.446-4.505-9.028-5.605-10.45,1.205a33.986,33.986,0,0,0-.4,11.591c.064.456.135.913.216,1.369" transform="translate(600.227 204.386)" fill="#361907"/>
        <path id="Path_192" data-name="Path 192" d="M134.842,80.018c-5.875-8.262-7.425-18.63-6.852-28.554.176-3.1.544-6.179,1.024-9.245.064-.445-1.258-.556-1.334-.07-1.592,10.257-1.943,21.07,2,30.865a33.92,33.92,0,0,0,3.868,7.115.873.873,0,0,0,.807.281c.129-.012.661-.146.486-.392" transform="translate(613.945 202.936)" fill="#7e3e1a"/>
        <path id="Path_193" data-name="Path 193" d="M135.22,63.757a28.263,28.263,0,0,1-6.214-18.6c.012-.474-1.317-.544-1.334-.076a28.768,28.768,0,0,0,6.378,18.958c.269.334,1.562.2,1.17-.281" transform="translate(619.277 217.15)" fill="#7e3e1a"/>
        <path id="Path_194" data-name="Path 194" d="M148.249,99.742c-2.82-3.85-6.594-7.062-8.584-11.48C137.53,83.5,138,78.093,138.987,73.113c1.071-5.389,2.832-10.778,2.61-16.336-.193-4.78-1.943-9.689-5.939-12.568-.357-.257-1.586-.018-.971.427,3.557,2.563,5.2,7.01,5.529,11.24.415,5.365-1.164,10.631-2.282,15.816-1.041,4.839-1.749,9.994-.263,14.815,1.41,4.581,4.9,7.981,7.881,11.574,3.23,3.885,6.477,9.432,4.172,14.563-.211.48,1.094.661,1.276.252,2-4.464-.053-9.467-2.75-13.153" transform="translate(652.559 213.949)" fill="#7e3e1a"/>
        <path id="Path_195" data-name="Path 195" d="M136.984,54.209c-.228-.4-1.533-.3-1.293.111a14.975,14.975,0,0,1-.035,14.827c-.252.433,1.047.644,1.276.252a15.369,15.369,0,0,0,.053-15.19" transform="translate(657.927 261.74)" fill="#7e3e1a"/>
        <path id="Path_196" data-name="Path 196" d="M138.68,77.2a12.965,12.965,0,0,1-5.465-7.285,23.269,23.269,0,0,1-.48-10.807c.351-2.264.878-4.505,1.41-6.735.1-.421-1.217-.562-1.334-.076-1.685,7.086-3.423,15.277,1.077,21.731a12.285,12.285,0,0,0,3.827,3.6,1.075,1.075,0,0,0,.936.053c.246-.117.275-.334.029-.48" transform="translate(635.612 252.222)" fill="#7e3e1a"/>
        <path id="Path_197" data-name="Path 197" d="M129.149,49.446a12.2,12.2,0,0,0-3.7,12.282c.111.421,1.434.41,1.293-.111a11.788,11.788,0,0,1,3.534-11.767c.456-.4-.8-.69-1.129-.4" transform="translate(606.548 239.312)" fill="#7e3e1a"/>
        <path id="Path_198" data-name="Path 198" d="M120.235,50.169a13.26,13.26,0,0,0-2.738,13.51c.152.421,1.474.38,1.293-.111a12.853,12.853,0,0,1,2.575-13c.427-.456-.837-.72-1.129-.4" transform="translate(566.137 242.703)" fill="#7e3e1a"/>
        <path id="Path_199" data-name="Path 199" d="M119.378,57.714a11.741,11.741,0,0,1-.14-6.483c.111-.41-1.205-.556-1.328-.07a12.01,12.01,0,0,0,.176,6.664c.129.421,1.451.392,1.293-.111" transform="translate(570.107 246.708)" fill="#7e3e1a"/>
        <path id="Path_200" data-name="Path 200" d="M132.961,43.082a1.043,1.043,0,0,0-.907-.17c-.181.047-.5.24-.263.451a14.191,14.191,0,0,1,4.763,11.966c-.041.462,1.287.556,1.334.076a14.679,14.679,0,0,0-4.927-12.322" transform="translate(638.931 208.001)" fill="#7e3e1a"/>
        <path id="Path_201" data-name="Path 201" d="M139.666,162.924q-.325-3.247-.761-6.489c-1.147-8.467-4.108-16.793-5.067-25.207-.837-7.349-4.33-14.464-6.208-21.69a182.245,182.245,0,0,1-4.564-24.563c-.766-6.518-1.334-13.06-1.966-19.6-.228-2.387.123-6.2-1.27-8.238-1.246-1.831-4.33-3.242-6.29-4.072a26.41,26.41,0,0,0-8.2-2.153c-4.985-.392-10.257,1.363-12.475,6.179a7.948,7.948,0,0,0-.673,4.617c.579,3.44.228,7.794.3,11.322.1,4.459.152,8.911.181,13.37.07,8.929.064,17.852.222,26.781.316,17.7,1.252,35.475,4.71,52.877,1,5.032,2.206,10.023,3.657,14.944,2.364,8,5.81,16.383,13.7,20.257a20.588,20.588,0,0,0,17.173.07c5.167-2.229,6.881-5.412,7.881-11.088a45.589,45.589,0,0,0,.538-7.63,184.343,184.343,0,0,0-.9-19.689" transform="translate(446.775 246.742)" fill="#fdb082"/>
        <path id="Path_202" data-name="Path 202" d="M221.316,111.609c1.077-2.083,1.27-4.979,1.878-7.244a65.3,65.3,0,0,0,1.925-10.5c.263-2.791-.14-5.676.111-8.408.293-3.206,1.6-6.132,1.527-9.45A18.293,18.293,0,0,0,223.23,65.73c-1.82-2.493-3.985-5.19-7.255-5.243-8.894-.14-17.1,4.505-24.382,9.139-6.425,4.09-12.428,8.812-18.794,13a134.046,134.046,0,0,1-23.34,12.217Q143.341,97.315,137,99.175c-3.9,1.141-7.846,1.369-11.65,2.814-8.121,3.084-14.681,9.432-19.408,16.594-2.37,3.587-3.914,7.642-6.278,11.158a28.163,28.163,0,0,0-4.224,14.09,15.388,15.388,0,0,0,1.106,6.986c1.088,2.387,2.036,3.037,4.523,3.786A56.008,56.008,0,0,0,118.225,157c8.648-.152,17.126-2.294,25.5-4.464,12.03-3.119,24.107-6.337,35.411-11.5A157.546,157.546,0,0,0,202.148,127.7c3.634-2.475,7.2-5.032,10.754-7.618,3.37-2.452,6.448-4.663,8.414-8.472" transform="translate(462.891 293.418)" fill="#d3acc9"/>
        <path id="Path_203" data-name="Path 203" d="M119.476,109.708a58.859,58.859,0,0,0,13.932-6.986c3.364-2.323,8.519-3.838,9.736-7.94,2.06-6.957,4.95-36.423-9.648-25.388-11.38,8.6-22.679,15.213-37.1,17.261-1.457.211-3.124.491-3.891,1.749a4.892,4.892,0,0,0-.281,3.277c.86,5.857,1.545,11.808,4.71,16.968,4.178,6.822,16.693,3.107,22.538,1.059" transform="translate(446.714 324.767)" fill="#d3acc9"/>
        <path id="Path_204" data-name="Path 204" d="M102.213,40.664a2.77,2.77,0,0,0-.579.129,7.685,7.685,0,0,0-2.75,2.071c-.1.105-.105.2-.053.269-.5.363.041.971.3,1.293.211.252.421.5.632.761a7.087,7.087,0,0,0,.667.778c1.556,1.369,3.569-1.7,3.862-2.955a2.036,2.036,0,0,0-.263-1.668,1.983,1.983,0,0,0-1.82-.679" transform="translate(478.441 197.201)" fill="#568b81"/>
        <path id="Path_205" data-name="Path 205" d="M104.908,40.018a2.77,2.77,0,0,0-.579.129,7.686,7.686,0,0,0-2.75,2.071c-.1.105-.105.2-.047.269-.509.363.035.971.3,1.293.211.252.421.5.632.761a7.083,7.083,0,0,0,.667.778c1.556,1.369,3.569-1.7,3.862-2.955a2.036,2.036,0,0,0-.263-1.668,1.973,1.973,0,0,0-1.82-.679" transform="translate(491.526 194.068)" fill="#568b81"/>
        <path id="Path_206" data-name="Path 206" d="M106.89,39.938a3.258,3.258,0,0,0-.983.047,5.113,5.113,0,0,0-2.744,1.855,1.131,1.131,0,0,0-.334.7c.012.614.585.392.889.6a5.1,5.1,0,0,1,.772.919,6.45,6.45,0,0,0,.661.778c.41.363,1.036.293,1.551.427a1.721,1.721,0,0,0,1.627-.731,3.077,3.077,0,0,0,.544-3.435,2.616,2.616,0,0,0-1.983-1.164" transform="translate(498.836 193.657)" fill="#568b81"/>
        <path id="Path_207" data-name="Path 207" d="M108.237,43.312a3.685,3.685,0,0,0-1.188.094,4.116,4.116,0,0,0-2.779,1.744c-.48,1.03.556,2.8,1.141,3.645a1.317,1.317,0,0,0,.585.532,1.462,1.462,0,0,0,1.194-.293A6.216,6.216,0,0,0,110.2,45.12a1.37,1.37,0,0,0,.012-.6,1.315,1.315,0,0,0-.579-.737,2.956,2.956,0,0,0-1.393-.474" transform="translate(505.23 210.047)" fill="#568b81"/>
        <path id="Path_208" data-name="Path 208" d="M167.676,61.1c-1.919-2.141-5.284-1.416-7.5-.252a87.277,87.277,0,0,0-7.846,4.845c-5.184,3.446-9.76,7.571-14.991,10.866,1.012-.638,1.966-2.674,2.715-3.639.977-1.264,1.978-2.51,2.99-3.751,2.019-2.469,4.1-4.9,6.167-7.331a104.135,104.135,0,0,0,10.965-14.716,7.718,7.718,0,0,0,1.363-3.856c-.035-3.306-4-3.7-6.343-2.6a8.807,8.807,0,0,0-2.7,2.089,5.326,5.326,0,0,0-5.459-1.65,10.936,10.936,0,0,0-2.984,1.48,57.2,57.2,0,0,0-7.536,5.763c-.632-1.837-.942-3.359-2.937-4.09-1.211-.439-3.335,1.135-4.172,1.878a19.336,19.336,0,0,0-3.113,3.909C122.9,55.2,119.5,60.37,116.6,65.829c-.468.878-.784,1.9-1.3,2.727a27.3,27.3,0,0,1-2.867,3.195q-2.808,3.186-5.418,6.542A140.34,140.34,0,0,0,97.4,92.3a44.734,44.734,0,0,0-4.464,9.169,18.856,18.856,0,0,0-.661,10.081,7.482,7.482,0,0,0,1.34,3.007,10.2,10.2,0,0,0,4.558,2.727c5.793,2.188,10.842,3.283,17,2.259a53.089,53.089,0,0,0,16.611-5.7c6.5-3.54,10.6-9.233,16.137-13.943,1.943-1.656,3.967-3.212,5.992-4.769.217-.164.053-.38-.123-.48a18.414,18.414,0,0,0-4.886-2.188,8.306,8.306,0,0,0-5.149.4c-2.943,1.205-5.36,3.411-8.1,4.979a14.356,14.356,0,0,1-2.592,1.188c.38-.123,1.088-1.761,1.34-2.13q.772-1.15,1.615-2.235c1.118-1.457,2.335-2.82,3.587-4.16,2.674-2.867,5.728-5.442,8.613-8.11q9.233-8.54,18.46-17.085a5.91,5.91,0,0,0,1.363-1.6,2.28,2.28,0,0,0-.363-2.615" transform="translate(445.615 194.576)" fill="#fdb082"/>
        <path id="Path_209" data-name="Path 209" d="M111.214,41.7c-2.229,3.5-5.278,6.354-7.718,9.689-2.6,3.557-4.552,7.606-6.67,11.462-.24.427,1.065.579,1.287.176,2.112-3.85,4.067-7.9,6.67-11.456,2.44-3.335,5.488-6.191,7.718-9.689.252-.4-1.036-.573-1.287-.181" transform="translate(469.574 201.235)" fill="#ed7d6b"/>
        <path id="Path_210" data-name="Path 210" d="M121.62,40.674a1.031,1.031,0,0,0-.913.123,59.5,59.5,0,0,0-9,9.824q-4.555,5.8-9.04,11.667-1.229,1.606-2.452,3.212c-.421.55-.837,1.106-1.258,1.656a2.374,2.374,0,0,0-.673,1.551c.023.474,1.357.462,1.334,0a2.112,2.112,0,0,1,.626-1.369c.374-.5.749-.989,1.123-1.48.726-.96,1.457-1.913,2.182-2.873q2.194-2.861,4.4-5.717c2.85-3.68,5.64-7.437,8.683-10.959a41.117,41.117,0,0,1,5.225-5.167c.24-.2-.053-.4-.24-.468" transform="translate(476.786 197.057)" fill="#ed7d6b"/>
        <path id="Path_211" data-name="Path 211" d="M108.3,50.159c-3.739-.064-7.525-.088-11.141.977-.234.064-.427.246-.24.462s.673.193.913.123c3.4-1,6.963-.942,10.468-.884.2.006.667-.064.667-.339s-.48-.339-.667-.339" transform="translate(469.788 243.205)" fill="#ed7d6b"/>
        <path id="Path_212" data-name="Path 212" d="M107.778,53.474a1.086,1.086,0,0,0-.942,0,15.52,15.52,0,0,1-5.465,1.691,14.637,14.637,0,0,1-2.773.053c-.79-.059-1.831-.088-2.294-.848-.234-.386-1.539-.228-1.287.181a3.116,3.116,0,0,0,2.376,1.229,16.757,16.757,0,0,0,3.552.111,17.35,17.35,0,0,0,6.834-1.937c.246-.129.228-.345,0-.48" transform="translate(460.782 258.888)" fill="#ed7d6b"/>
        <path id="Path_213" data-name="Path 213" d="M108.55,49.459a1.261,1.261,0,0,0-1.176-.193,3.164,3.164,0,0,0-.9.509,15.2,15.2,0,0,0-1.609,1.334c-1.036.971-2.024,2.007-3.025,3.019a.462.462,0,0,0-.129.135c-.176.2.047.38.257.445a1.031,1.031,0,0,0,.913-.123l.117-.123a24.245,24.245,0,0,0,5.617-4.739c.064-.082-.012-.2-.07-.263" transform="translate(493.127 238.698)" fill="#568b81"/>
        <path id="Path_214" data-name="Path 214" d="M93.419,72.209c.456,1.755.924,3.5,1.439,5.243,2.364,8,5.81,16.383,13.7,20.257a20.588,20.588,0,0,0,17.173.07c5.167-2.229,6.881-5.412,7.882-11.088a45.594,45.594,0,0,0,.538-7.63c.018-2.288-.012-4.57-.076-6.852Z" transform="translate(453.187 350.295)" fill="#d3acc9"/>
        <path id="Path_215" data-name="Path 215" d="M242.8,96.3c-4.178-.848-8.391-1.586-12.6-2.7-8.449-2.235-18.185-.257-26.921-.006-28.15.807-56.13-3.762-84.01-7.706-4.991-.708-9.4-.878-13.171,2.885a17.33,17.33,0,0,0-4.909,10.959,14.024,14.024,0,0,0,2.873,9.964c3.212,3.815,8.742,5.284,13.317,6.647,5.9,1.749,11.468,4.441,17.331,6.3a130.456,130.456,0,0,0,15.418,3.534c38.816,7.261,77.908,14.546,117.4,14.476,4.1-.006,8.683-.3,11.439-3.335,4.254-4.669,2.411-12.317.012-17.36-4.242-8.929-12.527-15.441-21.573-19.408A70.537,70.537,0,0,0,242.8,96.3" transform="translate(490.683 414.689)" fill="#fdb082"/>
        <path id="Path_216" data-name="Path 216" d="M217.836,110.439c-.287-11.141-3.5-22.509-10.631-31.245a28.867,28.867,0,0,0-12.937-9.42c-6.852-2.282-16.272-1.211-19.859,5.717-4.1,7.917-6.512,16.565-9.35,25.008-8.192,24.376-20.058,47.359-28.694,71.577-.825,2.305-1.615,4.78-2.311,7.349-2.387-.655-4.786-1.188-7.2-1.673-.6-.123-1.2-.24-1.8-.363v43.731c8.823.638,17.664.995,26.523.983,3.628-.006,7.642-.246,10.427-2.4,4.031-2.206,7.092-6.313,9.643-9.947,14.634-20.848,26.7-43.363,38.635-65.872,2.65-5,5-9.549,5.629-15.143.69-6.19,2.095-11.989,1.931-18.3" transform="translate(606.628 333.234)" fill="#d3acc9"/>
        <path id="Path_217" data-name="Path 217" d="M180.5,109.215a11.872,11.872,0,0,0-2.82-4.412,28.378,28.378,0,0,0-5.623-3.938q-3.695-2.177-7.4-4.342-5.784-3.4-11.562-6.787-2.9-1.694-5.781-3.394c-1.808-1.059-3.768-2.651-5.734-3.353-7.349-2.627-16.471-1.814-24.042-.8-4.1.55-8.221,1.194-12.264,2.065-1.989.427-4.242,1.024-5.646,2.6a5.456,5.456,0,0,0-1.24,2.417,11.953,11.953,0,0,0,.07,2.528q-2.194,1.229-4.394,2.457c-2.182,1.223-5.986,3.212-5.728,6.167a3.1,3.1,0,0,0,1.551,2.51A4.532,4.532,0,0,0,88.6,106.1a3.142,3.142,0,0,0,1.4,2.645,7.06,7.06,0,0,0,1.75.731c.726.228,1.451.45,2.171.679l.047.012a3.415,3.415,0,0,0,.07,3.5c-.193.146-.17.345.07.48,1.053.6,1.346,1.018,2.621,1,1.586-.018,3.171-.059,4.757-.041q4.625.044,9.233.427a42.983,42.983,0,0,1,6.969,1.036,35.3,35.3,0,0,1,9.262,4.113c1.34.79,2.621,1.8,3.979,2.5,1.644.848,3.628,1.112,5.354,1.773,1.539.6,2.99,1.4,4.488,2.1A54.7,54.7,0,0,0,154.717,131a40.579,40.579,0,0,0,12.346.655,17.664,17.664,0,0,0,9.034-3.792,8.39,8.39,0,0,0,2.03-3.072,31.618,31.618,0,0,0,2.452-4.845,16.683,16.683,0,0,0-.076-10.731" transform="translate(428.499 394.029)" fill="#fdb082"/>
        <path id="Path_218" data-name="Path 218" d="M124.077,85.733a60.74,60.74,0,0,0-13.528-2.621A57.669,57.669,0,0,0,97.379,82.9a27.9,27.9,0,0,0-7.144,1.831c-.252.105-.2.339,0,.456a1.086,1.086,0,0,0,.9,0,30.611,30.611,0,0,1,12.246-1.925A90.5,90.5,0,0,1,116.19,84.51a43.416,43.416,0,0,1,7.25,1.779.945.945,0,0,0,.866-.117c.181-.216-.012-.363-.228-.439" transform="translate(436.917 400.717)" fill="#ed7d6b"/>
        <path id="Path_219" data-name="Path 219" d="M128.478,87.5A133.626,133.626,0,0,0,113.5,85.156a49.568,49.568,0,0,0-7.454-.117,18.123,18.123,0,0,0-3.593.585,25.3,25.3,0,0,0-3.282,1.258l-8.092,3.511a.287.287,0,0,0-.146.123,3.09,3.09,0,0,1-1.434-3.1A5.506,5.506,0,0,1,91.832,84.2c.234-.176-.059-.38-.228-.439a.98.98,0,0,0-.854.117,5.935,5.935,0,0,0-2.51,3.534,3.551,3.551,0,0,0,1.732,3.516,4.681,4.681,0,0,0-1.463,3.177A3.3,3.3,0,0,0,90.188,97a1.064,1.064,0,0,0,.216.076A10.808,10.808,0,0,0,93.8,98.269a4.713,4.713,0,0,0,.17,3.206,3.182,3.182,0,0,0,2.645,1.422,71.043,71.043,0,0,0,8.121.3c.187,0,.632-.058.632-.322s-.456-.322-.632-.322c-2.346.023-4.693-.041-7.033-.216-.995-.07-2.042-.1-2.551-1.1a4.641,4.641,0,0,1-.07-3.084h.006c3.552-1.685,7.174-3.394,11.123-3.8,4.1-.433,8.273.351,12.3,1.036q3.458.579,6.869,1.3c.211.041.679.012.778-.222.111-.263-.263-.363-.445-.4-4.219-.889-8.473-1.691-12.761-2.188a33.5,33.5,0,0,0-6.36-.216,23.7,23.7,0,0,0-6,1.287,63.477,63.477,0,0,0-6.325,2.715,9.362,9.362,0,0,1-3.347-1.252l-.076-.029a2.875,2.875,0,0,1-1.059-2.422,4.368,4.368,0,0,1,1.469-2.9.244.244,0,0,0,.076-.135,1.207,1.207,0,0,0,.649-.082l6.84-2.972c1.082-.468,2.153-.971,3.265-1.369a14.506,14.506,0,0,1,3.511-.778,40.8,40.8,0,0,1,7.273.023c2.411.181,4.815.5,7.214.883,2.7.433,5.383.96,8.069,1.486.2.041.673.018.772-.222.117-.263-.263-.363-.439-.4" transform="translate(427.841 406.116)" fill="#ed7d6b"/>
        <path id="Path_220" data-name="Path 220" d="M125.472,140.082c1.568,6.3,9.42,5.81,14.985,6.407,2.967.322,6,.638,8.9-.064s5.681-2.639,6.559-5.488a12.843,12.843,0,0,0-.088-5.98q-3.291-18.73-8.156-37.143c-.96-3.634-2.2-7.583-5.383-9.578-6.3-3.967-20.315-4.037-20.034,6.185.2,7.378,1.785,14.756,1.913,22.228.129,7.577-.509,15.974,1.293,23.393l.012.041" transform="translate(593.047 415.991)" fill="#d3acc9"/>
        <path id="Path_221" data-name="Path 221" d="M143.088,100.836q-2.019-2.256-4.055-4.5c-.679-.749-1.358-1.492-2.036-2.241-.614-.673-1.211-1.387-1.89-2-1.4-1.246-3.06-1.246-4.833-1.118l-6.179.439-6.073.439A89.29,89.29,0,0,1,131.2,67.2q2.449-3.23,5.178-6.214c.421-.456-.86-.661-1.147-.345a89.621,89.621,0,0,0-15.681,23.9q-1.668,3.739-2.984,7.63c-.146.415.585.433.819.415l11.48-.825c.924-.064,1.861-.17,2.791-.175a3.165,3.165,0,0,1,2.3.86,50,50,0,0,1,3.71,4q2.15,2.361,4.271,4.739c.287.316,1.568.117,1.153-.345" transform="translate(565.378 293.425)" fill="#66465f"/>
        <path id="Path_222" data-name="Path 222" d="M176.71,63.821a83.271,83.271,0,0,1-10.526,28.325q-1.931,3.23-4.142,6.278c-.737,1.012-1.5,2.013-2.282,2.99-.41.509-.825,1.018-1.246,1.515a5.471,5.471,0,0,1-.579.644.774.774,0,0,1-.936.152c-1.275-.5-2.51-1.188-3.739-1.8q-1.878-.93-3.727-1.913-3.748-1.975-7.4-4.137C139.479,94.305,136.923,92.6,134.3,91c-2.428-1.486-5.09-2.733-8-2.615-.2.006-.667.053-.667.339,0,.269.486.345.667.339,2.744-.111,5.219,1.264,7.472,2.674,2.387,1.486,4.739,3.025,7.156,4.459q3.695,2.194,7.484,4.2c1.3.685,2.6,1.357,3.915,2.007,1.287.644,2.574,1.352,3.914,1.872a2.666,2.666,0,0,0,3.089-.6c.866-.93,1.644-1.96,2.422-2.967q2.37-3.045,4.447-6.3a83.573,83.573,0,0,0,11.854-30.584c.076-.427-1.246-.491-1.334,0" transform="translate(609.418 307.93)" fill="#66465f"/>
        <path id="Path_223" data-name="Path 223" d="M128.223,68.172c-1.492,3.546-3,7.08-4.47,10.637a37.193,37.193,0,0,0-2.85,10.555c-.386,3.832-.48,7.706-.69,11.55q-.307,5.872-.626,11.737l-.7,13.177c-.023.456,1.3.48,1.334,0q.614-11.629,1.24-23.252c.2-3.838.363-7.683.632-11.515a37.526,37.526,0,0,1,.726-5.477,35.511,35.511,0,0,1,1.75-5.424c1.568-3.961,3.288-7.876,4.944-11.808.2-.48-1.112-.6-1.287-.181" transform="translate(576.721 329.476)" fill="#66465f"/>
        <path id="Path_224" data-name="Path 224" d="M129.721,69.524a35.987,35.987,0,0,1-6.267,13.025c-.275.357,1,.55,1.281.181a36.246,36.246,0,0,0,6.319-13.206c.1-.4-1.211-.491-1.334,0" transform="translate(598.704 335.649)" fill="#66465f"/>
        <path id="Path_225" data-name="Path 225" d="M218.643,140.292c-5.763,11.2-13.235,21.415-20.415,31.725-3.522,5.067-6.951,10.222-10.725,15.108-3.458,4.47-7.407,8.759-12.3,11.679-5.172,3.1-11.474,4.751-17.4,3.107a14.493,14.493,0,0,0-.094-2.311c-.222-2-.667-3.979-1.059-5.951q-.65-3.247-1.363-6.477-1.4-6.354-3.107-12.633-1.729-6.381-3.786-12.679-1.009-3.089-2.106-6.155c-.216-.609-.421-1.246-.661-1.872a.67.67,0,0,0,.129-.07,19.555,19.555,0,0,0,4.909-5.33.346.346,0,0,0,.152-.152l12.41-29.437q6.161-14.613,12.328-29.232,3.493-8.276,6.98-16.559c.2-.48-1.112-.6-1.287-.181l-12.41,29.437q-6.161,14.613-12.328,29.232-3.441,8.162-6.881,16.331l-.029.035a19.156,19.156,0,0,1-4.347,5.008,7.158,7.158,0,0,0-1.352-2.089c-1.334-1.375-3.318-1.469-5.12-1.521a48.155,48.155,0,0,0-6.688.246,24.581,24.581,0,0,0-5.559,1.036,7.213,7.213,0,0,0-3.6,2.381,3.805,3.805,0,0,0-.684,1.843c-.047.445,1.281.491,1.334,0,.339-3.113,4.184-3.95,6.705-4.33a47.089,47.089,0,0,1,6.214-.521c1.042-.012,2.083,0,3.125.059a4.939,4.939,0,0,1,2.574.673c1.363.936,1.908,2.715,2.446,4.189q1.036,2.861,2,5.746,1.931,5.766,3.575,11.626c2.206,7.846,4.043,15.8,5.57,23.808.6,3.136,1.586,7.214-.755,9.9a7.973,7.973,0,0,1-4.09,2.259,40.646,40.646,0,0,1-5.494.93,74.818,74.818,0,0,1-12.381.445c-1-.053-2.007-.105-3-.216a4.289,4.289,0,0,1-2.352-.86,7.11,7.11,0,0,1-2.06-3.657c-.2-.714-.345-1.439-.474-2.165-.088-.486-1.41-.427-1.334,0,.538,3,1.51,6.448,4.9,7.185a20.087,20.087,0,0,0,3.019.316c1.118.076,2.235.123,3.359.146,2.235.047,4.47-.012,6.7-.164,2.194-.152,4.377-.392,6.553-.737a20.858,20.858,0,0,0,5.19-1.311,6.856,6.856,0,0,0,3.593-3.323,7.4,7.4,0,0,0,.579-2.147,23.887,23.887,0,0,0,15.47-1.831c5.278-2.4,9.625-6.36,13.341-10.748,3.949-4.675,7.343-9.807,10.836-14.821,3.768-5.412,7.571-10.8,11.275-16.26a178.867,178.867,0,0,0,11.269-18.525c.228-.445-1.077-.591-1.287-.181" transform="translate(593.025 352.267)" fill="#66465f"/>
        <path id="Path_226" data-name="Path 226" d="M129.546,104.1a24.028,24.028,0,0,1-5.12-16.173c.029-.462-1.3-.486-1.334,0a24.38,24.38,0,0,0,5.167,16.354.873.873,0,0,0,.819.234c.129-.018.655-.181.468-.415" transform="translate(596.958 424.819)" fill="#66465f"/>
        <path id="Path_227" data-name="Path 227" d="M125.75,91.608c-.222-.4-1.527-.252-1.287.181a36.137,36.137,0,0,1,4.119,11.977c.076.486,1.4.433,1.334,0a36.753,36.753,0,0,0-4.166-12.159" transform="translate(603.64 443.273)" fill="#66465f"/>
        <path id="Path_228" data-name="Path 228" d="M138.784,103.254a51.755,51.755,0,0,0-11.059-16.623c-.3-.3-1.58-.094-1.147.345A51.163,51.163,0,0,1,137.5,103.435c.17.41,1.486.3,1.287-.181" transform="translate(613.618 419.562)" fill="#66465f"/>
        <path id="Path_229" data-name="Path 229" d="M148.864,68.278a1.086,1.086,0,0,0-.942,0,68.512,68.512,0,0,0-11.451,7.343c-.246.193.058.4.24.462a1.03,1.03,0,0,0,.913-.123,67.33,67.33,0,0,1,11.24-7.2c.252-.129.228-.345,0-.48" transform="translate(661.593 330.704)" fill="#66465f"/>
        <path id="Path_230" data-name="Path 230" d="M149,73.591a34.09,34.09,0,0,0-4.429-3.663c-1.51-1.041-3.224-2.118-5.143-1.714-.193.041-.579.14-.468.421.1.246.614.281.819.234,1.545-.322,3.13,1.018,4.295,1.867a33.9,33.9,0,0,1,3.774,3.2c.3.3,1.591.082,1.153-.345" transform="translate(674.028 330.493)" fill="#66465f"/>
        <path id="Path_231" data-name="Path 231" d="M126.716,67.282a228.751,228.751,0,0,1-12.393,29.694q-2.062,4.081-4.277,8.08c-.24.433,1.065.585,1.287.181a228.819,228.819,0,0,0,13.581-29.174q1.632-4.265,3.089-8.6c.17-.5-1.147-.6-1.287-.181" transform="translate(533.706 325.124)" fill="#66465f"/>
        <path id="Path_232" data-name="Path 232" d="M111.342,68.429,110.9,81.366c-.018.462,1.317.48,1.334,0l.439-12.937c.018-.462-1.317-.48-1.334,0" transform="translate(538.004 330.243)" fill="#66465f"/>
        <path id="Path_233" data-name="Path 233" d="M113.76,73.574a1.031,1.031,0,0,0-.913.123c-5.055,4.312-11.638,6.015-17.94,7.624-.234.059-.421.252-.24.468s.667.181.913.117c6.477-1.65,13.224-3.44,18.419-7.87.234-.2-.047-.4-.24-.462" transform="translate(458.895 356.659)" fill="#66465f"/>
        <path id="Path_234" data-name="Path 234" d="M110.962,68.278c-.351,8.625-1.837,17.618-7.279,24.6a23.45,23.45,0,0,1-4.8,4.64c-.252.187.07.41.24.468a1.069,1.069,0,0,0,.913-.123c6.951-5.009,10.31-13.352,11.55-21.573a75.109,75.109,0,0,0,.714-8.016c.018-.462-1.317-.48-1.334,0" transform="translate(479.229 329.511)" fill="#66465f"/>
        <path id="Path_235" data-name="Path 235" d="M105.042,68.257a116.405,116.405,0,0,1-2.715,22.176q-.711,3.177-1.6,6.313c-.146.521,1.17.6,1.287.181a116.483,116.483,0,0,0,4.014-22.182c.176-2.159.287-4.324.345-6.489.012-.468-1.322-.48-1.334,0" transform="translate(488.596 329.397)" fill="#66465f"/>
        <path id="Path_236" data-name="Path 236" d="M115.858,62.073a32.729,32.729,0,0,0-4.371,15.816c-.012.468,1.322.48,1.334,0a32.221,32.221,0,0,1,4.324-15.634c.246-.421-1.059-.579-1.287-.181" transform="translate(540.837 300.012)" fill="#66465f"/>
        <path id="Path_237" data-name="Path 237" d="M199.22,134.5H92.086v-6.2a38.444,38.444,0,0,1,38.448-38.448h30.239A38.452,38.452,0,0,1,199.22,128.3Z" transform="translate(446.721 435.888)" fill="#fff"/>
        <rect id="Rectangle_20" data-name="Rectangle 20" width="18.226" height="29.484" transform="translate(386.549 574.364)" fill="#7e3e1a"/>
        <rect id="Rectangle_21" data-name="Rectangle 21" width="18.226" height="29.484" transform="translate(733.737 574.364)" fill="#7e3e1a"/>
        <rect id="Rectangle_22" data-name="Rectangle 22" width="410.31" height="9.924" transform="translate(364.098 569.911)" fill="#568b81"/>
        <rect id="Rectangle_23" data-name="Rectangle 23" width="180.279" height="9.268" transform="translate(0 269.398)" fill="#fff"/>
        <path id="Path_238" data-name="Path 238" d="M42.97,40.607H30.589a1.882,1.882,0,0,0-1.849,1.539l-4.435,24.1a5.352,5.352,0,0,0,5.266,6.319H43.988a5.352,5.352,0,0,0,5.266-6.319l-4.435-24.1a1.882,1.882,0,0,0-1.849-1.539" transform="translate(117.474 196.99)" fill="#fff"/>
        <path id="Path_239" data-name="Path 239" d="M48.618,64.586a5.341,5.341,0,0,1-4.956,3.329H29.239a5.347,5.347,0,0,1-4.956-3.329l4.131-22.439a1.865,1.865,0,0,1,1.843-1.539H42.638a1.871,1.871,0,0,1,1.849,1.539Z" transform="translate(117.8 196.994)" fill="#d3acc9"/>
        <rect id="Rectangle_24" data-name="Rectangle 24" width="12.913" height="10.585" transform="translate(147.794 231.863)" fill="#d3acc9"/>
        <path id="Path_240" data-name="Path 240" d="M39.164,37.46A1.941,1.941,0,0,0,37.227,35.7H29.293a1.935,1.935,0,0,0-1.931,1.761L24.94,63.585H41.581Z" transform="translate(120.987 173.18)" fill="#361907"/>
        <path id="Path_241" data-name="Path 241" d="M34.726,50.234H28.705a3.449,3.449,0,0,1-3.446-3.446V45.676a3.449,3.449,0,0,1,3.446-3.446h6.021a3.449,3.449,0,0,1,3.446,3.446v1.112a3.449,3.449,0,0,1-3.446,3.446" transform="translate(122.535 204.863)" fill="#fff"/>
        <path id="Path_242" data-name="Path 242" d="M42.923,48.879,40.77,43.1a5.4,5.4,0,0,0-5.05-3.517H26.645A5.39,5.39,0,0,0,21.59,43.1l-2.153,5.781a54.651,54.651,0,0,0-2.744,22.533c.445,4.933,4.576,6.126,9.531,6.126h9.912c4.962,0,9.087-1.194,9.531-6.126a54.651,54.651,0,0,0-2.744-22.533" transform="translate(79.951 192.017)" fill="#fff"/>
        <path id="Path_243" data-name="Path 243" d="M40.815,48.037l-1.96-5.272a4.92,4.92,0,0,0-4.611-3.206H25.971a4.914,4.914,0,0,0-4.611,3.206L19.4,48.037a49.7,49.7,0,0,0-2.5,20.549c.4,4.494,4.172,5.588,8.689,5.588h9.046c4.517,0,8.285-1.094,8.689-5.588a49.7,49.7,0,0,0-2.5-20.549" transform="translate(81.023 191.906)" fill="#e8df94"/>
        <path id="Path_244" data-name="Path 244" d="M19.961,37.614l-2.27,27.155H32.933l-2.27-27.155a3.521,3.521,0,0,0-3.5-3.224H23.466a3.513,3.513,0,0,0-3.5,3.224" transform="translate(85.821 166.83)" fill="#361907"/>
        <path id="Path_245" data-name="Path 245" d="M22.241,49.159H21.3a2.888,2.888,0,0,1-2.885-2.89v-3a2.892,2.892,0,0,1,2.885-2.89h.936a2.888,2.888,0,0,1,2.885,2.89v3a2.884,2.884,0,0,1-2.885,2.89" transform="translate(89.358 195.869)" fill="#fff"/>
        <path id="Path_246" data-name="Path 246" d="M16.086,73.4H12.9A9.88,9.88,0,0,1,3.02,63.519V50.313A9.88,9.88,0,0,1,12.9,40.436h3.183a9.879,9.879,0,0,1,9.877,9.877V63.519A9.879,9.879,0,0,1,16.086,73.4" transform="translate(14.65 196.16)" fill="#fff"/>
        <path id="Path_247" data-name="Path 247" d="M14.64,67.612H10.609a5.52,5.52,0,0,1-5.564-4.973L3.359,43.248a2.318,2.318,0,0,1,2.346-2.481H19.538a2.314,2.314,0,0,1,2.346,2.481L20.21,62.639a5.538,5.538,0,0,1-5.57,4.973" transform="translate(16.254 197.766)" fill="#ff9e8c"/>
        <path id="Path_248" data-name="Path 248" d="M14.731,60H4.07V41A4.592,4.592,0,0,1,8.657,36.4h1.48A4.593,4.593,0,0,1,14.731,41Z" transform="translate(19.744 176.6)" fill="#fff"/>
        <rect id="Rectangle_25" data-name="Rectangle 25" width="10.661" height="2.264" transform="translate(23.551 256.63)" fill="#fff"/>
        <path id="Path_249" data-name="Path 249" d="M26.862,63.625H18.5a9.116,9.116,0,0,1-9.116-9.116V51.566A9.116,9.116,0,0,1,18.5,42.45h8.361a9.116,9.116,0,0,1,9.116,9.116v2.943a9.116,9.116,0,0,1-9.116,9.116" transform="translate(45.528 205.93)" fill="#fff"/>
        <path id="Path_250" data-name="Path 250" d="M22.49,60.186H17.5a7.564,7.564,0,0,1-7.56-7.56v-2.44a7.56,7.56,0,0,1,7.56-7.56H22.49a7.556,7.556,0,0,1,7.56,7.56v2.44a7.56,7.56,0,0,1-7.56,7.56" transform="translate(48.215 206.789)" fill="#568b81"/>
        <path id="Path_251" data-name="Path 251" d="M11.451,52.191A7.624,7.624,0,0,0,10.7,55.3H22.06a7.623,7.623,0,0,0-.755-3.113,6.78,6.78,0,0,1,0-5.64,7.65,7.65,0,0,0,.761-3.37c0-3.715-2.545-3.37-5.687-3.37s-5.693-.345-5.693,3.37a7.653,7.653,0,0,0,.766,3.37,6.78,6.78,0,0,1,0,5.64" transform="translate(51.834 193.082)" fill="#361907"/>
        <path id="Path_252" data-name="Path 252" d="M19.533,47.714h-7.4A1.333,1.333,0,0,1,10.8,46.38v-.433a1.337,1.337,0,0,1,1.334-1.334h7.4a1.337,1.337,0,0,1,1.334,1.334v.433a1.333,1.333,0,0,1-1.334,1.334" transform="translate(52.378 216.423)" fill="#fff"/>
        <rect id="Rectangle_26" data-name="Rectangle 26" width="180.279" height="9.268" transform="translate(0 166.617)" fill="#fff"/>
        <path id="Path_253" data-name="Path 253" d="M37.655,55.779H34.466A9.879,9.879,0,0,1,24.589,45.9V32.7a9.879,9.879,0,0,1,9.877-9.877h3.189A9.882,9.882,0,0,1,47.531,32.7V45.9a9.882,9.882,0,0,1-9.877,9.877" transform="translate(119.284 110.703)" fill="#fff"/>
        <path id="Path_254" data-name="Path 254" d="M36.2,50H32.178a5.534,5.534,0,0,1-5.57-4.973L24.928,25.632a2.318,2.318,0,0,1,2.346-2.481H41.107a2.314,2.314,0,0,1,2.346,2.481L41.774,45.022A5.534,5.534,0,0,1,36.2,50" transform="translate(120.888 112.308)" fill="#feab4f"/>
        <path id="Path_255" data-name="Path 255" d="M36.3,42.38H25.639v-19a4.592,4.592,0,0,1,4.587-4.593h1.48A4.593,4.593,0,0,1,36.3,23.381Z" transform="translate(124.378 91.143)" fill="#361907"/>
        <rect id="Rectangle_27" data-name="Rectangle 27" width="10.667" height="2.264" transform="translate(149.748 153.551)" fill="#fff"/>
        <path id="Path_256" data-name="Path 256" d="M27.033,22.716v30.25a3.319,3.319,0,0,1-3.318,3.318H6.338A3.319,3.319,0,0,1,3.02,52.966V22.716Z" transform="translate(14.65 110.198)" fill="#fff"/>
        <path id="Path_257" data-name="Path 257" d="M27.033,22.716V48.572A3.32,3.32,0,0,1,23.715,51.9H6.338A3.32,3.32,0,0,1,3.02,48.572V22.716Z" transform="translate(14.65 110.198)" fill="#d3acc9"/>
        <path id="Path_258" data-name="Path 258" d="M27.033,42.625V20.707a2.176,2.176,0,0,0-2.253-2.095H5.273A2.176,2.176,0,0,0,3.02,20.707V42.625Z" transform="translate(14.65 90.289)" fill="#361907"/>
        <rect id="Rectangle_28" data-name="Rectangle 28" width="15.751" height="3.616" transform="translate(21.801 138.59)" fill="#fff"/>
        <path id="Path_259" data-name="Path 259" d="M37.1,41.671A22.552,22.552,0,0,1,35.1,51.114a3.685,3.685,0,0,1-3.347,2.147H14.307a3.689,3.689,0,0,1-3.341-2.147A23.277,23.277,0,0,1,9.158,38.622c1.106-8.677,6.9-15.283,13.879-15.283S35.8,29.945,36.91,38.622a24.86,24.86,0,0,1,.193,3.048" transform="translate(43.461 113.22)" fill="#fff"/>
        <path id="Path_260" data-name="Path 260" d="M36.75,38.627C35.825,44.519,31.3,48.9,26,48.9H19.741c-5.307,0-9.824-4.382-10.749-10.275C10.1,29.95,15.9,23.338,22.871,23.338S35.638,29.95,36.75,38.627" transform="translate(43.621 113.215)" fill="#e8df94"/>
        <rect id="Rectangle_29" data-name="Rectangle 29" width="13.557" height="24.791" transform="translate(59.717 114.091)" fill="#fff"/>
        <path id="Path_261" data-name="Path 261" d="M19.392,26.964c0,.854-1.972,1.551-4.388,1.551s-4.388-.7-4.388-1.551,1.96-1.551,4.388-1.551,4.388.7,4.388,1.551" transform="translate(51.495 123.282)" fill="#fff"/>
        <path id="Path_262" data-name="Path 262" d="M38.975,24.944V52.637a3.005,3.005,0,0,1-3.007,3H19.514a3.005,3.005,0,0,1-3.007-3V24.944a2.1,2.1,0,0,1,2.1-2.095H36.881a2.093,2.093,0,0,1,2.095,2.095" transform="translate(80.078 110.843)" fill="#fff"/>
        <path id="Path_263" data-name="Path 263" d="M38.975,24.944v.731L37.682,46.956a3,3,0,0,1-3,3H20.808a3,3,0,0,1-3.007-3L16.507,25.675v-.731a2.1,2.1,0,0,1,2.1-2.095H36.881a2.093,2.093,0,0,1,2.095,2.095" transform="translate(80.078 110.843)" fill="#568b81"/>
        <path id="Path_264" data-name="Path 264" d="M32.623,27.831h-13.4A2.334,2.334,0,0,1,16.883,25.5v-.755a2.334,2.334,0,0,1,2.335-2.335h13.4a2.337,2.337,0,0,1,2.335,2.335V25.5a2.337,2.337,0,0,1-2.335,2.335" transform="translate(81.902 108.699)" fill="#568b81"/>
        <rect id="Rectangle_30" data-name="Rectangle 30" width="12.135" height="22.468" transform="translate(101.751 108.638)" fill="#361907"/>
        <rect id="Rectangle_31" data-name="Rectangle 31" width="11.62" height="4.646" transform="translate(102.009 143.762)" fill="#fff"/>
        <rect id="Rectangle_32" data-name="Rectangle 32" width="180.279" height="9.268" transform="translate(0 372.173)" fill="#fff"/>
        <path id="Path_265" data-name="Path 265" d="M49.925,66.43,47.777,60.65a5.4,5.4,0,0,0-5.055-3.517H33.647a5.4,5.4,0,0,0-5.055,3.517L26.444,66.43A54.445,54.445,0,0,0,23.7,88.963c.439,4.933,4.57,6.126,9.526,6.126h9.918c4.956,0,9.087-1.194,9.526-6.126A54.444,54.444,0,0,0,49.925,66.43" transform="translate(113.93 277.159)" fill="#fff"/>
        <path id="Path_266" data-name="Path 266" d="M47.822,65.588l-1.96-5.272a4.92,4.92,0,0,0-4.611-3.206H32.978a4.914,4.914,0,0,0-4.611,3.206l-1.96,5.272a49.606,49.606,0,0,0-2.5,20.549c.4,4.494,4.172,5.588,8.689,5.588h9.046c4.517,0,8.285-1.094,8.689-5.588a49.7,49.7,0,0,0-2.5-20.549" transform="translate(115.003 277.048)" fill="#ff9e8c"/>
        <path id="Path_267" data-name="Path 267" d="M26.965,55.164l-2.27,27.161H39.937l-2.27-27.161a3.521,3.521,0,0,0-3.5-3.224H30.47a3.517,3.517,0,0,0-3.5,3.224" transform="translate(119.799 251.967)" fill="#fff"/>
        <path id="Path_268" data-name="Path 268" d="M29.245,66.7h-.93a2.889,2.889,0,0,1-2.89-2.89v-3a2.888,2.888,0,0,1,2.89-2.885h.93a2.888,2.888,0,0,1,2.89,2.885v3a2.889,2.889,0,0,1-2.89,2.89" transform="translate(123.335 281.016)" fill="#fff"/>
        <path id="Path_269" data-name="Path 269" d="M18.168,88.458H14.476A11.454,11.454,0,0,1,3.019,77.007V69.956A11.459,11.459,0,0,1,14.476,58.5h3.692A11.454,11.454,0,0,1,29.618,69.956v7.051A11.449,11.449,0,0,1,18.168,88.458" transform="translate(14.646 283.791)" fill="#fff"/>
        <path id="Path_270" data-name="Path 270" d="M19.682,83.589H7.576a4,4,0,0,1-4-4V62.747a4,4,0,0,1,4-4H19.682a4,4,0,0,1,4,4v16.84a4,4,0,0,1-4,4" transform="translate(17.338 285.008)" fill="#feab4f"/>
        <path id="Path_271" data-name="Path 271" d="M5.086,72.282a14.543,14.543,0,0,0-.755,4.4H15.695a14.544,14.544,0,0,0-.755-4.4,13.267,13.267,0,0,1,0-7.981,14.649,14.649,0,0,0,.761-4.763c0-5.26-2.545-4.774-5.687-4.774S4.32,54.278,4.32,59.538A14.647,14.647,0,0,0,5.086,64.3a13.358,13.358,0,0,1,0,7.981" transform="translate(20.957 265.609)" fill="#361907"/>
        <path id="Path_272" data-name="Path 272" d="M12.618,65.942h-6.3a1.885,1.885,0,0,1-1.89-1.89v-.609a1.884,1.884,0,0,1,1.89-1.884h6.3a1.888,1.888,0,0,1,1.89,1.884v.609a1.889,1.889,0,0,1-1.89,1.89" transform="translate(21.5 298.635)" fill="#fff"/>
        <path id="Path_273" data-name="Path 273" d="M45.022,76.838a22.552,22.552,0,0,1-2.007,9.444,3.7,3.7,0,0,1-3.347,2.147H22.226a3.683,3.683,0,0,1-3.341-2.147,22.552,22.552,0,0,1-2.007-9.444,23.754,23.754,0,0,1,.193-3.048c1.112-8.677,6.9-15.283,13.879-15.283s12.767,6.606,13.879,15.283a24.858,24.858,0,0,1,.193,3.048" transform="translate(81.877 283.82)" fill="#fff"/>
        <path id="Path_274" data-name="Path 274" d="M44.669,73.794c-.924,5.9-5.447,10.275-10.754,10.275H27.66c-5.307,0-9.824-4.377-10.749-10.275,1.112-8.677,6.9-15.289,13.879-15.289s12.767,6.612,13.879,15.289" transform="translate(82.037 283.815)" fill="#568b81"/>
        <rect id="Rectangle_33" data-name="Rectangle 33" width="13.557" height="24.791" transform="translate(106.052 319.858)" fill="#fff"/>
        <path id="Path_275" data-name="Path 275" d="M27.315,62.131c0,.854-1.966,1.551-4.388,1.551s-4.394-.7-4.394-1.551S20.5,60.58,22.926,60.58s4.388.7,4.388,1.551" transform="translate(89.901 293.881)" fill="#fff"/>
        <path id="Path_276" data-name="Path 276" d="M33.139,60.111V87.8a3.005,3.005,0,0,1-3.007,3H13.679a3,3,0,0,1-3-3V60.111a2.093,2.093,0,0,1,2.095-2.095H31.045a2.093,2.093,0,0,1,2.095,2.095" transform="translate(51.795 281.443)" fill="#fff"/>
        <path id="Path_277" data-name="Path 277" d="M33.139,60.111v.731L31.846,82.123a3,3,0,0,1-3,3H14.972a3,3,0,0,1-3.007-3L10.677,60.842v-.731a2.093,2.093,0,0,1,2.095-2.095H31.045a2.093,2.093,0,0,1,2.095,2.095" transform="translate(51.795 281.443)" fill="#d3acc9"/>
        <path id="Path_278" data-name="Path 278" d="M26.786,63h-13.4a2.33,2.33,0,0,1-2.335-2.335v-.755a2.33,2.33,0,0,1,2.335-2.335h13.4a2.339,2.339,0,0,1,2.34,2.335v.755A2.339,2.339,0,0,1,26.786,63" transform="translate(53.615 279.299)" fill="#d3acc9"/>
        <rect id="Rectangle_34" data-name="Rectangle 34" width="12.135" height="22.468" transform="translate(67.633 314.404)" fill="#361907"/>
        <rect id="Rectangle_35" data-name="Rectangle 35" width="11.62" height="4.646" transform="translate(67.891 349.529)" fill="#fff"/>
        <path id="Path_279" data-name="Path 279" d="M37.309,79.064H16.584l7.671,69.371H44.98l7.677-69.371Z" transform="translate(80.451 383.55)" fill="#d3acc9"/>
        <path id="Path_280" data-name="Path 280" d="M48.225,79.581H17.746c-.257,0-.854.064-.854.374s.614.369.854.369H48.225c.246,0,.848-.064.848-.369s-.609-.374-.848-.374" transform="translate(81.945 386.057)" fill="#66465f"/>
        <rect id="Rectangle_36" data-name="Rectangle 36" width="20.889" height="12.047" transform="translate(104.624 531.984)" fill="#361907"/>
        <rect id="Rectangle_37" data-name="Rectangle 37" width="180.279" height="60.659" transform="translate(0 543.61)" fill="#3e635c"/>
        <path id="Path_281" data-name="Path 281" d="M42.8,100.939a3.045,3.045,0,0,0-1.047-1.709,49.786,49.786,0,0,1-4.979-5.781c-2.779-3.862-7.408-10.357-4.523-15.23.451-.749,1.106-1.5.983-2.37a2.91,2.91,0,0,0-.363-.936c-.878-1.65-1.422-4.289-3.552-4.107-.568.053-1.153.152-1.714.24-4.933.8-9.479,2.85-14.125,4.576-2.814,1.036-6.565,2.188-8.987,4A3.639,3.639,0,0,0,3.3,81.244a4.5,4.5,0,0,0-.281,1.5,6.918,6.918,0,0,0,.971,3.4c.544.977,1.814,1.4,2.768,1.919a24.568,24.568,0,0,1,4.412,2.534v6.477a6.3,6.3,0,0,0-3.517,5.646v4.055H26.2v-4.055a6.287,6.287,0,0,0-3.616-5.693V87.978a2.952,2.952,0,0,1,3.575-.948c1.8.7,2.931,2.463,3.873,4.154a37.417,37.417,0,0,0,4.488,7.051c.837.919,8.554,5.945,8.273,2.7" transform="translate(14.645 343.443)" fill="#fff"/>
        <path id="Path_282" data-name="Path 282" d="M12.88,170.941H25.132a10.313,10.313,0,0,0,10.316-10.315V91.068a14.156,14.156,0,0,0-14.16-14.16H16.724a14.164,14.164,0,0,0-14.16,14.16v69.558A10.317,10.317,0,0,0,12.88,170.941" transform="translate(12.438 373.09)" fill="#e8df94"/>
        <rect id="Rectangle_38" data-name="Rectangle 38" width="17.097" height="63.672" transform="translate(22.895 465.182)" fill="#fff"/>
        <path id="Path_283" data-name="Path 283" d="M36.17,114.164H13.62a3.47,3.47,0,0,1-3.47-3.47V92.076a3.468,3.468,0,0,1,3.47-3.464H36.17a3.469,3.469,0,0,1,3.47,3.464v18.618a3.47,3.47,0,0,1-3.47,3.47" transform="translate(49.239 429.868)" fill="#ff9e8c"/>
        <rect id="Rectangle_39" data-name="Rectangle 39" width="29.484" height="4.892" transform="translate(59.395 533.201)" fill="#fff"/>
        <rect id="Rectangle_40" data-name="Rectangle 40" width="11.796" height="7.372" transform="translate(68.236 514.056)" fill="#ff9e8c"/>
        <path id="Path_284" data-name="Path 284" d="M21.592,96.392H15.624a4.18,4.18,0,0,1-4.178-4.178V90.869a4.18,4.18,0,0,1,4.178-4.178h5.968a4.18,4.18,0,0,1,4.178,4.178v1.346a4.18,4.18,0,0,1-4.178,4.178" transform="translate(55.526 420.549)" fill="#fff"/>
        <path id="Path_285" data-name="Path 285" d="M17.679,101.6H12.2l1.147-16.085a1.627,1.627,0,0,1,1.5-1.609h.176a1.623,1.623,0,0,1,1.5,1.609Z" transform="translate(59.193 407.048)" fill="#fff"/>
        <path id="Path_286" data-name="Path 286" d="M40.833,159.333H36.749a12.663,12.663,0,0,1-12.662-12.662V91.963A12.663,12.663,0,0,1,36.749,79.3h4.084A12.663,12.663,0,0,1,53.495,91.963v54.708a12.663,12.663,0,0,1-12.662,12.662" transform="translate(116.849 384.699)" fill="#fff"/>
        <path id="Path_287" data-name="Path 287" d="M24.462,80.589v61.858a4.319,4.319,0,0,0,4.318,4.318H45.169a4.319,4.319,0,0,0,4.318-4.318V80.589Z" transform="translate(118.668 390.947)" fill="#568b81"/>
        <rect id="Rectangle_41" data-name="Rectangle 41" width="17.688" height="14.324" transform="translate(146.799 449.677)" fill="#74a59b"/>
        <rect id="Rectangle_42" data-name="Rectangle 42" width="13.481" height="38.331" transform="translate(155.851 481.273)" fill="#fff"/>
      </g>
      <g id="Group_7" data-name="Group 7" transform="translate(803.05 91.135) rotate(-21)">
        <g id="Group_6" data-name="Group 6" clip-path="url(#clip-path-2)">
          <path id="Path_288" data-name="Path 288" d="M161.959,184.2c-5.343-20.015-7.475-41.388-9.27-58.871-.751-7.293-1.5-14.653-.711-21.889.991-9.061,4.348-17.554,7.671-25.913,3.265-8.213,18.922-51.267,31.625-45.124,6.45,3.118,11.4,24.23,14.187,30.857,4.775,11.349,9.434,22.755,14.294,34.068,5.29,12.641,10.638,25.269,15.16,38.208-1.07,1.466-2.092,2.967-3.083,4.491-4.047,6.236-7.649,12.85-12.455,18.5-5.228,6.143-11.193,11.535-17.03,17.034a1.429,1.429,0,0,0,1.275,2.483,32.477,32.477,0,0,0,11.957-6.369c6.409-5.281,11.229-12.281,16.088-19.042,1.994-2.772,4.015-5.583,6.187-8.244,4.784,15.066,9.345,32.132,8.119,47.824-1,12.85-1.328,27.281-9.439,37.635-5.956,7.613-15.3,11.642-24.718,13.2a25.614,25.614,0,0,1-11.362-.191c-9.825-2.856-17.656-14.493-23.213-22.782-7.262-10.833-11.93-23.31-15.284-35.876" transform="translate(-117.919 0.262)" fill="#74a59b"/>
          <path id="Path_289" data-name="Path 289" d="M169.326,194.953a88.2,88.2,0,0,0,30.661,5.6q.819,3.071,1.661,6.125c7.64,27.446,17.194,54.3,27.5,80.813,10.323,26.566,21.4,52.83,32.158,79.227l4.189-1.639q-2.079-5.1-4.162-10.181c-21.462-52.315-43.782-104.532-58.156-159.44-7.3-27.9-12.686-56.263-17.74-84.659-.924-5.2-1.946-10.465-2.936-15.768a1.041,1.041,0,0,0,.115-.129,74.32,74.32,0,0,1,5.29-6.378,62.213,62.213,0,0,0,13.081-23.2c.178-.6-.924-.564-1.181-.511a1.706,1.706,0,0,0-1.377,1.03,59.2,59.2,0,0,1-2.661,7.1,57.726,57.726,0,0,1-6.6,11.184c-2.234,2.945-4.806,5.579-7.12,8.444-3.5-19.068-6.3-38.608-2.425-57.552.307-1.488-3.807-.058-4.122,1.484-2.843,13.88-1.95,28.081.053,42.023,2.15,14.969,5.024,29.853,7.733,44.728,3.776,20.756,7.844,41.477,12.806,61.98a37.027,37.027,0,0,0-5.983-1.821,100.2,100.2,0,0,1-33.979-15.031,1.694,1.694,0,0,0-1.719.089c-.253.138-1.088.8-.577,1.15a102.333,102.333,0,0,0,9,5.579,98.626,98.626,0,0,0,17.163,7.431c2.936.951,5.9,1.719,8.892,2.434a22.628,22.628,0,0,1,7.911,3.069q1.333,5.4,2.754,10.789-3.371-.06-6.743-.4a87.343,87.343,0,0,1-30.031-8.715,1.958,1.958,0,0,0-1.812.378c-.351.275-.666.817-.115,1.088a88.637,88.637,0,0,0,8.475,3.682" transform="translate(-110.943 9.122)" fill="#568b81"/>
          <path id="Path_290" data-name="Path 290" d="M247.819,157.914a119.973,119.973,0,0,0-13.645-29.937,131.406,131.406,0,0,0-19.424-24.558,55.838,55.838,0,0,0-11.953-9.31,50.83,50.83,0,0,0-14.871-5.077,165.4,165.4,0,0,0-17.021-2.3A141.642,141.642,0,0,0,154,85.851c-4.06.12-8.346,1.608-4.939,6.134,10.185,13.534,26.326,20.121,39.882,29.835,23.364,16.741,35.432,42.4,49,67.554.671,1.244,1.528,2.63,2.874,2.82,1.8-2.025,3.145-3.376,4.109-6.059.649-1.8.671-4.624,1.595-6.223,3.682-6.356,3.327-14.813,1.306-22" transform="translate(-131.077 186.152)" fill="#74a59b"/>
          <path id="Path_291" data-name="Path 291" d="M247.288,241.161h-4.313c-.218-.862-.431-1.728-.648-2.59-7.3-29.271-14.045-59.621-29.493-85.579C197.6,127.4,173.951,109.85,150.112,93.975c-.888-.6.226-1.39.728-1.595a3.261,3.261,0,0,1,2.94.333q4.83,3.218,9.625,6.525c-.031-.115-.058-.231-.084-.346a23.319,23.319,0,0,0-1.381-3.882c-1.146-2.59-2.465-5.1-3.709-7.64-.475-.959,2.15-1.3,2.567-.449,1.248,2.536,2.563,5.046,3.709,7.635a26.132,26.132,0,0,1,1.4,3.9,14.955,14.955,0,0,0,.986,3.229,235.471,235.471,0,0,1,26.18,21.107,141.3,141.3,0,0,1,21.667,25.966,73.913,73.913,0,0,0,8.146-22.04c.2-1.044,2.843-.933,2.674-.071a75.032,75.032,0,0,1-9.381,24.394c1.164,1.892,2.292,3.82,3.362,5.783.107.191.2.386.306.577a101.186,101.186,0,0,0,9.3-21.516c.267-.888,2.909-.751,2.59.315a101.26,101.26,0,0,1-10.585,23.661c6.307,12.206,11,25.273,14.938,38.514,4.2,14.116,7.649,28.476,11.2,42.783" transform="translate(-124.337 188.275)" fill="#568b81"/>
        </g>
      </g>
    </g>
  </g>
</svg>
