<svg xmlns="http://www.w3.org/2000/svg" xmlns:xlink="http://www.w3.org/1999/xlink" width="1028.469" height="661.747" viewBox="0 0 1028.469 661.747">
  <defs>
    <clipPath id="clip-path">
      <path id="Path_858" data-name="Path 858" d="M203.4,939.243c43.768-18.008,15.668-156.064,15.668-156.064S136.2,507.883,259.148,419.4s330.86-226.238,484.026-73.077c97.169,97.17,333.17-20.266,443.9,144.7,59.171,88.153-59.666,277.626-56.109,345.792,3.366,64.5,89.262,102.434,89.262,102.434Z" transform="translate(-203.4 140.752)" fill="#d9f3ff"/>
    </clipPath>
    <clipPath id="clip-path-2">
      <rect id="Rectangle_266" data-name="Rectangle 266" width="920.246" height="532.321" fill="none"/>
    </clipPath>
    <clipPath id="clip-path-3">
      <rect id="Rectangle_225" data-name="Rectangle 225" width="371.991" height="368.571" fill="none"/>
    </clipPath>
  </defs>
  <g id="Mask_Group_3" data-name="Mask Group 3" transform="translate(11.644 -418.253)" clip-path="url(#clip-path)">
    <g id="Group_60" data-name="Group 60" transform="translate(-13.774 437.236)">
      <rect id="Rectangle_224" data-name="Rectangle 224" width="1111.178" height="706.694" transform="translate(0 -64)" fill="#f7e1e5"/>
      <g id="Group_59" data-name="Group 59" transform="translate(45 110.442)">
        <g id="Group_58" data-name="Group 58" clip-path="url(#clip-path-2)">
          <path id="Path_1503" data-name="Path 1503" d="M235.63,166.807h25.094c-.25-.85-.527-1.684-.819-2.508-4.327-12.159-11.006-23.692-18.41-34.051a154.52,154.52,0,0,0-24.76-27.279,65.847,65.847,0,0,0-14.776-9.974A59.7,59.7,0,0,0,184.1,88.224a192.038,192.038,0,0,0-20.167-1.34,165.95,165.95,0,0,0-19.922.318c-4.755.464-9.667,2.55-5.308,7.6,13.04,15.073,32.508,21.512,49.2,31.83,16.726,10.339,29.208,24.526,40.251,40.178h7.477Z" transform="translate(577.362 365.515)" fill="#74a59b"/>
          <path id="Path_1504" data-name="Path 1504" d="M221.623,158.573q2.135,2.987,4.135,6.1H220.23q-1.165-1.783-2.377-3.535c-19.927-28.832-49.093-47.54-78.343-64.276-1.095-.626.151-1.648.725-1.929a3.828,3.828,0,0,1,3.478.162q5.936,3.386,11.82,6.887l-.125-.4a27.564,27.564,0,0,0-1.929-4.447c-1.554-2.946-3.3-5.793-4.969-8.665-.631-1.09,2.424-1.695,2.982-.735,1.668,2.873,3.415,5.72,4.964,8.665a30.432,30.432,0,0,1,1.955,4.468,17.511,17.511,0,0,0,1.418,3.712,277.906,277.906,0,0,1,32.414,22.685,166.153,166.153,0,0,1,27.508,28.749,86.884,86.884,0,0,0,7.8-26.523c.162-1.246,3.269-1.319,3.139-.3a88.313,88.313,0,0,1-9.067,29.385" transform="translate(586.036 367.653)" fill="#568b81"/>
          <path id="Path_1505" data-name="Path 1505" d="M167.672,98.125a118.983,118.983,0,0,1-8.608,24.755H155.93a118.846,118.846,0,0,0,8.676-24.917c.245-1.064,3.358-1.116,3.066.162" transform="translate(657.062 409.441)" fill="#568b81"/>
          <path id="Path_1506" data-name="Path 1506" d="M158.423,57.309c6.335-.4,11.856,3.514,17.555,5.339,8.394,2.685,15.178,5.808,21.533,12.226.61.615,1.2,1.246,1.788,1.882-4.348,12.341-7.06,25.225-12.4,37.232a1.389,1.389,0,1,0,2.477,1.257q2.487-4.591,4.755-9.291c3.7-7.659,7.039-15.516,9.958-23.509,4.26,5.448,8.1,11.288,12.289,16.809,5.334,7.018,11.277,13.535,16.439,20.694A112.017,112.017,0,0,1,244.5,141.075c-.824,1.288-1.606,2.612-2.362,3.931-1.575,2.753-3.06,5.553-4.729,8.243-1.809,2.915-3.65,5.8-5.428,8.728a207.893,207.893,0,0,0-10.448,18.952c-.5,1.048.459,2.555,1.648,1.992A22.131,22.131,0,0,0,230.16,177c4.15-4.828,8.373-9.588,12.5-14.442,2.377-2.795,4.755-5.589,7.164-8.358l.073.188c4.917,12.69,12.982,24.7,15.939,38.134,1.856,8.441,1.4,17.315.933,26.054-.954,17.889-2.132,36.57-11,52.316q-12.122-11-23.921-22.383a159.879,159.879,0,0,1-12.06-12.586,130.492,130.492,0,0,0,15.016,5.355,1.5,1.5,0,0,0,1.272-2.513c-6.642-5.1-14.614-7.784-22.242-11.074-10.7-17.216-14.432-38.582-23.848-56.752-6.835-13.186-16.637-24.625-22.065-38.535-3.618-9.291-5.162-19.359-7.889-29-1.189-4.2-2.607-8.316-4.108-12.4-2.179-5.928-4.541-11.788-6.658-17.743-.85-2.383-1.668-4.9-1.283-7.456.725-4.838,5.72-8.2,10.438-8.493" transform="translate(623.171 241.37)" fill="#74a59b"/>
          <path id="Path_1507" data-name="Path 1507" d="M260.677,284.915h-3.931a184.457,184.457,0,0,0-4.651-21.752,95.383,95.383,0,0,0-8.081-19.969c-7.508-13.6-16.4-26.038-22.461-40.532-6.4-15.334-11.549-31.2-18.384-46.346-15.282-33.833-34.974-65.121-54.578-96.273-1.356-2.148,2.774-1.33,3.556-.083,8.436,13.4,16.877,26.836,24.985,40.475a116.8,116.8,0,0,0,10.521-31.492c.214-1.147,2.737-.083,2.565.855a118.256,118.256,0,0,1-8.17,26.716q-1.509,3.425-3.243,6.741c8.175,13.874,15.991,27.977,23.066,42.519,7.258,14.917,13.269,30.313,19.093,45.908.25.673.506,1.345.756,2.013a114.533,114.533,0,0,0,22.42-24.046c1.814-2.623,3.525-5.329,5.125-8.087.527-.912,2.982.375,2.471,1.251a116.935,116.935,0,0,1-21.272,26.794q-3.527,3.293-7.31,6.277a.816.816,0,0,1-.547.141,188.53,188.53,0,0,0,8.113,18.6c3.712,7.216,8.175,13.957,12.383,20.85a126.2,126.2,0,0,1,10.579,20.464q1.079,2.808,1.96,5.7a144.584,144.584,0,0,1,3.931,16.9q.579,3.175,1.105,6.371" transform="translate(624.991 247.407)" fill="#568b81"/>
          <path id="Path_1508" data-name="Path 1508" d="M412.855,194.321q0,5.92-.37,11.757a185.349,185.349,0,0,1-3.452,25.939v.005A185.979,185.979,0,0,1,226.685,380.491c-1.715,0-3.436-.021-5.146-.073A185.456,185.456,0,0,1,96.48,327.378q-2.988-2.917-5.824-5.965A185.558,185.558,0,0,1,40.515,194.321q0-5.279.3-10.5a184.963,184.963,0,0,1,3.222-25.689v-.005A186.481,186.481,0,0,1,164.583,18.761h.01A183.155,183.155,0,0,1,189.6,11.848a187.527,187.527,0,0,1,87.817,3.306,184.63,184.63,0,0,1,33.859,13.28A186.921,186.921,0,0,1,333.4,41.754q3.418,2.393,6.715,4.932a186.741,186.741,0,0,1,57.514,73.77,184.663,184.663,0,0,1,12.044,39.4,187.192,187.192,0,0,1,3.186,34.463" transform="translate(170.723 34.347)" fill="#daf2e9"/>
          <g id="Group_57" data-name="Group 57" transform="translate(211.535 46.198)" opacity="0.3">
            <g id="Group_56" data-name="Group 56">
              <g id="Group_55" data-name="Group 55" clip-path="url(#clip-path-3)">
                <path id="Path_1509" data-name="Path 1509" d="M297.732,22.779,61.989,297.365a186.038,186.038,0,0,1-18.259-31.4L263.879,9.494a184.97,184.97,0,0,1,33.853,13.285" transform="translate(-27.265 -6.192)" fill="#fff"/>
                <path id="Path_1510" data-name="Path 1510" d="M299.589,19.529,55.957,300.221q-2.988-2.917-5.824-5.965L292.868,14.6q3.418,2.385,6.721,4.932" transform="translate(-0.284 15.312)" fill="#fff"/>
                <path id="Path_1511" data-name="Path 1511" d="M189.364,8.861,40.572,180.839a185.758,185.758,0,0,1,3.222-25.689v-.005L164.348,15.775h.005a183.154,183.154,0,0,1,25.011-6.914" transform="translate(-40.572 -8.859)" fill="#fff"/>
                <path id="Path_1512" data-name="Path 1512" d="M296.335,69.092,108.2,289.653a186.067,186.067,0,0,1-40.793-5.641l216.88-254.32a184.365,184.365,0,0,1,12.044,39.4" transform="translate(72.523 78.915)" fill="#fff"/>
                <path id="Path_1513" data-name="Path 1513" d="M231.343,46.043q-.868,12.779-2.524,24.87l-1.246,1.434v.005L108.74,209.705a184.8,184.8,0,0,1-25.162,7.159L231.03,46.408Z" transform="translate(140.648 147.82)" fill="#fff"/>
              </g>
            </g>
          </g>
          <path id="Path_1514" data-name="Path 1514" d="M229.72,387.279A189.971,189.971,0,0,1,155.793,22.358,189.971,189.971,0,0,1,303.647,372.352a188.7,188.7,0,0,1-73.927,14.927m0-372.34C129.135,14.939,47.3,96.77,47.3,197.355S129.135,379.771,229.72,379.771,412.136,297.94,412.136,197.355,330.305,14.939,229.72,14.939" transform="translate(167.694 31.313)" fill="#568b81"/>
          <path id="Path_1515" data-name="Path 1515" d="M87.1,89.015h89.151a13.609,13.609,0,0,1,13.5,13.681v75.465a2.814,2.814,0,0,0,2.518,2.795h.594a2.814,2.814,0,0,0,2.518-2.795V102.7a19.246,19.246,0,0,0-19.135-19.312H87.1a2.815,2.815,0,0,0,0,5.631" transform="translate(355.163 351.366)" fill="#66465f"/>
          <path id="Path_1516" data-name="Path 1516" d="M267.44,239.246H106.9c-18.744,0-34.656-12.889-39.495-30.637-.136-.485-.256-.97-.37-1.46a42.708,42.708,0,0,1-1.09-7.732L60.555,89.869A20.248,20.248,0,0,1,69.372,72c.433-.287.871-.553,1.319-.8a18.493,18.493,0,0,1,9.046-2.351H221.131a26.178,26.178,0,0,0-.036,2.935l1.528,34.8.068,1.5,1.913,43.562.063,1.512,1.82,41.439c1.1,25.016,19.109,44.651,40.955,44.651" transform="translate(255.059 290.088)" fill="#74a59b"/>
          <path id="Path_1517" data-name="Path 1517" d="M146.7,98.526l-.454,1.434c-13.514-4.281-28.634-3.947-40.783-3.676l-.2.005c-12.388.271-25.063.553-37.362,2.649q-1.33.227-2.654.48c-.6.115-2.351.824-2.805.25a.615.615,0,0,1-.1-.4c.047-1.022,1.178-1.038,1.934-1.189.209-.042.412-.083.62-.12.151-.036.3-.063.448-.089.36-.068.709-.13,1.069-.2,12.784-2.31,25.954-2.6,38.822-2.888l.2-.005c12.258-.271,27.513-.61,41.267,3.744" transform="translate(262.685 398.8)" fill="#568b81"/>
          <path id="Path_1518" data-name="Path 1518" d="M64.9,204.488c-.1.151-.209.3-.313.448-.224.323-.454.641-.693.954l-.673-.506-.527-.4.068-.094c8.817-11.825,9.88-27.1,3.186-45.4-.871-2.378.026-4.666.892-6.882a19.462,19.462,0,0,0,1.053-3.217A62.789,62.789,0,0,0,69.016,137.4a62.585,62.585,0,0,0-4.2-22.451l-.235-.589a16.789,16.789,0,0,1-1.439-5.438,16.278,16.278,0,0,1,.558-4.088c2.576-11.434,4.166-23.421-.355-34.74.428-.287.855-.558,1.3-.8,4.8,11.742,3.17,24.1.521,35.876a15.979,15.979,0,0,0-.521,3.446v.261a7.741,7.741,0,0,0,.146,1.241,20.624,20.624,0,0,0,1.194,3.7l.229.594A63.96,63.96,0,0,1,70.518,137.4a64.109,64.109,0,0,1-1.152,12.279,19.955,19.955,0,0,1-1.126,3.483,14.7,14.7,0,0,0-1.116,3.791,4.837,4.837,0,0,0,.078,1.5,5.032,5.032,0,0,0,.156.527C74,177.12,73.172,192.423,64.9,204.488" transform="translate(264.194 291.989)" fill="#568b81"/>
          <path id="Path_1519" data-name="Path 1519" d="M213.275,77.582q-69.839,1.893-139.684,3.8c-2.789.073-5.652.151-8.525.151-.417,0-.839,0-1.262-.01-.292,0-.584-.005-.876-.005l.021-1.5c.24,0,.474.005.709.005,3.321.037,6.658-.057,9.9-.141q69.824-1.9,139.658-3.8Z" transform="translate(265.172 320.588)" fill="#568b81"/>
          <path id="Path_1520" data-name="Path 1520" d="M213.257,86.231a551.244,551.244,0,0,1-68.087,7.143c-7.44.282-14.948.375-22.425.375-7.873,0-15.7-.1-23.41-.209-11.507-.151-23.394-.313-35.079-.115-.276,0-.553.01-.834.01l-.026-1.5c.261-.005.521-.005.782-.01,11.726-.2,23.64-.037,35.173.115,15.011.2,30.532.407,45.762-.167a549.648,549.648,0,0,0,68.082-7.148Z" transform="translate(267.14 357.012)" fill="#568b81"/>
          <path id="Path_1521" data-name="Path 1521" d="M173.709,121.131l-1.444-.407a1.9,1.9,0,0,0-.021-1.053c-17.873.532-35.975.24-53.817-.865-14.766-.912-31.518-2.753-43.442-13.071-.959-.834-1.9-1.726-2.815-2.591-2.951-2.815-5.746-5.469-9.406-6.455l.391-1.449c4.03,1.084,7.091,4,10.052,6.814.9.855,1.825,1.736,2.758,2.544,11.57,10.011,28.035,11.809,42.555,12.711,17.962,1.111,36.189,1.4,54.182.85l.443-.016.229.386a3.389,3.389,0,0,1,.334,2.6" transform="translate(264.477 401.321)" fill="#568b81"/>
          <path id="Path_1522" data-name="Path 1522" d="M155.022,234.418c2.5-4.7.521-10.355-.287-15.224-.944-5.73-2.127-11.413-3.426-17.075-2.6-11.335-5.7-22.55-8.462-33.848q-6.726-27.545-10.751-55.663-1.979-13.8-3.3-27.7c-.626-6.616.938-18.566-2.982-24.171-4.192-5.98-9.609,2.831-11.4,6.262-3.2,6.095-8.936,10.584-12.644,16.283-12.039,18.462-3.139,47.425,1.887,66.966q6.53,25.378,14.547,50.345a198.033,198.033,0,0,0,10.078,26.486c1.538,3.165,3.65,9.27,6.522,11.434,2.941,2.226,7.518.886,11.038.49a25.275,25.275,0,0,0,3.963-.62,7.921,7.921,0,0,0,5.214-3.968" transform="translate(403.484 247.398)" fill="#fdb082"/>
          <path id="Path_1523" data-name="Path 1523" d="M79.2,165.764a30.964,30.964,0,0,0,9.51,7.419c7.826,4.1,16.768,5.965,25.485,6.929,7.258.808,15.313.574,22.3,2.659.292,4.286-2.982,7.529-2.956,11.168a4.576,4.576,0,0,0,.313,1.7H274.8a2.383,2.383,0,0,0,1.038-.485,3.1,3.1,0,0,0,.777-1.861c2.357-13.42,4.161-27.159,2.92-40.8-.057-.589-.109-1.2-.167-1.825-.876-9.6-2.383-23.259-11.486-27.738-8.728-4.291-17.675-6.741-27.117-8.978-9.526-2.247-19.234-4.755-27.352-10.224-3.071-2.07-5.86-4.526-8.827-6.742-11.236-8.389-24.875-13.149-38.718-15.355S137.9,79.663,123.9,80.5c-12.419.746-25.616,2.263-35.277,10.1-18.712,15.188-22.5,42.863-15.146,64.6A32.854,32.854,0,0,0,79.2,165.764" transform="translate(294.829 336.682)" fill="#e8df94"/>
          <path id="Path_1524" data-name="Path 1524" d="M205.763,208.441c.162,9.661.959,19.322,1.486,28.989a194.445,194.445,0,0,1-.115,28.9,6.409,6.409,0,0,1-1.011,3.41c-2.018,2.565-11.768,3.723-14.979,4.338-5.647,1.09-11.377,1.632-17.086,2.273a147.686,147.686,0,0,1-34.7-.224c-10.6-1.329-19.9-3.671-30.605-3.629-11.22.036-22.43-.683-33.6-1.752-1.554-.146-3.285-.4-4.239-1.642-.907-1.173-.782-2.815-.594-4.286a139.728,139.728,0,0,1,10.115-37.133c2.445-5.714,5.276-11.277,7.294-17.159,5.907-17.226,4.333-35.809.4-53.27-3.3-14.625-10.125-29.609-11.418-44.5a82.2,82.2,0,0,1,3.316-29.839c3.733-12.852,8.274-18.639,21.95-22.837,11.861-3.634,22.852-8.723,35.339-10.469a105.039,105.039,0,0,1,24.51-.547c4.234.407,8.452.85,12.649,1.528,4.453.709,8.869,3.222,13.035,4.906,4.974,2.007,9.906,4.109,14.719,6.476,7.513,3.691,15.37,7.638,21.429,13.535,6.528,6.35,9.213,18.546,11.345,27.1a110.212,110.212,0,0,1,3.107,33.045c-.365,6.22-1.637,13.087-6.627,16.809-2.612,1.95-6.043,2.847-8.123,5.36-.474.579.855-.766.151-.511-19.307,6.992-18.024,34.573-17.748,51.127" transform="translate(295.766 204.77)" fill="#fdb082"/>
          <path id="Path_1525" data-name="Path 1525" d="M234.913,65.061a21.021,21.021,0,0,0-12.049-5.2,40.435,40.435,0,0,0-13.952,1.731c-11.945,3.227-24.14,6.934-36.664,5.912-5.86-.474-11.476-2.033-17.107-3.629s-11.33-3.107-17.227-3.076c-11.507.063-22.148,4.661-32.6,8.963-5.527,2.273-11.043,4.479-16.736,6.314-3.144,1.017-6.309,1.992-9.448,3.029,2.659,10.433,6.695,20.845,9,31.08,3.942,17.461,5.511,36.043-.4,53.27-2.013,5.881-4.844,11.444-7.294,17.159a140.121,140.121,0,0,0-10.115,37.133c-.188,1.47-.313,3.113.594,4.286.954,1.241,2.685,1.5,4.239,1.642,11.168,1.069,22.378,1.788,33.6,1.752,10.7-.042,20.005,2.3,30.605,3.629a147.687,147.687,0,0,0,34.7.224c5.709-.641,11.439-1.184,17.086-2.273,3.217-.615,12.962-1.773,14.979-4.338a6.409,6.409,0,0,0,1.011-3.41,194.44,194.44,0,0,0,.12-28.9c-.532-9.666-1.33-19.328-1.491-28.989-.276-16.554-1.559-44.135,17.748-51.127.245-.089.245.021.156.167,2.1-2.252,5.323-3.154,7.816-5.016,4.99-3.723,6.267-10.589,6.627-16.809A109.905,109.905,0,0,0,237.28,67.4a30.316,30.316,0,0,0-2.367-2.336" transform="translate(295.766 251.84)" fill="#e8df94"/>
          <path id="Path_1526" data-name="Path 1526" d="M122.742,116.24c.912.083,1.83.162,2.748.235,3.8.3,7.013-2.331,10.808-2.513.474-.026.959-.026,1.455-.005.469.021.938.063,1.4.115,2,.229,5.782,1.47,7.633.782,1.986-.735,2.815-4.234,2.878-6.184.344-.177.662.266.782.636a19.929,19.929,0,0,1,.985,5.667c1.554.042,10.475-.37,10.506-2.518.068-5.11-.923-10.256-.094-15.3.48-2.946,1.569-5.756,2.232-8.665a30.81,30.81,0,0,0-4.03-23.139,25.628,25.628,0,0,1-2.659-4.536c-.876-2.268-.808-4.765-1.038-7.185-.866-8.978-6.846-21.345-17.414-20.855a20.063,20.063,0,0,0-9.14,2.967c-3.1,1.835-5.621,4.938-8.514,7.164-3.337,2.565-6.773,4.99-10.167,7.477-6.6,4.838-13.134,9.953-18.108,16.523A89.418,89.418,0,0,0,84.175,82.35,59.934,59.934,0,0,0,79.232,95.1a45.821,45.821,0,0,0-.631,13.921,3.756,3.756,0,0,0,3.91,4.077c9.338,1.82,18.884,1.8,28.348,2.179,3.989.162,7.925.6,11.882.965" transform="translate(330.189 138.034)" fill="#361907"/>
          <path id="Path_1527" data-name="Path 1527" d="M92.253,45.3c-.042-.563-.078-1.126-.115-1.689-.047-.746.094-1.835-.558-1.913-.558-.063-.673.991-.631,1.736.25,4.458.308,8.91.558,13.373.282,4.974.516,9.958.673,14.943.031,1.095.182,2.466.813,2.789.834.433,1.095-1.277,1.043-2.32q-.446-9.612-1.147-19.2c-.188-2.57-.443-5.141-.636-7.716" transform="translate(383.212 175.689)" fill="#fff"/>
          <path id="Path_1528" data-name="Path 1528" d="M92.906,45.342c.005-.563.016-1.126.026-1.689.016-.751.25-1.825-.4-1.955-.547-.115-.751.928-.772,1.679-.125,4.463-.438,8.9-.563,13.368q-.2,7.477-.584,14.943c-.057,1.1-.021,2.477.579,2.852.8.506,1.2-1.178,1.236-2.221q.36-9.62.459-19.229c.031-2.581-.01-5.167.016-7.748" transform="translate(381.761 175.672)" fill="#fff"/>
          <path id="Path_1529" data-name="Path 1529" d="M93.813,43.947C91.8,40.615,86.6,36.194,82.744,39.629a7.739,7.739,0,0,0-2.013,3.389c-2.1,6.215-.073,13.1,4.041,18.024a10.874,10.874,0,0,0,2.961,2.607c3.488,1.955,5.975-.235,7.289-3.5a18.657,18.657,0,0,0-.4-14.682,15.68,15.68,0,0,0-.808-1.517" transform="translate(336.651 161.749)" fill="#fdb082"/>
          <path id="Path_1530" data-name="Path 1530" d="M124.223,80.5a5.409,5.409,0,0,1-.485.381,9.3,9.3,0,0,1-1.867.928c-4.2,1.7-8.17,3.342-12.644,3.843a48.844,48.844,0,0,1-13.718-.709c-1.387-.24-2.44-.839-3.764-1.178-1.913-.49-3.811-1.069-5.673-1.731A10.869,10.869,0,0,1,83.2,80.65c-2.091-1.564-1.554-3.1-.876-5.115.089-.261.177-.527.261-.8a50.465,50.465,0,0,0,2.706-12.513c.266-5.4-.037-10.813.109-16.246a5.044,5.044,0,0,1,.469-2.367c1.257-2.221,5.678.235,7.211,1.178.73.443,1.616,1.486,2.435,1.684.918.224,2.049-.558,2.977-.673,1.382-.177,2.576-.537,3.879-.6l.042-.005a8.047,8.047,0,0,1,1.736.12,17.824,17.824,0,0,1,5.615,2.649,17.78,17.78,0,0,1,5.709-2.43,7.856,7.856,0,0,1,1.736-.052l.042.005c1.3.12,2.487.527,3.858.756,4.056.667,4.213,4.765,3.921,8.441-.089,1.152-.229,2.268-.3,3.217-.182,2.383-.3,4.781-.292,7.174a56.351,56.351,0,0,0,.594,8.389c.125.782.3,1.549.428,2.3.3,1.747.334,3.373-1.236,4.745" transform="translate(344.334 179.963)" fill="#fdb082"/>
          <path id="Path_1531" data-name="Path 1531" d="M118.469,49.739c.793,1.522.115,3.285-.615,4.906a13.238,13.238,0,0,1-5.787,6.679,21.255,21.255,0,0,1-27.852-8.3,7.61,7.61,0,0,1-1.069-4.192c.182-1.913,1.569-1.778,3.332-2.19,8.431-1.976,17.545-3.274,26-.678a12.272,12.272,0,0,1,5.464,3.024,3.48,3.48,0,0,1,.532.751" transform="translate(350.27 187.568)" fill="#ed7d6b"/>
          <path id="Path_1532" data-name="Path 1532" d="M136.784,50.627A35.4,35.4,0,0,0,131.3,40.261a21.9,21.9,0,0,0-13.519-8.592c-5.594-1.189-11.392-.365-17.054.459a44.914,44.914,0,0,0-10,2.263c-3.42,1.345-4.906,3.066-6.705,6.178a23.173,23.173,0,0,0-2.565,6.241,10.328,10.328,0,0,0-.381,1.877,78.9,78.9,0,0,0-.386,9.927c.089,4.275.464,8.556.954,12.8.407,3.535.918,7.06,1.611,10.553.72,3.639,2.086,7.153,2.789,10.772C87.2,98.724,91.8,104.73,96.179,108.9c7.482,7.122,18.937,11.048,28.348,5.193,4.354-2.534,8.191-7.378,10.4-11.856a48.208,48.208,0,0,0,4.135-15.2,96.352,96.352,0,0,0-.641-30.245,47.625,47.625,0,0,0-1.637-6.158" transform="translate(339.926 130.94)" fill="#fdb082"/>
          <path id="Path_1533" data-name="Path 1533" d="M134.864,49.165a15.609,15.609,0,0,0-5.344-1.022,9.936,9.936,0,0,0-5.506,1.382c-2.5,1.621-3.764,4.63-4.322,7.565s-.547,5.965-1.267,8.864a18.667,18.667,0,0,1-8.243,11.3c-1.366.839-2.836,1.5-4.135,2.445-4.932,3.592-5.177,9.906-4.541,15.433.7,6.116,2.388,12.226,1.611,18.332a23.278,23.278,0,0,1-2.941,8.65A3.639,3.639,0,0,1,99.1,123.4a3.842,3.842,0,0,1-1.512.48,41.334,41.334,0,0,1-15.579-.5,3.513,3.513,0,0,1-1.783-.8,3.657,3.657,0,0,1-.746-1.616c-1.549-5.667-3.118-11.616-1.825-17.352.761-3.384,2.477-6.5,3.2-9.891,1.877-8.775-3.118-18.175-.328-26.71,2.5-7.69,10.5-12.19,14.625-19.15,1.554-2.633,2.55-5.594,4.312-8.087,5.683-7.993,18.952-10.933,28.165-10.454a24.02,24.02,0,0,1,11.241,3.019c4.265,2.591,6.3,7.769,8.347,12.091a10.265,10.265,0,0,1,.506,5.146c-.235,3.149-2.711,4.546-5.746,3.472a30.9,30.9,0,0,1-4.844-2.805,14.9,14.9,0,0,0-2.273-1.084" transform="translate(325.22 123.366)" fill="#361907"/>
          <path id="Path_1534" data-name="Path 1534" d="M89.449,36.681c.109,2.117.026,4.38.719,6.283a24.157,24.157,0,0,0,4.072,6.569c2.331,2.92,4.958,5.7,6.392,9.145,2.9,6.96.4,15.313,3.441,22.216-.386-.876,2-5.339,2.341-6.382a53.228,53.228,0,0,0,1.867-6.981c.751-4.041,1.361-8.019-.047-11.893-3.04-8.373-6.486-17.284-13.806-22.352a5.775,5.775,0,0,0-2.461-1.121,2.4,2.4,0,0,0-2.383.985,3.7,3.7,0,0,0-.235,2.273c.047.407.078.829.1,1.257" transform="translate(376.229 135.438)" fill="#361907"/>
          <path id="Path_1535" data-name="Path 1535" d="M103.879,42.2a14.647,14.647,0,0,1-1.658-.276c-.912-.308-1.83-.61-2.758-.86a27.729,27.729,0,0,0-5.688-.959c-1.225-.063-5.845.407-4.838-1.762.62-1.335,2.769-1.257,4.062-1.2a27.767,27.767,0,0,1,6.522,1.032,7.974,7.974,0,0,1,4.7,3.968c.036.068-.109.078-.339.063" transform="translate(374.162 156.411)" fill="#361907"/>
          <path id="Path_1536" data-name="Path 1536" d="M89.841,38.174a14.666,14.666,0,0,0-4.625,2.179A8.512,8.512,0,0,0,83.5,42.016a9.871,9.871,0,0,0-.693,1.006c.005-.005-.511.834-.25.72,4.145-1.783,8.483-3.389,13.035-3.634,1.225-.063,5.839.407,4.833-1.762-.615-1.335-2.763-1.257-4.062-1.2a27.541,27.541,0,0,0-6.523,1.032" transform="translate(347.573 156.411)" fill="#361907"/>
          <path id="Path_1537" data-name="Path 1537" d="M93.41,56.578C91.929,52.9,90.522,49.107,90.36,45.1a15.467,15.467,0,0,1,1-6.4c.224-.568-1.319-.7-1.512-.209a17.854,17.854,0,0,0-.537,10.475,40.109,40.109,0,0,0,1.642,5.407c.323.865.667,1.726,1.012,2.586A4.28,4.28,0,0,1,92.4,58.34a2.042,2.042,0,0,1-.407,1.22,5.052,5.052,0,0,1-4.14,2.372c-.235,0-.787.068-.787.4s.568.4.787.4a6.92,6.92,0,0,0,4.479-1.606A5.22,5.22,0,0,0,93.806,59.2a3.407,3.407,0,0,0-.4-2.623" transform="translate(366.877 160.943)" fill="#ed7d6b"/>
          <path id="Path_1538" data-name="Path 1538" d="M100.007,40.713l.052-.052c.448-.417.9-.839,1.35-1.262a5.7,5.7,0,0,0-2.935.688,10.93,10.93,0,0,1-4.937.662c-.772-.078-1.5-.219-2.273-.245a7.337,7.337,0,0,0-1.22.036,5.715,5.715,0,0,1-1.058.24A32.1,32.1,0,0,0,91.868,42.2a7.839,7.839,0,0,0,7.08-.6c.261,0,.824-.641,1.058-.881" transform="translate(374.968 165.859)" fill="#361907"/>
          <path id="Path_1539" data-name="Path 1539" d="M84.34,40.713l-.052-.052c-.448-.417-.9-.839-1.35-1.262a5.7,5.7,0,0,1,2.935.688,10.93,10.93,0,0,0,4.938.662c.772-.078,1.5-.219,2.273-.245a7.337,7.337,0,0,1,1.22.036,5.715,5.715,0,0,0,1.058.24A32.1,32.1,0,0,1,92.479,42.2a7.839,7.839,0,0,1-7.08-.6c-.261,0-.824-.641-1.058-.881" transform="translate(349.487 165.859)" fill="#361907"/>
          <path id="Path_1540" data-name="Path 1540" d="M94.87,47.76A17.315,17.315,0,0,1,85.876,45.3a.566.566,0,0,1-.183-.777.554.554,0,0,1,.772-.182c5.209,3.2,12.414,3.05,17.143-.349a.562.562,0,1,1,.657.912,16.158,16.158,0,0,1-9.4,2.857" transform="translate(360.746 184.918)" fill="#ed7d6b"/>
          <path id="Path_1541" data-name="Path 1541" d="M101.388,32.655a10.9,10.9,0,0,0-11.314,1.189,13.673,13.673,0,0,0-4.082,5.031c-.188.386.918.5,1.084.151a11.88,11.88,0,0,1,7.769-6.648,8.152,8.152,0,0,1,8.884,3.671,5.823,5.823,0,0,1,.464,5.62c-.2.37.9.5,1.085.156,1.846-3.431-.839-7.555-3.89-9.171" transform="translate(362.262 133.046)" fill="#7e3e1a"/>
          <path id="Path_1542" data-name="Path 1542" d="M97.5,35.248c-2.1,6.158-4.573,13.029-10.61,16.377a11.274,11.274,0,0,1-4.927,1.47c-.167.005-.563.047-.563.287s.407.3.563.287a14.009,14.009,0,0,0,8.645-3.723A23.912,23.912,0,0,0,96.4,41.306c.829-1.929,1.512-3.921,2.19-5.907.146-.422-.965-.506-1.084-.151" transform="translate(343.014 147.591)" fill="#7e3e1a"/>
          <path id="Path_1543" data-name="Path 1543" d="M89.672,36.471c-1.773,3-4.249,6.173-7.925,6.731-.167.026-.49.125-.4.355.089.214.516.224.693.2,4.03-.61,6.747-3.806,8.712-7.133.209-.349-.886-.485-1.084-.151" transform="translate(342.727 152.875)" fill="#7e3e1a"/>
          <path id="Path_1544" data-name="Path 1544" d="M84.2,35.436a12.757,12.757,0,0,0-5.782,11.236c.021.407,1.147.391,1.126,0A12.314,12.314,0,0,1,85,35.842c.532-.349-.485-.61-.8-.407" transform="translate(330.367 149.019)" fill="#7e3e1a"/>
          <path id="Path_1545" data-name="Path 1545" d="M92.677,34.368a.9.9,0,0,0-.772-.1c-.146.047-.417.235-.2.4a10.453,10.453,0,0,1,3.843,10.428c-.078.344,1.032.412,1.126,0a10.8,10.8,0,0,0-3.994-10.72" transform="translate(386.083 144.201)" fill="#7e3e1a"/>
          <path id="Path_1546" data-name="Path 1546" d="M100.36,62.355a28.7,28.7,0,0,0-2.075-7.3c-1.032-2.4-2.315-4.682-3.326-7.091a16.9,16.9,0,0,1-1.575-8.478c.042-.375-1.079-.417-1.126,0-.594,5.162,2.179,9.792,4.291,14.281a28.906,28.906,0,0,1,2.888,14.7c-.193,2.378-.808,4.875-2.581,6.58-.37.355.709.542.97.292a9.634,9.634,0,0,0,2.607-5.7,25.637,25.637,0,0,0-.073-7.284" transform="translate(388.415 165.14)" fill="#7e3e1a"/>
          <path id="Path_1547" data-name="Path 1547" d="M94.682,43.918c-.078-.412-1.194-.355-1.126,0a9.721,9.721,0,0,1-.975,6.439c-.2.37.9.5,1.084.151a10.01,10.01,0,0,0,1.017-6.59" transform="translate(390.021 183.849)" fill="#7e3e1a"/>
          <path id="Path_1548" data-name="Path 1548" d="M92.269,30.395a.929.929,0,0,0-.8,0A25.269,25.269,0,0,0,81.429,40.16c-.2.36.892.49,1.084.151a24.556,24.556,0,0,1,9.755-9.51c.209-.109.193-.292,0-.407" transform="translate(343.023 127.699)" fill="#7e3e1a"/>
          <path id="Path_1549" data-name="Path 1549" d="M107.979,139.8c1.674-4.421,3.483-8.718,5.24-12.784,5.678-13.134,12.993-26.054,14.02-40.329.7-9.844-1.731-24.213-9.1-31.544-17.529-17.419-38.556,40.412-41.674,51.1-5.016,17.19-7.607,34.985-10.1,52.722-1.147,8.165-2.159,17.013,1.872,24.208a14.906,14.906,0,0,0,5.266,5.6c3.644,2.159,8.108,2.268,12.341,2.164,3.889-.089,8.128-.443,10.97-3.1,5.151-4.812,3.858-14.187,4.3-20.464.62-9.051,3.462-18.561,6.872-27.576" transform="translate(275.342 218.677)" fill="#fdb082"/>
          <path id="Path_1550" data-name="Path 1550" d="M88.733,76.568c1.465.172,2.669-1.465,2.534-2.847a3.494,3.494,0,0,0-.292-1.043,3.1,3.1,0,0,0-.714-1.069,2.793,2.793,0,0,0-2.3-.657c-1.757.255-3.545,1.6-2.466,3.493a3.832,3.832,0,0,0,1.053,1.116,4.792,4.792,0,0,0,2.185,1.006" transform="translate(358.884 298.854)" fill="#66465f"/>
          <path id="Path_1551" data-name="Path 1551" d="M121.526,88.263a45.008,45.008,0,0,0-4.4-5.256c.219.24,1.752-2.581,1.825-2.753a10.85,10.85,0,0,0,.824-3.551c.073-1.721-.433-4.64-2.242-5.386a3.392,3.392,0,0,0-2.289-.141,6.447,6.447,0,0,0-2.132,1.538c-.866.766-1.731,1.538-2.591,2.3l-1.23,1.09a6.486,6.486,0,0,1-.918.772c-.912-.042-1.83.016-2.737.047-1.7.052-3.4.1-5.11.167-1.851.068-3.7.151-5.537.271-2.331.151-4.567-.136-6.533,1.418A9.616,9.616,0,0,0,85.4,84.233a10.526,10.526,0,0,1-1.345,2.956,11.222,11.222,0,0,0-1.272,2.758,19.862,19.862,0,0,0-.506,3.128,18.228,18.228,0,0,1-.516,3.144,14.218,14.218,0,0,1-1.251,2.821,23.925,23.925,0,0,0-1.387,2.758,11.46,11.46,0,0,0-.662,3.071,41.206,41.206,0,0,0,.016,7.039,14.527,14.527,0,0,0,1.569,6.168,6.665,6.665,0,0,0,4,3.18c4.6,1.131,7.779-2.862,10.344-6.142a24.42,24.42,0,0,0,3.916,1.293,6.03,6.03,0,0,0,5.615-2.388,6.564,6.564,0,0,0,.892-3.848c.01.8,2.211-.349,2.409-.474a6.51,6.51,0,0,0,1.981-1.94,7.63,7.63,0,0,0,1.152-4.437.443.443,0,0,0,.2-.057,18.587,18.587,0,0,0,2.821-2.07,4,4,0,0,0,1.543-2.68c.125-1.23.057-2.5.073-3.733a30.7,30.7,0,0,0-.318-3.645,13.96,13.96,0,0,1,2.815,3.274,5.118,5.118,0,0,0,3.639,2.377c1.105.057,2.565-.089,2.7-1.376a9.367,9.367,0,0,0-1.095-5.094,18.786,18.786,0,0,0-1.21-2.054" transform="translate(330.013 299.348)" fill="#fdb082"/>
          <path id="Path_1552" data-name="Path 1552" d="M88.353,75.333c-.485.3-.97.589-1.449.886-1.314.8-.021,2.732.537,3.613a1.7,1.7,0,0,0,.266.339,1.558,1.558,0,0,0,.865.323,2.511,2.511,0,0,0,1.079-.042,2.148,2.148,0,0,0,1.314-2.159,4.76,4.76,0,0,0-1.215-2.972.932.932,0,0,0-.808-.287,1.494,1.494,0,0,0-.433.2l-.156.094" transform="translate(363.795 316.132)" fill="#66465f"/>
          <path id="Path_1553" data-name="Path 1553" d="M136.124,87.652a4.282,4.282,0,0,0-1.038-.631,8.156,8.156,0,0,0-3.639-.355c-2.669.146-5.652.709-8.306.454a60.043,60.043,0,0,1-6.59-1.236,52.89,52.89,0,0,1-7.81-2.336,53.447,53.447,0,0,1-8.863-4.38c-2.857-1.757-5.584-3.806-8.744-4.964a26.048,26.048,0,0,0-11.241-1.032A18.574,18.574,0,0,0,72.244,75.2c-7.2,4.135-7.993,14.328-5.021,21.3a11.522,11.522,0,0,0,1.887,3.154,15.036,15.036,0,0,0,4.281,3.04c3.478,1.856,7.106,3.024,10.647,4.63a64.684,64.684,0,0,0,11.674,4.275,77.744,77.744,0,0,0,12.044,1.549l10.313.782a160.886,160.886,0,0,0,16.1.156,14.62,14.62,0,0,0,5.626-.876,3.188,3.188,0,0,0,1.314-.959,3.867,3.867,0,0,0,.37-2.847c-.386-2.758-.959-5.386-1.293-8.154a78.458,78.458,0,0,0-1.439-8.3c-.448-1.945-1.137-4.077-2.617-5.292" transform="translate(276.431 307.614)" fill="#fdb082"/>
          <path id="Path_1554" data-name="Path 1554" d="M83.843,75.7a.752.752,0,0,0-.641.083,13.592,13.592,0,0,0-5.516,7.664c-.1.37.829.422.907.13a13.3,13.3,0,0,1,5.417-7.55c.188-.125-.052-.292-.167-.328" transform="translate(327.32 318.809)" fill="#ed7d6b"/>
          <path id="Path_1555" data-name="Path 1555" d="M80.2,83.49c1.038-2.477,2.524-4.828,2.753-7.56.031-.318-.907-.344-.938,0-.235,2.789-1.814,5.172-2.836,7.716a16.522,16.522,0,0,0-.652,9.015c.063.344.991.3.939,0a22.166,22.166,0,0,1-.308-4.807A12.914,12.914,0,0,1,80.2,83.49" transform="translate(329.523 318.908)" fill="#ed7d6b"/>
          <path id="Path_1556" data-name="Path 1556" d="M84.029,80.442a10.312,10.312,0,0,1-2.466-1.184.74.74,0,0,0-.662,0c-.177.094-.167.24,0,.339a10.951,10.951,0,0,0,2.654,1.257.714.714,0,0,0,.641-.083c.156-.146-.021-.287-.167-.328" transform="translate(340.356 333.651)" fill="#ed7d6b"/>
          <path id="Path_1557" data-name="Path 1557" d="M91.9,83.211c-.547-.7-.7-1.611-1.283-2.289a4.993,4.993,0,0,0-2.148-1.251c-2.1-.777-4.208-1.533-6.309-2.3-.334-.12-1.048.2-.474.412l5.834,2.127a5.372,5.372,0,0,1,2.19,1.152c.6.646.746,1.58,1.283,2.273.2.255,1.1.125.907-.125" transform="translate(343.316 325.923)" fill="#ed7d6b"/>
          <path id="Path_1558" data-name="Path 1558" d="M94.294,82.768c-2.164-4.317-7.1-5.824-11.413-7.023-.177-.047-.506-.068-.641.089s.005.282.167.328c4.161,1.157,8.895,2.57,10.986,6.731.141.287,1.064.193.9-.125" transform="translate(346.322 319.031)" fill="#ed7d6b"/>
          <path id="Path_1559" data-name="Path 1559" d="M99.233,79.864c-1.538-2.5-4.682-2.878-7.294-3.467a74.049,74.049,0,0,1-9.223-2.753c-.328-.125-1.043.2-.469.412a72.3,72.3,0,0,0,8.7,2.633c2.56.6,5.866.824,7.383,3.3.172.276,1.084.167.907-.125" transform="translate(345.663 310.204)" fill="#ed7d6b"/>
          <path id="Path_1560" data-name="Path 1560" d="M93.018,77.575a20.055,20.055,0,0,0-4-3.478c-1.345-.938-2.815-2.179-4.573-1.924-.136.021-.407.1-.328.292s.428.193.579.172a3.287,3.287,0,0,1,2.164.777q.978.649,1.924,1.335a18.412,18.412,0,0,1,3.425,3.066c.188.229,1.09.1.808-.24" transform="translate(354.401 303.983)" fill="#ed7d6b"/>
          <path id="Path_1561" data-name="Path 1561" d="M92.591,78.728a42.512,42.512,0,0,0-9.76-4.938,23.066,23.066,0,0,0-10.7-.4,9.384,9.384,0,0,0-4.859,2.122c-.313.287.589.448.813.24a8.092,8.092,0,0,1,4.077-1.861,29.056,29.056,0,0,1,4.984-.454,20.644,20.644,0,0,1,9.792,2.7c1.71.892,3.358,1.9,4.995,2.925.261.162,1.116-.057.662-.339" transform="translate(283.18 307.424)" fill="#ed7d6b"/>
          <path id="Path_1562" data-name="Path 1562" d="M100.283,73.292a46.106,46.106,0,0,1-15.626.1c-3.253-.574-6.549-1.564-9.8-.98-8.5,1.517-5.177,14.917-7.32,21.215-1.058,3.118-2.576,6.267-2.179,9.536a1.588,1.588,0,0,0,.386.985,1.706,1.706,0,0,0,1.064.339C83.89,105.972,101.987,104,117,95.649c12.44-6.924,24.8-19.114,21.924-34.7-4.015-.1-7.842,1.564-11.517,3.186-8.7,3.832-17.837,7.612-27.122,9.155" transform="translate(275.124 256.816)" fill="#e8df94"/>
          <path id="Path_1563" data-name="Path 1563" d="M112.437,79.31q-10.535.117-21.064-.334-2.988-.125-5.959-.3c-.167-.01-.563.057-.563.287,0,.245.4.282.563.287q10.511.618,21.059.662c1.986.005,3.973,0,5.965-.026.167,0,.563-.052.563-.287s-.407-.287-.563-.287" transform="translate(357.548 331.514)" fill="#66465f"/>
          <path id="Path_1564" data-name="Path 1564" d="M102.3,78.745c-.094-.224-.511-.214-.693-.2q-3.738.3-7.471.6c-.167.01-.485.13-.391.349s.506.219.688.2q3.738-.3,7.477-.6c.167-.016.48-.136.391-.355" transform="translate(394.961 330.953)" fill="#66465f"/>
          <path id="Path_1565" data-name="Path 1565" d="M124.331,99.166c-6-6.038-14.818-7.31-22.805-8.764a72.118,72.118,0,0,1-7.7-1.747c-.209-.063-.6-.083-.766.1s.005.334.2.391c8.16,2.424,17.06,2.424,24.729,6.413a21.369,21.369,0,0,1,5.375,3.895c.25.255,1.335.073.97-.292" transform="translate(391.859 373.389)" fill="#66465f"/>
          <path id="Path_1566" data-name="Path 1566" d="M113.015,117.609a75.236,75.236,0,0,0-6.173-16.893,72.734,72.734,0,0,0-5.214-8.7c-.219-.313-1.309-.167-1.084.156a74.011,74.011,0,0,1,8.379,15.819,74.741,74.741,0,0,1,4.364,17.367,73.032,73.032,0,0,1,.568,10.125c0,.4,1.121.407,1.131,0a74.174,74.174,0,0,0-1.971-17.873" transform="translate(423.545 387.001)" fill="#66465f"/>
          <path id="Path_1567" data-name="Path 1567" d="M102.981,60.866A84.022,84.022,0,0,0,91.218,75.48C87.741,80.7,84.492,86.08,80.78,91.142a73.346,73.346,0,0,1-6.9,8.186c-.365.365.714.547.97.287A94.48,94.48,0,0,0,86.369,84.75c3.441-5.24,6.71-10.6,10.506-15.595a66.1,66.1,0,0,1,7.08-8c.365-.355-.709-.542-.975-.292" transform="translate(311.013 255.994)" fill="#66465f"/>
          <path id="Path_1568" data-name="Path 1568" d="M97.894,63.382a65.659,65.659,0,0,1-20.172,17.4,65.292,65.292,0,0,1-6.778,3.264c-.224.094-.177.3,0,.407a.948.948,0,0,0,.8,0A66.412,66.412,0,0,0,94.021,69.3a66.2,66.2,0,0,0,4.958-5.772c.229-.3-.845-.464-1.084-.151" transform="translate(298.31 266.372)" fill="#66465f"/>
          <path id="Path_1569" data-name="Path 1569" d="M82.75,64.948a.948.948,0,0,0-.8,0c-4.552,1.992-9.3,4.062-14.354,4.072-.167,0-.563.052-.563.287s.407.287.563.287c5.349-.01,10.334-2.132,15.151-4.239.219-.1.182-.3,0-.407" transform="translate(282.478 273.305)" fill="#66465f"/>
          <path id="Path_1570" data-name="Path 1570" d="M162.269,180.935a2.817,2.817,0,0,1-2.815-2.816V102.66c0-7.544-5.641-13.681-12.576-13.681H62.8a2.815,2.815,0,0,1,0-5.631h84.073c10.042,0,18.207,8.66,18.207,19.312v75.46a2.817,2.817,0,0,1-2.815,2.816" transform="translate(252.783 351.214)" fill="#66465f"/>
          <path id="Path_1571" data-name="Path 1571" d="M180.043,163.994c1.434-6.413,1.006-13.624.876-19.713a184.965,184.965,0,0,0-4.765-37.331c-4.056-17.576-11.2-34-15.913-51.257-.089-.36-1.2-.37-1.09.063l.01.026A111.04,111.04,0,0,0,146.612,82.2a277.564,277.564,0,0,0-7.576,28.676c-2.336,10.522-4.687,21.048-6.507,31.674a187.2,187.2,0,0,0-3.045,32.539c.01,2.878-.985,6.59.407,9.155s4.619,4.124,7.4,4.453c4.046.474,8.055-.923,11.887-2.294q5.029-1.8,10.047-3.6c4.823-1.726,9.734-3.5,13.765-6.668,3.931-3.1,6-7.4,7.049-12.143" transform="translate(544.215 233.555)" fill="#fff"/>
          <path id="Path_1572" data-name="Path 1572" d="M259.328,180.863a29.006,29.006,0,0,0-.5-4.885q-.876-5.31-1.966-10.584a264.016,264.016,0,0,0-8.837-32.232q-3.59-10.449-8.055-20.579c-2.44-5.537-3.884-12.018-7.268-17.049A11.279,11.279,0,0,0,226.96,91.6c-.7-.266-1.413-.5-2.117-.714-.772-.24-1.528-.459-2.242-.688-3.483-1.121-6.877-2.623-10.313-3.921-.688-.266-1.382-.516-2.08-.756a38.367,38.367,0,0,0-7.122-1.814,33.7,33.7,0,0,0-5.224-.3c-.626.016-1.251.037-1.877.073-2.492.146-4.984.48-7.451.845q-5.169.759-10.313,1.684c-.62.11-1.236.219-1.856.334q-6.64,1.22-13.254,2.659c-.62.13-1.241.266-1.867.407-4.786,1.048-9.567,2.174-14.333,3.337-.636.151-1.277.308-1.914.464q-4.849,1.2-9.682,2.435c-1.533.386-3.081.787-4.588,1.288-.693.229-1.376.485-2.049.772a20.225,20.225,0,0,0-2.132,1.053c-3.134,1.8-3.571,3.936-4.635,7.32q-3.1,9.839-5.412,19.906a256.433,256.433,0,0,0-5.36,33.358,167.816,167.816,0,0,0-.49,21.517Z" transform="translate(465.707 351.459)" fill="#d3acc9"/>
          <path id="Path_1573" data-name="Path 1573" d="M131.975,178.756c-1.94-31.643-4.265-63.353-6.976-94.85-.615.109-1.23.219-1.851.334,2.7,31.387,5.016,62.983,6.945,94.516Z" transform="translate(518.925 353.566)" fill="#66465f"/>
          <path id="Path_1574" data-name="Path 1574" d="M136.384,180.859h1.882c-1.116-14.515-2.565-28.942-4-43.155l-5.48-54.3c-.626.016-1.246.037-1.877.073L132.4,137.9c1.429,14.15,2.873,28.514,3.983,42.962" transform="translate(534.777 351.463)" fill="#66465f"/>
          <path id="Path_1575" data-name="Path 1575" d="M147.528,179.152h1.893c-1.642-11.695-3.5-23.394-5.688-34.969-3.754-19.818-7.779-39.8-12.013-59.615-.688-.266-1.382-.516-2.08-.756,4.317,20.178,8.431,40.532,12.247,60.72,2.169,11.455,4.015,23.035,5.641,34.62" transform="translate(546.277 353.169)" fill="#66465f"/>
          <path id="Path_1576" data-name="Path 1576" d="M146.242,131.808c3.759,14.182,7.2,28.561,10.282,43h1.919c-3.118-14.6-6.585-29.145-10.386-43.489-1.851-6.987-4.1-14.119-6.267-21.017-2.555-8.134-5.157-16.4-7.226-24.755-.7-.261-1.413-.49-2.117-.709,2.132,8.806,4.864,17.492,7.555,26.027,2.159,6.872,4.4,13.989,6.241,20.939" transform="translate(558.105 357.51)" fill="#66465f"/>
          <path id="Path_1577" data-name="Path 1577" d="M114.345,169.928a363.327,363.327,0,0,1,5.229-67.613c.511-2.862,1.064-5.766,1.606-8.582.49-2.55.985-5.13,1.45-7.732-.693.229-1.377.485-2.049.772-.4,2.216-.829,4.421-1.241,6.606-.542,2.821-1.1,5.735-1.611,8.608a365.5,365.5,0,0,0-5.261,67.941Z" transform="translate(473.806 362.394)" fill="#66465f"/>
          <path id="Path_1578" data-name="Path 1578" d="M123.856,176.337c-.407-30.61-.98-61.3-1.741-91.857-.626.13-1.241.266-1.867.407.756,30.417,1.324,60.976,1.726,91.451Z" transform="translate(506.705 355.984)" fill="#66465f"/>
          <path id="Path_1579" data-name="Path 1579" d="M118.339,173.312c.474-29.375,1.642-58.848,3.509-88.114-.641.151-1.277.308-1.913.464-1.846,29.114-3,58.431-3.467,87.65Z" transform="translate(490.772 359.01)" fill="#66465f"/>
          <path id="Path_1580" data-name="Path 1580" d="M171.5,78.244a14.445,14.445,0,0,1-3.817,1.163c-7.43,1.747-15.016,2.628-22.545,3.8-3.806.584-7.6,1.241-11.356,2.112-1.867.438-3.728.928-5.568,1.486-1.022.313-3.024,1.46-3.942.438a3.391,3.391,0,0,1-.641-2c-.4-4.223-.548-8.483-1.043-12.7-.162-1.392-.365-2.784-.626-4.166-.631-3.337-2.054-7.769-.871-11.215a6.438,6.438,0,0,1,.688-1.429l.042-.068a22.167,22.167,0,0,1,8.624-7.56,92.123,92.123,0,0,1,17.826-6.9c5.224-1.449,9.812,2.539,12.226,6.877,1.96,3.514,2.9,7.487,4.15,11.314a72.8,72.8,0,0,0,7.169,15.511c1.074,1.741,1.481,2.3-.318,3.332" transform="translate(508.325 172.375)" fill="#fdb082"/>
          <path id="Path_1581" data-name="Path 1581" d="M140.635,48.888A30.8,30.8,0,0,1,133,60.556c-2.054,1.945-6.919,6.142-10.412,5.9-.162-1.4-.365-2.789-.62-4.166-.636-3.337-2.059-7.769-.876-11.215a8,8,0,0,1,1.043-.975c1.105-.86,2.508-1.022,3.587-1.846a46.622,46.622,0,0,1,7.539-4.64,10.234,10.234,0,0,1,3.869-1.257,4,4,0,0,1,3.587,1.554c.954,1.434.521,3.358-.078,4.974" transform="translate(508.325 178.461)" fill="#ed7d6b"/>
          <path id="Path_1582" data-name="Path 1582" d="M123.465,181.871c6.934,21.319,7.414,42.571,6.168,64.782a102.606,102.606,0,0,1-1.376,11.637H245.108c-2.805-7.247-5.407-14.375-6.2-22.6-.412-4.26.063-8.551-.8-12.774-1.851-9.072-.448-19.276.349-28.483q.993-11.5,2.993-22.873c.782-4.437,1.788-8.817,2.649-13.217.558-2.868,1.048-5.746,1.371-8.66,2.9-26.132,9.494-57.7-7.6-80.387-8.5-11.288-23.227-20.793-37.534-21.778-24.177-1.663-51.361,9.593-71.914,21.351a43.688,43.688,0,0,0-8.66,6.027c-5.923,5.647-8.6,13.916-9.807,22-2.742,18.394.485,39.057,4.473,57.029,2.122,9.562,6.012,18.629,9.041,27.946" transform="translate(459.014 199.531)" fill="#fff"/>
          <path id="Path_1583" data-name="Path 1583" d="M143.908,134.508c1.8,1.648,3.655,3.264,5.542,4.828,2.059,1.71,4.265,3.41,6.882,4,6.59,1.491,12.951-4.739,15.7-10.011a17.319,17.319,0,0,0,2.169-6.5c.323-4.082-1.721-7.967-3.978-11.387a77.043,77.043,0,0,0-17.331-18.639c-6.616-5.089-14.01-9.056-20.986-13.634a142.867,142.867,0,0,1-30.928-27.425c-1.882-2.237-3.895-4.661-6.721-5.407a11.73,11.73,0,0,0-5.474.182c-3.019.652-5.975,1.694-8.113,4.015-3.055,3.321-.469,5.886,2.122,8.665,21.34,22.936,38.066,50.256,61.117,71.3" transform="translate(334.091 211.059)" fill="#fdb082"/>
          <path id="Path_1584" data-name="Path 1584" d="M243.582,103.668q.493-.735.938-1.517c6.924-12.2,4.708-32.623-4.166-43.358-17.034-20.605-43.5,3.227-59.709,12.023-6.648,3.613-13.937,5.855-20.918,8.77a116.8,116.8,0,0,0-34.505,22.232c.761-1.757-1.163-3.816-3.071-3.66a4.807,4.807,0,0,0-3.879,3.738c0-2.044-.021-4.187-1.022-5.965-1.632-2.909-6.867-5.391-8.989-1.971-3.66,5.9-7.237,11.861-10.558,17.962-2.237,4.108-9.15,13.42-7.565,18.285.793,2.44,3.634,3.415,5.714,4.922a20.914,20.914,0,0,1,3.436,3.389c5.417,6.231,10.313,16.012,19.213,17.691,10.521,1.992,24.375,1.47,34.276-2.769,3.817-1.632,7.372-3.957,11.413-4.885,5.876-1.356,12,.4,18.024.115,11.893-.558,21.83-8.811,30.788-16.653q10.566-9.252,21.137-18.5c3.431-3,6.919-6.079,9.442-9.849" transform="translate(378.845 213.333)" fill="#fff"/>
          <path id="Path_1585" data-name="Path 1585" d="M84.544,44.329a8.312,8.312,0,0,0-1.788,1.35L77.474,50.46c-1.4,1.267-2.894,2.727-3.024,4.609a7.425,7.425,0,0,0,.652,3.008q2.033,5.529,4.067,11.069a20.92,20.92,0,0,0,2.576,5.36,17.586,17.586,0,0,0,3.551,3.373c4.291,3.279,9.02,5.928,13.353,9.145a34.841,34.841,0,0,0,4.578,3.133,13.734,13.734,0,0,0,7.649,1.455,9.75,9.75,0,0,0,4.312-1.4,9.486,9.486,0,0,0,3.926-8.551,16.57,16.57,0,0,0-3.79-8.947,43.738,43.738,0,0,0-4.181-4.5c-.9-.876-2.649-1.825-3.055-3.061,1.867-.381,3.551-2.106,3.18-4.129a3.178,3.178,0,0,0-4.489-2.164,9.345,9.345,0,0,0,2.529-1.731,3.193,3.193,0,0,0,.907-2.815c-.344-1.392-1.882-2.169-3.311-2.284s-2.857.25-4.291.24a21.794,21.794,0,0,0,3.2-2.763c.735-.777,1.46-1.887.985-2.847a2.216,2.216,0,0,0-1.147-.959c-1.653-.725-3.551-.459-5.349-.318-2.842.224-6.319.391-9.083-.448-2.195-.667-4.348-1.778-6.668-.61" transform="translate(313.683 184.642)" fill="#fdb082"/>
          <path id="Path_1586" data-name="Path 1586" d="M72.8,64.268l-.339-.813a2.743,2.743,0,0,1,1.475-3.587l38.6-16.074,2.445,5.876-38.6,16.074A2.737,2.737,0,0,1,72.8,64.268" transform="translate(304.45 184.536)" fill="#568b81"/>
          <path id="Path_1587" data-name="Path 1587" d="M86.375,42.929l-6.4,4.5,2.445,5.876,7.706-1.371Z" transform="translate(337.011 180.895)" fill="#e8df94"/>
          <rect id="Rectangle_226" data-name="Rectangle 226" width="4.665" height="9.76" transform="translate(423.387 223.824) rotate(-22.61)" fill="#e8df94"/>
          <path id="Path_1588" data-name="Path 1588" d="M98.392,50.211a5.051,5.051,0,0,1-4.3,4.995l-.485.068-7.826,1.184-3.754-9.009,6.747-5.016.1-.078a5.062,5.062,0,0,1,2.915-.923,5.726,5.726,0,0,1,.73.052,5.06,5.06,0,0,1,3.926,3.055L98,48.272a5.016,5.016,0,0,1,.391,1.94" transform="translate(345.665 174.583)" fill="#fff"/>
          <path id="Path_1589" data-name="Path 1589" d="M92.871,50.211a5.051,5.051,0,0,1-4.3,4.995l-.485.068a1.789,1.789,0,0,1-.083-.339,4.721,4.721,0,0,0-.13-1.017c-.318-.845-1.5-.965-2.1-1.637a2.673,2.673,0,0,1-.344-2.346,5.715,5.715,0,0,0,.266-2.43c-.24-1.069-1.21-1.8-1.783-2.732a3.946,3.946,0,0,1-.558-2.419,5.062,5.062,0,0,1,2.914-.923,5.726,5.726,0,0,1,.73.052,5.06,5.06,0,0,1,3.926,3.055l1.554,3.733a5.016,5.016,0,0,1,.391,1.94" transform="translate(351.186 174.583)" fill="#ed7d6b"/>
          <path id="Path_1590" data-name="Path 1590" d="M107.006,77.263c-2.9-7.065-9.531-11.5-13.905-17.534-2.258-3.118-3.613-6.778-5.8-9.943a23.778,23.778,0,0,0-3.77-4.865c-2.737-2.315-6.564-1.757-6.434,2.268A17.644,17.644,0,0,0,79.4,54.8c2.4,4.223,5.584,8.227,6.872,12.962.6,2.252.667,4.437,1.689,6.575a20.351,20.351,0,0,0,6.095,7.445,19.642,19.642,0,0,0,4.234,2.44,9.581,9.581,0,0,0,5.589.819,5.075,5.075,0,0,0,3.613-2.581c.792-1.668.167-3.592-.49-5.193" transform="translate(324.85 183.553)" fill="#fdb082"/>
          <path id="Path_1591" data-name="Path 1591" d="M83.643,48.884c.626-.834-.083-1.715-.6-2.617a8.241,8.241,0,0,0-1.293-1.851,2.778,2.778,0,0,0-3.874-.146c-1.658,1.627-.193,4.526.845,6.085.443.662.97.62,1.627.308A13.067,13.067,0,0,0,83.34,49.2a1.869,1.869,0,0,0,.3-.313" transform="translate(325.002 183.512)" fill="#fff"/>
          <path id="Path_1592" data-name="Path 1592" d="M143.724,121.615q-1.29-1.376-2.565-2.784-2.542-2.8-5.005-5.678c-3.285-3.822-6.481-7.722-9.635-11.658q-4.168-5.216-8.269-10.48C110.533,81.177,102.556,71,93.968,61.677l-.057-.063-.068-.031c-.3-.13-.558-.25-.8-.37a27.305,27.305,0,0,1-3.733-2.508c-.266-.2-.527-.4-.793-.594-2.065-1.533-4.249-2.956-6.366-4.338q-1.392-.907-2.779-1.83c-.454-.3-.892-.61-1.345-.912-.052-.031-1.157-.584-1.131-.375.13.938,1.429,1.491,2.122,1.955.907.6,1.814,1.2,2.727,1.794,2.106,1.371,4.281,2.789,6.33,4.312.261.193.521.391.782.589a27.413,27.413,0,0,0,3.843,2.57c.229.12.485.24.766.365,8.545,9.291,16.5,19.432,24.187,29.239,6.22,7.935,12.451,15.871,19.067,23.478q2.292,2.643,4.651,5.224c.787.86,1.58,1.71,2.377,2.56.631.667.954,1.324,1.95,1.267a.1.1,0,0,0,.057-.021c.125-.136-.678-.938-.683-.944-.469-.454-.9-.954-1.35-1.429" transform="translate(324.035 213.253)" fill="#ed7d6b"/>
          <path id="Path_1593" data-name="Path 1593" d="M141.5,102.014c-.209-.6-1.559-1.23-2.054-1.58-1.152-.813-2.325-1.6-3.509-2.377-2.383-1.559-4.818-3.05-7.247-4.536-2.45-1.5-4.979-3.05-7.419-4.651A142.364,142.364,0,0,1,90.423,61.518l-.063-.078A37.48,37.48,0,0,0,87.8,58.6a5.054,5.054,0,0,1-.688-1.861,19.932,19.932,0,0,0-.876-2.315A19.455,19.455,0,0,0,83.713,50.3a5.369,5.369,0,0,0-1.856-1.637,13.679,13.679,0,0,1,1.4,2.508q.727,1.306,1.46,2.612A22.578,22.578,0,0,1,87.1,58.9l.026.1.078.073a36.231,36.231,0,0,1,2.586,2.852L89.85,62a143.222,143.222,0,0,0,31.007,27.5c2.451,1.6,4.984,3.16,7.44,4.661,2.362,1.444,4.724,2.894,7.044,4.406,1.194.777,2.372,1.564,3.535,2.383.579.407,1.163.813,1.726,1.246.36.271,1.236.8.9-.182" transform="translate(344.931 205.049)" fill="#ed7d6b"/>
          <path id="Path_1594" data-name="Path 1594" d="M82.073,50.392a15.519,15.519,0,0,1-.918-6.277c.026-.318-.912-.344-.938,0-.594,7.769,5.428,13.7,8.3,20.37a20.6,20.6,0,0,1,1.1,3.238,23.947,23.947,0,0,0-3.233-1.559,16.686,16.686,0,0,1-3.936-1.825,30.906,30.906,0,0,1-3.008-2.471A8.816,8.816,0,0,1,77.156,58.7c-.115-.287-1.043-.214-.907.13a9.143,9.143,0,0,0,2.273,3.175,30.008,30.008,0,0,0,3.118,2.57,14.139,14.139,0,0,0,3.707,1.783,23.47,23.47,0,0,1,4.213,2.049.408.408,0,0,0,.224.052,15.344,15.344,0,0,1,.276,2.08c.021.334.954.323.938,0-.459-7.649-6.5-13.2-8.926-20.151" transform="translate(321.243 184.845)" fill="#ed7d6b"/>
          <path id="Path_1595" data-name="Path 1595" d="M89.063,57.633c-1.324-1.429-2.654-2.873-3.905-4.385a.734.734,0,0,0,.3-.068l1.2-.547a.212.212,0,0,0,.136-.172c0-.073-.073-.136-.136-.167a.794.794,0,0,0-.662,0c-.4.182-.787.36-1.178.542a32.241,32.241,0,0,1-3.89-5.886,1.406,1.406,0,0,0,.146-.021c.229-.068.464-.13.7-.2a.341.341,0,0,0,.214-.141.148.148,0,0,0-.047-.188.563.563,0,0,0-.276-.109,1.071,1.071,0,0,0-.365.026c-.2.057-.4.109-.6.167-.156-.328-.3-.667-.443-1.006-.12-.292-1.048-.214-.907.125,1.955,4.739,5.464,8.561,8.905,12.268.2.224,1.105.078.808-.24" transform="translate(334.305 190.884)" fill="#ed7d6b"/>
          <path id="Path_1596" data-name="Path 1596" d="M84.567,51.086c-.042-.2-.3-.24-.469-.24-.1,0-.506.052-.469.24a4.526,4.526,0,0,1-.923,3.744c-.136.162.235.282.323.3a.631.631,0,0,0,.579-.167,4.735,4.735,0,0,0,.959-3.874" transform="translate(348.384 214.256)" fill="#ed7d6b"/>
          <path id="Path_1597" data-name="Path 1597" d="M133.65,43.344a26.631,26.631,0,0,0-2.941,7.508c-1.006,4.447-.933,9.114-1.418,13.608a18.578,18.578,0,0,1-5.13,11.121c-3.055,3.358-6.715,6.225-9.124,10.073-1.251,2.007,3.483,4.614,4.672,5.892,3.926,4.228,2.508,9.875,2.915,15.078.407,5.151,2.513,9.437,7.425,11.606a21.881,21.881,0,0,0,8.566,1.741,29.038,29.038,0,0,0,9.8-1.434,35.306,35.306,0,0,0,8.389-5.01,77.886,77.886,0,0,0,13.973-13.692,3.065,3.065,0,0,1,1.017-.923c.756-.349,1.543-.016,2.325-.057.688-.042,1.314-.313,2-.4a11.323,11.323,0,0,1,4.969.735c18.306,4.927,24.766-14.7,24.9-29.213.057-6.262-.375-13.055-2.132-19.088-1.992-6.867-5.8-10.36-11.825-13.978a58.544,58.544,0,0,0-27.758-8.525,40.323,40.323,0,0,0-14.411,1.981,29.591,29.591,0,0,0-16.21,12.977" transform="translate(483.865 119.489)" fill="#fdb082"/>
          <path id="Path_1598" data-name="Path 1598" d="M201.264,110.755a33.6,33.6,0,0,0-1.163-5.506c-1.668-5.475-4.938-10.36-6.611-15.834-1.919-6.283-1.642-12.993-2.393-19.521-1.272-11.137-5.746-22.081-13.556-30.12a39.73,39.73,0,0,0-22.18-11.648c-4.072-.62-7.873.063-11.887.037-4.8-.037-9.348-.438-14.036.954a24.181,24.181,0,0,0-7.273,3.869c-2.237,1.59-2.732,3.827-2.336,6.58a28.189,28.189,0,0,0,1.908,6.069C123.979,51.4,125.794,57.3,127.6,63.21c2.216,6.486,4.041,13.144,5.991,19.708,3.076,10.323,6.914,21.716,4.812,32.685-.975,5.094-3.535,10.037-2.925,15.188.428,3.629,2.388,6.887,3.316,10.417,3.076,11.726-5.553,23.681-4.364,35.746.49,4.948,2.617,9.6,3.212,14.536.725,6.012-.86,12.086-.49,18.123.558,8.957,7.623,14.536,15.48,17.56a11.014,11.014,0,0,1,.537-12.352q2.878,3.081,5.766,6.163a11.2,11.2,0,0,0,2.226,1.992c3.123,1.913,6.267.136,9.541.485,2.544.271,4.906,1.559,7.451,2.117,3.055.667,7.477,2.393,9.333-1.084a28.591,28.591,0,0,0,3.332-12.6,23.154,23.154,0,0,1,3.686,9.187c.224,1.361.584,3.045,1.919,3.389a3.368,3.368,0,0,0,1.83-.224c6.288-2.018,12.138-1.2,12.451-9.374.255-6.715-4.427-12.889-2.935-19.687.589-2.69,2.159-5.089,2.81-7.769,2.049-8.426-5.292-16.559-4.875-25.219.172-3.608,1.689-7.018,2.164-10.595.965-7.341-2.456-14.192-4.656-20.975-2.232-6.872-1.043-12.862-1.95-19.875" transform="translate(504.417 117.418)" fill="#7e3e1a"/>
          <path id="Path_1599" data-name="Path 1599" d="M123.115,41.543a10.842,10.842,0,0,1,.6-.933c1.809-2.477,6.105-4.437,9.088-2.988,3.118,1.517,3.916,6.194,3.77,9.249a21.062,21.062,0,0,1-3.53,10.657,9.984,9.984,0,0,1-3.478,3.41,4.96,4.96,0,0,1-4.713.115,6.109,6.109,0,0,1-2.32-2.92c-2.08-4.724-1.986-12.034.584-16.59" transform="translate(510.167 156.452)" fill="#fdb082"/>
          <path id="Path_1600" data-name="Path 1600" d="M118.194,36.665a3.2,3.2,0,0,0,.714.647,5.584,5.584,0,0,0,1.861.735,59.988,59.988,0,0,1,6.267,1.429c1.475.532,3.285,2,4.964,1.5a.549.549,0,0,0,.24-.12.442.442,0,0,0,.1-.308c.037-1.074-.928-1.913-1.814-2.6a14.693,14.693,0,0,0-9.328-3.3c-1.512.037-4,.709-3.008,2.023" transform="translate(497.095 145.96)" fill="#7e3e1a"/>
          <path id="Path_1601" data-name="Path 1601" d="M118.365,38.428a2.25,2.25,0,0,1,2.784-1.84c1.84.516,1.8,3.608,1.376,5.063a1.945,1.945,0,0,1-3.217,1.522c-1.251-1.053-1.392-3.233-.944-4.745" transform="translate(497.79 153.79)" fill="#361907"/>
          <path id="Path_1602" data-name="Path 1602" d="M117.664,47.925c-.537-1.731-1.606-4.729.886-5.3a12.5,12.5,0,0,1,2.424-.12,28.367,28.367,0,0,0,5.37-1.131c1.408-.328,3.029-.673,2.779,1.189a7.771,7.771,0,0,1-6.434,6.7,14.155,14.155,0,0,1-2.487.182,2.634,2.634,0,0,1-2.127-.636,2.469,2.469,0,0,1-.407-.86l-.005-.021" transform="translate(492.891 173.235)" fill="#fff"/>
          <path id="Path_1603" data-name="Path 1603" d="M134.539,65.849a71.3,71.3,0,0,1-11.945-35.991c-.016-.4-1.142-.391-1.126,0a71.988,71.988,0,0,0,7.685,28.806,70.271,70.271,0,0,0,4.3,7.336c.214.323,1.309.182,1.084-.151" transform="translate(511.845 124.565)" fill="#361907"/>
          <path id="Path_1604" data-name="Path 1604" d="M131.139,47.43a52.307,52.307,0,0,1-6.887-15.146c-.1-.349-1.21-.292-1.09.151a52.458,52.458,0,0,0,6.893,15.146c.214.323,1.3.182,1.084-.151" transform="translate(518.947 135.085)" fill="#361907"/>
          <path id="Path_1605" data-name="Path 1605" d="M134.587,36.357a52.324,52.324,0,0,0-3.618-5.6c-.229-.313-1.314-.156-1.085.156a52.12,52.12,0,0,1,10.151,27.764c.026.407,1.152.391,1.126,0a52.863,52.863,0,0,0-6.575-22.32" transform="translate(547.178 128.89)" fill="#361907"/>
          <path id="Path_1606" data-name="Path 1606" d="M145.878,78.527C143.829,70.3,138.2,63.7,134.616,56.17c-2.07-4.348-3.509-9.093-3.014-13.952.042-.375-1.085-.412-1.126,0-.871,8.587,4.015,16.246,8.227,23.285a56.021,56.021,0,0,1,5.469,11.048,22.05,22.05,0,0,1,.985,10.339,14.146,14.146,0,0,1-5.36,9.427c-.214.156.057.344.2.4a.917.917,0,0,0,.772-.1c5.537-4.03,6.668-11.809,5.1-18.082" transform="translate(549.376 176.654)" fill="#361907"/>
          <path id="Path_1607" data-name="Path 1607" d="M132.719,48.477c-.162-.344-1.267-.24-1.084.151a17.889,17.889,0,0,1,.553,13.681c-.151.417.954.506,1.09.156a18.281,18.281,0,0,0-.558-13.989" transform="translate(554.599 203.397)" fill="#361907"/>
          <path id="Path_1608" data-name="Path 1608" d="M127.75,65.14c-3.791-6.257-2.847-13.869-1.105-20.615.089-.334-1.017-.412-1.126,0-1.757,6.8-2.67,14.468,1.147,20.767.2.334,1.3.2,1.084-.151" transform="translate(522.519 186.438)" fill="#361907"/>
          <path id="Path_1609" data-name="Path 1609" d="M139.825,89.636c-2.336-7.758-7.263-14.4-9.786-22.086-1.429-4.343-2.106-9.082-.9-13.566.12-.438-.991-.5-1.084-.151-2.138,7.951,1.3,15.9,4.844,22.884,3.4,6.7,7.252,13.613,6.966,21.371a16.294,16.294,0,0,1-3.884,10.459c-.355.386.725.558.97.287,4.7-5.167,4.791-12.836,2.878-19.2" transform="translate(536.81 225.894)" fill="#361907"/>
          <path id="Path_1610" data-name="Path 1610" d="M130.082,60.671c-.162-.344-1.267-.24-1.085.151a14.086,14.086,0,0,1-.709,13.118c-.214.349.881.49,1.085.156a14.424,14.424,0,0,0,.709-13.426" transform="translate(540.469 254.781)" fill="#361907"/>
          <path id="Path_1611" data-name="Path 1611" d="M127.263,69.69a18.526,18.526,0,0,1-1.392-14.812c.141-.428-.97-.506-1.085-.151a18.861,18.861,0,0,0,1.392,15.115c.188.339,1.288.214,1.084-.151" transform="translate(521.738 229.662)" fill="#361907"/>
          <path id="Path_1612" data-name="Path 1612" d="M136.234,56.035c-.177-.339-1.283-.224-1.084.151a20.885,20.885,0,0,1,1.783,14.578c-.083.339,1.027.412,1.126,0a21.134,21.134,0,0,0-1.825-14.729" transform="translate(569.396 235.272)" fill="#361907"/>
          <path id="Path_1613" data-name="Path 1613" d="M135.357,57.147c-.146-.344-1.256-.25-1.084.151a8.831,8.831,0,0,1-.219,7.3c-.188.381.912.5,1.085.151a9.151,9.151,0,0,0,.219-7.6" transform="translate(564.788 239.916)" fill="#361907"/>
          <path id="Path_1614" data-name="Path 1614" d="M134.713,41.891c-.219-.323-1.309-.177-1.084.151a16.3,16.3,0,0,1,2.769,9.734c-.016.391,1.111.407,1.126,0a16.605,16.605,0,0,0-2.81-9.885" transform="translate(562.96 175.76)" fill="#361907"/>
          <path id="Path_1615" data-name="Path 1615" d="M136.786,62.6c-.177-.339-1.283-.224-1.084.151a10.181,10.181,0,0,1,.266,8.712c-.177.4.928.5,1.084.151a10.5,10.5,0,0,0-.266-9.015" transform="translate(571.722 262.919)" fill="#361907"/>
          <path id="Path_1616" data-name="Path 1616" d="M127.206,71.968a14.223,14.223,0,0,1-1.856-9.729c.063-.36-1.053-.412-1.126,0a14.48,14.48,0,0,0,1.9,9.88c.2.334,1.3.2,1.084-.151" transform="translate(522.624 261.044)" fill="#361907"/>
          <path id="Path_1617" data-name="Path 1617" d="M129.554,58.77A8.444,8.444,0,1,1,138,50.328a8.453,8.453,0,0,1-8.446,8.441m0-15.386a6.945,6.945,0,1,0,6.945,6.945,6.952,6.952,0,0,0-6.945-6.945" transform="translate(510.328 176.484)" fill="#e8df94"/>
          <path id="Path_1618" data-name="Path 1618" d="M127.48,43.538a2.628,2.628,0,1,1-2.628-2.628,2.63,2.63,0,0,1,2.628,2.628" transform="translate(515.031 172.388)" fill="#e8df94"/>
          <path id="Path_1619" data-name="Path 1619" d="M126.993,80.667A107.74,107.74,0,0,1,114.48,80.5c-.193-.016-.594-.031-.688.2s.229.339.391.355a109.415,109.415,0,0,0,12.81.193c.167-.005.563-.047.563-.287s-.407-.292-.563-.287" transform="translate(479.427 339.16)" fill="#568b81"/>
          <path id="Path_1620" data-name="Path 1620" d="M188.564,80.182q-13.5.164-27,.323-13.4.164-26.815.323l-15.188.188c-.172,0-.563.047-.563.287s.4.287.563.287l27-.328q13.4-.156,26.815-.323,7.594-.094,15.188-.182c.167,0,.563-.047.563-.287s-.407-.287-.563-.287" transform="translate(501.429 337.873)" fill="#568b81"/>
          <path id="Path_1621" data-name="Path 1621" d="M218.206,82.54c-.063-.224-.521-.229-.688-.219q-20.295,1.447-40.647,2.028-20.209.587-40.433.313-11.348-.148-22.691-.568c-.162-.005-.563.037-.568.271s.4.3.553.3q20.311.751,40.642.641,20.287-.109,40.569-1.069,11.442-.547,22.863-1.356c.183-.016.464-.115.4-.344" transform="translate(476.917 346.876)" fill="#568b81"/>
          <path id="Path_1622" data-name="Path 1622" d="M129.514,76.91a44.273,44.273,0,0,0-10.026-19.547,43.708,43.708,0,0,0-4.536-4.416.862.862,0,0,0-.772-.1c-.162.052-.4.219-.2.391a43.759,43.759,0,0,1,12.591,17.691,42.816,42.816,0,0,1,1.82,5.985c.094.412,1.2.349,1.126,0" transform="translate(479.962 222.479)" fill="#568b81"/>
          <path id="Path_1623" data-name="Path 1623" d="M140.505,63.6a52.162,52.162,0,0,1-8.8,13.546,53.387,53.387,0,0,1-12.419,10.209,51.3,51.3,0,0,1-8.207,3.921c-.688.255.167.647.573.5a52.974,52.974,0,0,0,14.239-7.988,53.676,53.676,0,0,0,11.168-11.924,51.437,51.437,0,0,0,4.531-8.108c.177-.4-.928-.5-1.085-.151" transform="translate(466.974 267.103)" fill="#568b81"/>
          <path id="Path_1624" data-name="Path 1624" d="M101.945,95.319c-.094-.224-.511-.219-.693-.2-.349.031-.777-.652-.923-.886a13.56,13.56,0,0,1-.777-1.5,21.638,21.638,0,0,1-1.142-3.081,28.414,28.414,0,0,1-1.027-6.585,73.6,73.6,0,0,1,.938-13.321q.587-4.333,1.173-8.66c.047-.37-1.069-.417-1.126,0-.693,5.12-1.522,10.24-1.945,15.391A35.938,35.938,0,0,0,97.5,90.407a21.583,21.583,0,0,0,1.528,3.613,2.555,2.555,0,0,0,2.524,1.653c.167-.016.48-.136.391-.355" transform="translate(405.428 256.177)" fill="#568b81"/>
          <path id="Path_1625" data-name="Path 1625" d="M98.043,64.444c-.073-.412-1.189-.36-1.126,0a110.529,110.529,0,0,1,1.569,14.938c.016.407,1.142.4,1.126,0a110.517,110.517,0,0,0-1.569-14.938" transform="translate(408.381 270.336)" fill="#568b81"/>
          <path id="Path_1626" data-name="Path 1626" d="M105.342,61.826a180.718,180.718,0,0,1-9.776,20.084Q94,84.662,92.349,87.363c-.214.349.881.49,1.085.156A179.333,179.333,0,0,0,103.908,67.79q1.314-2.878,2.518-5.813c.167-.4-.938-.5-1.084-.151" transform="translate(389.028 259.622)" fill="#568b81"/>
          <path id="Path_1627" data-name="Path 1627" d="M132.982,54.1a154.024,154.024,0,0,0-10.97,15.673,120.438,120.438,0,0,1-11.168,15.485,49.193,49.193,0,0,1-7.852,7.164c-.214.156.057.344.2.4a.916.916,0,0,0,.772-.1,59.041,59.041,0,0,0,12.941-13.551c3.754-5.193,7.039-10.7,10.6-16.017a103.835,103.835,0,0,1,6.444-8.754c.339-.407-.735-.568-.97-.292" transform="translate(433.657 227.368)" fill="#568b81"/>
          <path id="Path_1628" data-name="Path 1628" d="M143.926,65.784q-2.393,14.5-4.526,29.046t-3.989,29.13q-1.048,8.212-2.013,16.439c-.042.37,1.079.412,1.131,0q1.7-14.6,3.681-29.166t4.223-29.1q1.267-8.18,2.617-16.351c.057-.36-1.058-.417-1.126,0" transform="translate(562.115 275.972)" fill="#568b81"/>
          <path id="Path_1629" data-name="Path 1629" d="M143.165,77.532a40.725,40.725,0,0,1-7.242-4.473.9.9,0,0,0-.772-.1c-.151.052-.417.235-.2.4a42.455,42.455,0,0,0,7.419,4.588.93.93,0,0,0,.8,0c.193-.109.219-.3,0-.407" transform="translate(568.309 307.238)" fill="#568b81"/>
          <path id="Path_1630" data-name="Path 1630" d="M31.436,142.6H27.8a11.284,11.284,0,0,1-11.283-11.283V82.57A11.284,11.284,0,0,1,27.8,71.287h3.639A11.284,11.284,0,0,1,42.719,82.57v48.749A11.284,11.284,0,0,1,31.436,142.6" transform="translate(69.587 300.391)" fill="#fff"/>
          <path id="Path_1631" data-name="Path 1631" d="M16.889,72.575V127.7a3.845,3.845,0,0,0,3.848,3.848h14.6a3.853,3.853,0,0,0,3.853-3.848V72.575Z" transform="translate(71.167 305.819)" fill="#568b81"/>
          <rect id="Rectangle_227" data-name="Rectangle 227" width="15.767" height="12.763" transform="translate(91.32 358.91)" fill="#361907"/>
          <rect id="Rectangle_228" data-name="Rectangle 228" width="7.133" height="73.192" transform="translate(32.529 459.13)" fill="#361907"/>
          <rect id="Rectangle_229" data-name="Rectangle 229" width="7.133" height="73.192" transform="translate(265.712 459.13)" fill="#361907"/>
          <rect id="Rectangle_230" data-name="Rectangle 230" width="273.997" height="63.056" transform="translate(15.694 450.871)" fill="#d3acc9"/>
          <rect id="Rectangle_231" data-name="Rectangle 231" width="273.997" height="10.886" transform="translate(15.694 442.988)" fill="#361907"/>
          <path id="Path_1632" data-name="Path 1632" d="M136.742,134.712H5.061V88.168H136.742ZM6.948,132.835H134.854V90.045H6.948Z" transform="translate(21.326 371.525)" fill="#fff"/>
          <path id="Path_1633" data-name="Path 1633" d="M144.685,107.9H31.873V88.168H144.685ZM33.755,106.025H142.8V90.045H33.755Z" transform="translate(134.307 371.525)" fill="#fff"/>
          <path id="Path_1634" data-name="Path 1634" d="M144.685,113.044H31.873V93.31H144.685ZM33.755,111.167H142.8V95.187H33.755Z" transform="translate(134.307 393.192)" fill="#fff"/>
          <path id="Path_1635" data-name="Path 1635" d="M50.158,93.4a4.129,4.129,0,1,1-4.129-4.129A4.132,4.132,0,0,1,50.158,93.4" transform="translate(176.555 376.16)" fill="#fff"/>
          <path id="Path_1636" data-name="Path 1636" d="M50.158,98.539a4.129,4.129,0,1,1-4.129-4.129,4.132,4.132,0,0,1,4.129,4.129" transform="translate(176.555 397.828)" fill="#fff"/>
          <path id="Path_1637" data-name="Path 1637" d="M25.156,95.968a4.129,4.129,0,1,1-4.129-4.129,4.132,4.132,0,0,1,4.129,4.129" transform="translate(71.201 386.994)" fill="#fff"/>
          <rect id="Rectangle_232" data-name="Rectangle 232" width="1.125" height="60.309" transform="translate(234.431 304.123) rotate(-43.266)" fill="#361907"/>
          <path id="Path_1638" data-name="Path 1638" d="M168.635,121.95H40.27L20,52.137h128.37Z" transform="translate(84.271 219.698)" fill="#7e3e1a"/>
          <path id="Path_1639" data-name="Path 1639" d="M148.974,54.238l-.61-2.1H20l.61,2.1Z" transform="translate(84.273 219.696)" fill="#fff"/>
          <path id="Path_1640" data-name="Path 1640" d="M37.282,69.744H35.77a4.7,4.7,0,0,1-4.7-4.7V63.535a4.7,4.7,0,0,1,4.7-4.7h1.512a4.7,4.7,0,0,1,4.7,4.7v1.512a4.7,4.7,0,0,1-4.7,4.7" transform="translate(130.932 247.929)" fill="#361907"/>
          <path id="Path_1641" data-name="Path 1641" d="M36.782,65.969H34.545A3.271,3.271,0,0,1,31.276,62.7V61.647a3.27,3.27,0,0,1,3.269-3.264h2.237a3.265,3.265,0,0,1,3.264,3.264V62.7a3.267,3.267,0,0,1-3.264,3.269" transform="translate(131.792 246.016)" fill="#361907"/>
          <path id="Path_1642" data-name="Path 1642" d="M38.278,64.4H31.464V60.227A2.935,2.935,0,0,1,34.4,57.292h.944a2.935,2.935,0,0,1,2.935,2.935Z" transform="translate(132.584 241.419)" fill="#361907"/>
          <path id="Path_1643" data-name="Path 1643" d="M40.662,94.9h-2.5A7.76,7.76,0,0,1,30.4,87.144V68.051a7.76,7.76,0,0,1,7.758-7.758h2.5a7.757,7.757,0,0,1,7.758,7.758V87.144A7.757,7.757,0,0,1,40.662,94.9" transform="translate(128.105 254.064)" fill="#ff9e8c"/>
          <path id="Path_1644" data-name="Path 1644" d="M47.974,95.921H31.754a1.461,1.461,0,0,1-1.46-1.46V61.645a1.461,1.461,0,0,1,1.46-1.46h16.22a1.464,1.464,0,0,1,1.46,1.46V94.461a1.464,1.464,0,0,1-1.46,1.46M31.754,61.311a.336.336,0,0,0-.334.334V94.461a.336.336,0,0,0,.334.334h16.22a.336.336,0,0,0,.334-.334V61.645a.336.336,0,0,0-.334-.334Z" transform="translate(127.654 253.609)" fill="#fff"/>
          <rect id="Rectangle_233" data-name="Rectangle 233" width="2.847" height="1.898" transform="translate(162.771 299.66)" fill="#361907"/>
          <rect id="Rectangle_234" data-name="Rectangle 234" width="9.958" height="6.637" transform="translate(162.536 319.571)" fill="#fff"/>
          <rect id="Rectangle_235" data-name="Rectangle 235" width="1.125" height="60.309" transform="matrix(0.728, -0.685, 0.685, 0.728, 113.996, 304.123)" fill="#361907"/>
          <rect id="Rectangle_236" data-name="Rectangle 236" width="9.583" height="5.438" transform="translate(198.006 321.469)" fill="#fff"/>
          <path id="Path_1645" data-name="Path 1645" d="M43.624,61.031a2.656,2.656,0,0,0-4.609,0,5.458,5.458,0,0,0-.61,3.775c.209,1.476.746,2.883,1.006,4.348a33.118,33.118,0,0,1,.407,4.6c.01.292.542.313.725.282l.777-.11.772.11c.188.031.714.01.73-.282a33.932,33.932,0,0,1,.4-4.6c.266-1.465.8-2.873,1.011-4.348a5.458,5.458,0,0,0-.61-3.775" transform="translate(161.477 251.647)" fill="#fff"/>
          <path id="Path_1646" data-name="Path 1646" d="M55.526,87.222H37.132V70.272a7.919,7.919,0,0,1,7.92-7.92h2.555a7.919,7.919,0,0,1,7.92,7.92Z" transform="translate(156.468 262.741)" fill="#e8df94"/>
          <path id="Path_1647" data-name="Path 1647" d="M52.846,70.031H39.807a2.677,2.677,0,0,1-2.675-2.675v-.433H55.521v.433a2.677,2.677,0,0,1-2.675,2.675" transform="translate(156.468 282.006)" fill="#fff"/>
          <path id="Path_1648" data-name="Path 1648" d="M42.893,121.95H40.265L20,52.137h2.628Z" transform="translate(84.273 219.698)" fill="#fff"/>
          <path id="Path_1649" data-name="Path 1649" d="M65.141,85.657H45.047a3.092,3.092,0,0,1-3.092-3.092V65.975a3.091,3.091,0,0,1,3.092-3.087H65.141a3.091,3.091,0,0,1,3.092,3.087v16.59a3.092,3.092,0,0,1-3.092,3.092" transform="translate(176.791 264.999)" fill="#74a59b"/>
          <rect id="Rectangle_237" data-name="Rectangle 237" width="10.511" height="6.569" transform="translate(226.63 323.946)" fill="#74a59b"/>
          <path id="Path_1650" data-name="Path 1650" d="M52.292,69.612H46.974a3.725,3.725,0,0,1-3.723-3.723v-1.2a3.725,3.725,0,0,1,3.723-3.723h5.318a3.725,3.725,0,0,1,3.723,3.723v1.2a3.725,3.725,0,0,1-3.723,3.723" transform="translate(182.252 256.904)" fill="#fff"/>
          <rect id="Rectangle_238" data-name="Rectangle 238" width="156.519" height="101.341" transform="translate(124.538 341.652)" fill="#fff"/>
          <rect id="Rectangle_239" data-name="Rectangle 239" width="165.899" height="32.654" transform="translate(124.543 374.676)" fill="#fff"/>
          <rect id="Rectangle_240" data-name="Rectangle 240" width="38.661" height="2.628" transform="translate(224.752 389.692)" fill="#ff9e8c"/>
          <rect id="Rectangle_241" data-name="Rectangle 241" width="38.661" height="2.628" transform="translate(216.874 356.85)" fill="#ff9e8c"/>
          <rect id="Rectangle_242" data-name="Rectangle 242" width="38.661" height="2.628" transform="translate(216.874 424.036)" fill="#ff9e8c"/>
          <rect id="Rectangle_243" data-name="Rectangle 243" width="156.519" height="0.751" transform="translate(124.538 407.33)" fill="#74a59b"/>
          <rect id="Rectangle_244" data-name="Rectangle 244" width="156.519" height="0.751" transform="translate(124.538 374.301)" fill="#74a59b"/>
          <path id="Path_1651" data-name="Path 1651" d="M33.781,166.869h-.725c-.235-4.546-.4-14.213-.308-34.907,0-.25,0-.5.005-.751.021-4.953.057-10.522.109-16.789.047-5.219.1-10.443.151-15.49.005-.125.005-.25.01-.375v-.375c.146-13.426.323-25.511.428-32.654H34.2c-.136,9.025-.3,20.558-.428,32.654v.375c-.005.125-.005.245-.01.375-.115,10.8-.214,22.018-.255,32.279-.005.25-.005.5-.005.751-.063,15.548-.01,28.8.276,34.907" transform="translate(137.895 276.124)" fill="#74a59b"/>
          <path id="Path_1652" data-name="Path 1652" d="M35.641,104.9l-.751-.005c.042-9.3.125-20.11.266-33.03l.751.005c-.141,12.92-.224,23.728-.266,33.03" transform="translate(147.02 302.814)" fill="#74a59b"/>
          <path id="Path_1653" data-name="Path 1653" d="M25.835,71.747c-.136-3.191-2.888-6.684-4.739-9.171a3.794,3.794,0,0,0-1.757-1.46,2.277,2.277,0,0,0-.255-.063h-.016l-.078-.01-.073-.005H18.9a1.514,1.514,0,0,0-.266.01,3.814,3.814,0,0,0-2.007,1.1c-2.284,2.086-5.657,4.99-6.4,8.1-.855,3.566.235,7.294,1.674,10.563.568,1.288.933,2.3,1.976,2.836v.078c.078.005.156.016.235.026a4.175,4.175,0,0,0,.688.2,14.621,14.621,0,0,0,1.96.2,14.569,14.569,0,0,0,1.966.172,3.406,3.406,0,0,0,.714-.063c.078.005.156.01.235.021l.016-.078c1.121-.318,1.674-1.251,2.477-2.409,2.039-2.93,3.822-6.376,3.665-10.047" transform="translate(41.835 257.194)" fill="#7e3e1a"/>
          <rect id="Rectangle_245" data-name="Rectangle 245" width="35.11" height="6.731" transform="translate(51.933 375.389) rotate(-84.488)" fill="#fff"/>
          <path id="Path_1654" data-name="Path 1654" d="M20.961,72.646,14.261,72,8.954,127.073a2.9,2.9,0,0,0,2.607,3.16l.928.094a2.9,2.9,0,0,0,3.165-2.607Z" transform="translate(37.674 303.391)" fill="#e8df94"/>
          <path id="Path_1655" data-name="Path 1655" d="M25.017,76.009a24.8,24.8,0,0,1-1.986,9.865,3.992,3.992,0,0,1-.688,1.194c-.766.829-2.487.928-3.514,1.178-.506.125-1.011.245-1.512.37-1.027.25-2.6.959-3.665.579a3.907,3.907,0,0,1-1.157-.74,24.662,24.662,0,0,1-6.324-7.826,23.064,23.064,0,0,1-2.612-8.1,12.159,12.159,0,0,1-.026-1.9c.584-9,13.368-12.5,18.681-5.48.182.25.36.506.516.772.083.141.167.276.245.422,1.58,2.868,2.007,6.465,2.044,9.666" transform="translate(14.77 258.823)" fill="#361907"/>
          <path id="Path_1656" data-name="Path 1656" d="M22.973,66.339a7.64,7.64,0,0,0-1.006.177,3.5,3.5,0,0,0-1.09.459c-.615.412-1.022,1.105-1.684,1.429-1.058.521-2.284-.068-3.446-.276a5.367,5.367,0,0,0-5.089,1.981c-.48.626-.881,1.413-1.637,1.642a3.843,3.843,0,0,1-1.747-.115,5.1,5.1,0,0,0-3.717.886,12.158,12.158,0,0,1-.026-1.9c.584-9,13.368-12.492,18.681-5.475a8.557,8.557,0,0,1,.516.766c.083.141.167.282.245.422" transform="translate(14.77 258.822)" fill="#7e3e1a"/>
          <path id="Path_1657" data-name="Path 1657" d="M19.1,91.059l-6.538,1.6L5.441,68.5l8.806-2.158Z" transform="translate(22.928 279.548)" fill="#fff"/>
          <path id="Path_1658" data-name="Path 1658" d="M13.345,71.082l-6.538,1.6,13.17,53.739a2.9,2.9,0,0,0,3.5,2.122l.907-.219a2.9,2.9,0,0,0,2.127-3.5Z" transform="translate(28.684 299.527)" fill="#361907"/>
          <path id="Path_1659" data-name="Path 1659" d="M18.672,68.535a5.03,5.03,0,0,0,.141-1.8,2.9,2.9,0,0,0-.839-1.616,3,3,0,0,0-.615-.469,2.171,2.171,0,0,0-.271-.13,2.878,2.878,0,0,0-.3-.01,2.977,2.977,0,0,0-2.252,1.173,5.153,5.153,0,0,0-.709,1.668,23.929,23.929,0,0,0-.855,5.631.644.644,0,0,0,.282.574c.083.532.9.438,1.5.5.568.219,1.236.683,1.559.25a.661.661,0,0,0,.521-.375,24.4,24.4,0,0,0,1.846-5.391" transform="translate(54.644 271.813)" fill="#ff9e8c"/>
          <path id="Path_1660" data-name="Path 1660" d="M15.293,76.937l-2.769-.678L14.385,66.6l3.728.912Z" transform="translate(52.774 280.634)" fill="#fff"/>
          <path id="Path_1661" data-name="Path 1661" d="M17.12,67.106,13.4,66.194,12.881,68.3l3.728.918Z" transform="translate(54.279 278.93)" fill="#fff"/>
          <rect id="Rectangle_246" data-name="Rectangle 246" width="58.225" height="2.931" transform="matrix(0.238, -0.971, 0.971, 0.238, 51.567, 412.872)" fill="#361907"/>
          <path id="Path_1662" data-name="Path 1662" d="M12.909,68.22a1.63,1.63,0,0,0-.24-.871,2.033,2.033,0,0,0-.98-.667,3.352,3.352,0,0,0-.579-.146,1.887,1.887,0,0,0-.24-.031,1.968,1.968,0,0,0-.245.031,3.352,3.352,0,0,0-.579.146,2.033,2.033,0,0,0-.98.667,1.579,1.579,0,0,0-.235.871,7.116,7.116,0,0,0,.412,2.763.441.441,0,0,0,.339.24c.172.24.8.1,1.288.063.49.036,1.111.177,1.283-.063a.432.432,0,0,0,.339-.24,7.121,7.121,0,0,0,.417-2.763" transform="translate(37.176 280.241)" fill="#7e3e1a"/>
          <path id="Path_1663" data-name="Path 1663" d="M11.953,79.636H9.106L8.9,67.347h3.253Z" transform="translate(37.516 283.787)" fill="#fff"/>
          <rect id="Rectangle_247" data-name="Rectangle 247" width="2.93" height="58.223" transform="translate(46.622 362.836)" fill="#7e3e1a"/>
          <rect id="Rectangle_248" data-name="Rectangle 248" width="33.426" height="34.25" transform="translate(32.831 381.22)" fill="#fff"/>
          <rect id="Rectangle_249" data-name="Rectangle 249" width="42.336" height="56.565" transform="translate(28.379 386.428)" fill="#ff9e8c"/>
          <path id="Path_1664" data-name="Path 1664" d="M13.031,74.572v53.869c0,.37,1.043.37,1.043,0V74.572c0-.365-1.043-.37-1.043,0" transform="translate(54.91 313.071)" fill="#fff"/>
          <path id="Path_1665" data-name="Path 1665" d="M6.042,74.572v53.869c0,.37,1.043.37,1.043,0V74.572c0-.365-1.043-.37-1.043,0" transform="translate(25.46 313.071)" fill="#fff"/>
          <path id="Path_1666" data-name="Path 1666" d="M7.789,74.572v53.869c0,.37,1.043.37,1.043,0V74.572c0-.365-1.043-.37-1.043,0" transform="translate(32.822 313.071)" fill="#fff"/>
          <path id="Path_1667" data-name="Path 1667" d="M9.536,74.572v53.869c0,.37,1.043.37,1.043,0V74.572c0-.365-1.043-.37-1.043,0" transform="translate(40.183 313.071)" fill="#fff"/>
          <path id="Path_1668" data-name="Path 1668" d="M11.283,74.572v53.869c0,.37,1.043.37,1.043,0V74.572c0-.365-1.043-.37-1.043,0" transform="translate(47.545 313.071)" fill="#fff"/>
          <path id="Path_1669" data-name="Path 1669" d="M42.2,94.61H36.436v-14.9L42.2,84.037Z" transform="translate(153.533 335.881)" fill="#ff9e8c"/>
          <rect id="Rectangle_250" data-name="Rectangle 250" width="6.731" height="14.901" transform="translate(189.486 423.764)" fill="#d3acc9"/>
          <path id="Path_1670" data-name="Path 1670" d="M41.541,92.735H40.206a4.137,4.137,0,0,1-4.14-4.14V87.261a4.14,4.14,0,0,1,4.14-4.14h1.335a4.143,4.143,0,0,1,4.14,4.14V88.6a4.14,4.14,0,0,1-4.14,4.14" transform="translate(151.976 350.258)" fill="#d3acc9"/>
          <path id="Path_1671" data-name="Path 1671" d="M41.549,83H37.133c-.214,0-.725.068-.725.365s.521.37.725.37h4.416c.214,0,.72-.068.72-.37S41.752,83,41.549,83" transform="translate(153.417 349.769)" fill="#606060"/>
          <path id="Path_1672" data-name="Path 1672" d="M39.8,99.8H34.9A15.191,15.191,0,0,1,19.711,84.608V81.151H54.993v3.457A15.2,15.2,0,0,1,39.8,99.8" transform="translate(83.059 341.956)" fill="#e8df94"/>
          <rect id="Rectangle_251" data-name="Rectangle 251" width="35.282" height="5.636" transform="translate(102.77 417.466)" fill="#361907"/>
          <path id="Path_1673" data-name="Path 1673" d="M150.009,65.359h-1.773a5.5,5.5,0,0,1-5.5-5.5V42.355a5.5,5.5,0,0,1,5.5-5.5h1.773a5.5,5.5,0,0,1,5.5,5.5V59.863a5.5,5.5,0,0,1-5.5,5.5" transform="translate(601.486 155.322)" fill="#fff"/>
          <rect id="Rectangle_252" data-name="Rectangle 252" width="3.379" height="192.526" transform="translate(748.92 4.52)" fill="#ff9e8c"/>
          <rect id="Rectangle_253" data-name="Rectangle 253" width="23.457" height="127.541" transform="translate(738.883 83.932)" fill="#fff"/>
          <rect id="Rectangle_254" data-name="Rectangle 254" width="58.176" height="9.036" transform="translate(721.709 0.005)" fill="#ff9e8c"/>
          <path id="Path_1674" data-name="Path 1674" d="M167,76.09h-1.773a5.5,5.5,0,0,1-5.5-5.5V53.086a5.5,5.5,0,0,1,5.5-5.5H167a5.5,5.5,0,0,1,5.5,5.5V70.594a5.5,5.5,0,0,1-5.5,5.5" transform="translate(673.075 200.54)" fill="#fff"/>
          <rect id="Rectangle_255" data-name="Rectangle 255" width="3.379" height="192.526" transform="translate(837.497 4.52)" fill="#ff9e8c"/>
          <rect id="Rectangle_256" data-name="Rectangle 256" width="23.457" height="127.541" transform="translate(827.461 139.882)" fill="#fff"/>
          <rect id="Rectangle_257" data-name="Rectangle 257" width="58.176" height="9.036" transform="translate(810.292 0.005)" fill="#ff9e8c"/>
          <path id="Path_1675" data-name="Path 1675" d="M30.915,35.392H29.533a4.29,4.29,0,0,1-4.291-4.286V29.72a4.29,4.29,0,0,1,4.291-4.286h1.382A4.286,4.286,0,0,1,35.2,29.72v1.387a4.286,4.286,0,0,1-4.286,4.286" transform="translate(106.365 107.174)" fill="#361907"/>
          <path id="Path_1676" data-name="Path 1676" d="M30.455,31.948H28.411a2.982,2.982,0,0,1-2.982-2.982V28a2.985,2.985,0,0,1,2.982-2.982h2.044A2.985,2.985,0,0,1,33.437,28v.965a2.982,2.982,0,0,1-2.982,2.982" transform="translate(107.153 105.426)" fill="#361907"/>
          <path id="Path_1677" data-name="Path 1677" d="M31.825,30.518H25.6V26.7a2.679,2.679,0,0,1,2.68-2.68h.866a2.679,2.679,0,0,1,2.68,2.68Z" transform="translate(107.874 101.225)" fill="#361907"/>
          <path id="Path_1678" data-name="Path 1678" d="M34,58.369H31.72a7.09,7.09,0,0,1-7.091-7.086V33.849a7.09,7.09,0,0,1,7.091-7.086H34a7.082,7.082,0,0,1,7.08,7.086V51.284A7.082,7.082,0,0,1,34,58.369" transform="translate(103.782 112.775)" fill="#ff9e8c"/>
          <path id="Path_1679" data-name="Path 1679" d="M40.678,59.3H25.866a1.337,1.337,0,0,1-1.335-1.335V28a1.337,1.337,0,0,1,1.335-1.335H40.678A1.337,1.337,0,0,1,42.013,28V57.964A1.337,1.337,0,0,1,40.678,59.3M25.866,27.692a.308.308,0,0,0-.308.308V57.964a.312.312,0,0,0,.308.308H40.678a.312.312,0,0,0,.308-.308V28a.308.308,0,0,0-.308-.308Z" transform="translate(103.369 112.362)" fill="#fff"/>
          <rect id="Rectangle_258" data-name="Rectangle 258" width="2.596" height="1.731" transform="translate(132.311 126.117)" fill="#361907"/>
          <rect id="Rectangle_259" data-name="Rectangle 259" width="9.093" height="6.064" transform="translate(132.092 144.298)" fill="#fff"/>
          <path id="Path_1680" data-name="Path 1680" d="M49.274,30.994H30.9a4.082,4.082,0,0,0-4.082,4.082V36.39A4.082,4.082,0,0,0,30.9,40.473H49.274a4.082,4.082,0,0,0,4.082-4.082V35.076a4.082,4.082,0,0,0-4.082-4.082" transform="translate(113.006 130.603)" fill="#fff"/>
          <path id="Path_1681" data-name="Path 1681" d="M26.818,31.647v4.181a1.793,1.793,0,0,0,1.674,1.893H51.678a1.789,1.789,0,0,0,1.674-1.893V31.647Z" transform="translate(113.006 133.355)" fill="#e8df94"/>
          <path id="Path_1682" data-name="Path 1682" d="M52.475,41.523H28.533a1.942,1.942,0,0,1-1.814-2.044V32.931a1.943,1.943,0,0,1,1.814-2.049H52.475a1.943,1.943,0,0,1,1.809,2.049V39.48a1.941,1.941,0,0,1-1.809,2.044M28.533,32.045a.838.838,0,0,0-.782.886V39.48a.838.838,0,0,0,.782.886H52.475a.842.842,0,0,0,.782-.886V32.931a.842.842,0,0,0-.782-.886Z" transform="translate(112.589 130.131)" fill="#fff"/>
          <path id="Path_1683" data-name="Path 1683" d="M52.651,33.721H28.24a1.5,1.5,0,0,1-1.507-1.5v-.49a1.5,1.5,0,0,1,1.507-1.5H52.651a1.5,1.5,0,0,1,1.5,1.5v.49a1.5,1.5,0,0,1-1.5,1.5" transform="translate(112.648 127.376)" fill="#361907"/>
          <rect id="Rectangle_260" data-name="Rectangle 260" width="10.297" height="5.688" transform="translate(100.163 127.864)" fill="#7e3e1a"/>
          <rect id="Rectangle_261" data-name="Rectangle 261" width="3.394" height="5.959" transform="translate(103.614 121.362)" fill="#feab4f"/>
          <rect id="Rectangle_262" data-name="Rectangle 262" width="7.08" height="5.959" transform="translate(101.769 125.429)" fill="#7e3e1a"/>
          <path id="Path_1684" data-name="Path 1684" d="M40.1,24.049,26.5,25.134H20.361a.82.82,0,0,1-.871-.751v-.667a.82.82,0,0,1,.871-.751H40.1Z" transform="translate(82.128 96.771)" fill="#7e3e1a"/>
          <path id="Path_1685" data-name="Path 1685" d="M48.34,35.048V59.277a4.7,4.7,0,0,1-4.7,4.7H21.911a4.7,4.7,0,0,1-4.7-4.7V35.048A9.488,9.488,0,0,1,26.7,25.554H38.845a9.48,9.48,0,0,1,9.494,9.494" transform="translate(72.533 107.68)" fill="#feab4f"/>
          <path id="Path_1686" data-name="Path 1686" d="M32,29.153V49.92H21.091V26.953H31.743a9.588,9.588,0,0,1,.255,2.2" transform="translate(88.874 113.575)" fill="#fff"/>
          <rect id="Rectangle_263" data-name="Rectangle 263" width="154.585" height="41.815" transform="translate(22.503 171.66)" fill="#fff"/>
          <path id="Path_1687" data-name="Path 1687" d="M147.705,64.631H5.5V33.995h142.2ZM7,63.135H146.2V35.5H7Z" transform="translate(23.189 143.249)" fill="#74a59b"/>
          <rect id="Rectangle_264" data-name="Rectangle 264" width="59.98" height="3.087" transform="translate(69.808 191.019)" fill="#74a59b"/>
          <path id="Path_1688" data-name="Path 1688" d="M51.584,37.49c-.725-1.663-1.955-3.029-2.57-4.75-.73-2.018-.448-4.072-.73-6.152a11.457,11.457,0,0,0-3.05-6.277,10.62,10.62,0,0,0-1.653-1.7,11.845,11.845,0,0,0-3.29-1.893,22.793,22.793,0,0,0-8.019-2.221,7.372,7.372,0,0,0-5.4,1.564,11.749,11.749,0,0,0-2.461,2.857A8.273,8.273,0,0,0,18.367,21.1a1.162,1.162,0,0,0-.162.063c-2.946,1.622-3.608,5.954-2.909,8.947a7.709,7.709,0,0,0,6.47,5.991,6.146,6.146,0,0,0,.819.036,101.908,101.908,0,0,0-4.317,9.625,51.837,51.837,0,0,0-2.284,10.568c-.49,3.556-.949,7.122-1.564,10.662A69.572,69.572,0,0,1,11.4,78.82c-.224.626,1.335.761,1.528.229,2.445-6.721,3.425-13.832,4.39-20.887a63.831,63.831,0,0,1,2.044-10.9,77.526,77.526,0,0,1,4.254-9.875c.229-.469.459-.938.693-1.413a13.4,13.4,0,0,1,1.95-.276c.469.136.938.261,1.413.391a9.478,9.478,0,0,1,1.423,1.314c.6.6,1.22,1.2,1.877,1.752a10.131,10.131,0,0,0,4.3,2.268c1.861.4,3.817-.057,5.626.6a11.79,11.79,0,0,1,4.531,3.478c1.257,1.413,2.378,2.883,4.176,3.639.255.1,1.241.1,1.189-.375a16.755,16.755,0,0,1-.057-2.8.324.324,0,0,0,.156-.271c.01-.365.005-.725-.005-1.09a15.353,15.353,0,0,1,.438-1.986,14.319,14.319,0,0,0,.7-2.664,4.864,4.864,0,0,0-.433-2.471" transform="translate(47.927 60.931)" fill="#74a59b"/>
          <path id="Path_1689" data-name="Path 1689" d="M38.124,42.155c-.959-1.043-.938-2.534-1.189-3.848a9.547,9.547,0,0,0-1.7-3.644,15.69,15.69,0,0,1-2.08-3.7,10.126,10.126,0,0,0-1.668-3.467c-2.915-3.389-8.42-3.279-10.756-7.32a15.347,15.347,0,0,0-2.1-3.488,5.964,5.964,0,0,0-4.108-1.314c-.636-.031-.631.553,0,.584a6.033,6.033,0,0,1,2.393.433,3.711,3.711,0,0,1,1.408,1.345c.641.975,1.032,2.091,1.679,3.061a11.086,11.086,0,0,0,4.911,3.6c1.893.865,3.989,1.622,5.454,3.17A8.785,8.785,0,0,1,32.1,31.008a14.381,14.381,0,0,0,2,3.634,9.736,9.736,0,0,1,1.861,4.145,6.518,6.518,0,0,0,1.257,3.66c.24.266,1.251.083.907-.292" transform="translate(59.187 64.77)" fill="#568b81"/>
          <path id="Path_1690" data-name="Path 1690" d="M43.194,33.84a6.947,6.947,0,0,0-2.529-4.52c-.063-.047-.125-.083-.188-.125a14.165,14.165,0,0,0-4.515-3c-.73-.318-1.47-.6-2.216-.876A33.86,33.86,0,0,0,26.3,20.883c-1.038-.464-2.091-.892-3.154-1.293a16.563,16.563,0,0,0-1.872-1.137A20.154,20.154,0,0,0,16,16.634a22.651,22.651,0,0,0-11.027.6c-.381.12-.532.448-.162.683a40.035,40.035,0,0,0,5.459,2.92,7.257,7.257,0,0,1,1.966,2c.855,1.309,1.277,2.847,2.68,3.712,1.345.824,3.024.9,4.03,2.237.834,1.111,1.215,2.492,2.07,3.587.959,1.225,2.325,1.465,3.655,2.091,1.528.714,1.814,2.435,2.831,3.639a7.272,7.272,0,0,0,1.8,1.429c.944.584,1.9,1.142,2.857,1.71l.37.229q.305,2.972.49,5.959c.355,5.912.063,11.872.626,17.774a34.962,34.962,0,0,0,2.091,9.369c.2.527,1.762.391,1.522-.229-2.112-5.433-2.3-11.314-2.378-17.07-.063-4.953-.229-9.885-.678-14.812a6.958,6.958,0,0,0,2.909.959,4.5,4.5,0,0,0,3.978-2.018,9.708,9.708,0,0,0,1.721-4.234,6.494,6.494,0,0,0,.381-3.337" transform="translate(19.372 68.336)" fill="#74a59b"/>
          <path id="Path_1691" data-name="Path 1691" d="M27.97,25c-1.069.2-2.4-.594-3.332-1.069-.876-.448-1.726-.944-2.586-1.413a22.842,22.842,0,0,0-5.4-2.1,21.866,21.866,0,0,1-5.589-1.851c-1.543-.876-2.878-2.153-4.765-2.1-.631.021-.641.6,0,.579A4.909,4.909,0,0,1,9.081,18.19a14.808,14.808,0,0,0,2.409,1.361,45.063,45.063,0,0,0,5.7,1.653,26.661,26.661,0,0,1,5.61,2.55c1.549.855,3.6,2.153,5.454,1.8.688-.13.235-.657-.282-.558" transform="translate(24.522 69.413)" fill="#568b81"/>
          <path id="Path_1692" data-name="Path 1692" d="M49.1,54.594A60.039,60.039,0,0,1,34,35.438a5.33,5.33,0,0,0,2.643-2.5,3.584,3.584,0,0,0-.7-4.062A7.487,7.487,0,0,0,32.6,26.992c-1.689-2.956-5.031-4.526-8.238-5.407a43.525,43.525,0,0,0-13.681-1.361A45.828,45.828,0,0,0,2.82,21.319c-.323.073-.959.485-.5.8,1.121.777,1.4,2.284,2.477,3.113,1.011.782,2.31.824,3.472,1.241,2.2.782,3.285,3.149,4.573,4.906A7.849,7.849,0,0,0,15.114,33.6a5.9,5.9,0,0,0,2.2.636,10.028,10.028,0,0,0,2.774,1.715,16.192,16.192,0,0,0,7.988.871,14.586,14.586,0,0,0,2.633-.386A17.563,17.563,0,0,0,32.549,36a60.624,60.624,0,0,0,9.557,13.879A59.256,59.256,0,0,0,47.69,55.2c.438.37,1.867-.229,1.413-.61" transform="translate(9.104 84.944)" fill="#74a59b"/>
          <path id="Path_1693" data-name="Path 1693" d="M26.1,25.184a17.2,17.2,0,0,1-5.944-1.053,15.05,15.05,0,0,0-4.891-1.616c-.933-.052-1.867.1-2.8.089a7.659,7.659,0,0,1-2.878-.834,20.893,20.893,0,0,0-5.626-1.184c-.422-.047-1.074.542-.386.62a19.794,19.794,0,0,1,5.928,1.4,6.513,6.513,0,0,0,2.466.615c.97.031,1.94-.146,2.909-.083,1.814.109,3.394,1.116,5.057,1.741a18.685,18.685,0,0,0,5.777.928c.417.021,1.074-.584.386-.62" transform="translate(13.81 86.731)" fill="#568b81"/>
          <rect id="Rectangle_265" data-name="Rectangle 265" width="27.373" height="41.32" transform="translate(44.046 130.341)" fill="#d3acc9"/>
          <path id="Path_1694" data-name="Path 1694" d="M26.671,47.013A11.954,11.954,0,0,1,29.94,50.22c.949,1.116,2.237,1.882,3.7,1.225a2.258,2.258,0,0,0,1.2-2.977,18.148,18.148,0,0,1-.574-1.856,8.125,8.125,0,0,1-.13-1.778,18.248,18.248,0,0,1,.542-3.514c.542-2.325,1.309-4.786.845-7.2a12.064,12.064,0,0,0-1.908-4c-.944-1.517-1.309-3.279-2.2-4.812a8.53,8.53,0,0,0-7.518-4.067A10.853,10.853,0,0,0,15.331,26.2l-.01.031c-.344.375-.662.766-.97,1.163l-.026.016A6.869,6.869,0,0,0,11.39,34.7a6.588,6.588,0,0,0,2.378,3.6c1.215.944,2.763,1.569,3.686,2.847.459.636.73,1.387,1.189,2.023,1.877,2.591,5.417,2.445,8.029,3.843" transform="translate(47.167 89.495)" fill="#74a59b"/>
          <path id="Path_1695" data-name="Path 1695" d="M25.554,38.865a9.3,9.3,0,0,1-2.1-3c-.37-1.105-.313-2.3-.636-3.425-.647-2.263-2.654-4.062-4.218-5.73a23.814,23.814,0,0,0-5.454-4.557c-.328-.193-1.184.4-.834.6a23.366,23.366,0,0,1,5.3,4.385c1.663,1.762,3.837,3.691,4.364,6.158a20.256,20.256,0,0,0,.62,3.264,9.777,9.777,0,0,0,1.966,2.732,21.839,21.839,0,0,1,3.926,6.465c.141.355,1.09-.1.938-.48a22.045,22.045,0,0,0-3.874-6.408" transform="translate(51.553 93.175)" fill="#568b81"/>
        </g>
      </g>
    </g>
  </g>
</svg>
