<svg xmlns="http://www.w3.org/2000/svg" width="132" height="132" viewBox="0 0 132 132">
  <g id="record-1" transform="translate(17750 -8518)">
    <path id="Path_562" data-name="Path 562" d="M292,195a66,66,0,1,1-66-66A66,66,0,0,1,292,195Z" transform="translate(-17910 8389)" fill="#131f4a"/>
    <path id="Path_563" data-name="Path 563" d="M181.666,157.6a14.929,14.929,0,1,1,29.858,0v17.285a14.929,14.929,0,0,1-29.858,0V170.23a2.357,2.357,0,1,1,4.714,0v4.651a10.215,10.215,0,0,0,20.429,0V157.6a10.215,10.215,0,1,0-20.429,0,2.357,2.357,0,1,1-4.714,0Z" transform="translate(-17880.598 8407.547)" fill="#fff" fill-rule="evenodd"/>
    <path id="Path_564" data-name="Path 564" d="M179.157,152.866a2.358,2.358,0,0,1,2.357,2.357v5.344a21.686,21.686,0,0,0,43.371,0v-5.344a2.357,2.357,0,1,1,4.714,0v5.344a26.4,26.4,0,1,1-52.8,0v-5.344A2.356,2.356,0,0,1,179.157,152.866Z" transform="translate(-17887.199 8421.39)" fill="#fff" fill-rule="evenodd"/>
    <path id="Path_565" data-name="Path 565" d="M195.431,153.591a10.285,10.285,0,0,0-7.114,0,2.358,2.358,0,1,1-1.624-4.427,15.026,15.026,0,0,1,10.36,0,2.357,2.357,0,1,1-1.622,4.427Z" transform="translate(-17875.873 8415.116)" fill="#fff" fill-rule="evenodd"/>
    <path id="Path_566" data-name="Path 566" d="M192.748,156.224a7.53,7.53,0,0,0-3.856,0,2.356,2.356,0,1,1-1.2-4.556,12.21,12.21,0,0,1,6.263,0,2.356,2.356,0,1,1-1.2,4.556Z" transform="translate(-17874.805 8419.21)" fill="#fff" fill-rule="evenodd"/>
    <path id="Path_567" data-name="Path 567" d="M189.357,165.333a2.358,2.358,0,0,1,2.357,2.357v9.429a2.357,2.357,0,0,1-4.714,0V167.69A2.357,2.357,0,0,1,189.357,165.333Z" transform="translate(-17873.357 8438.309)" fill="#fff" fill-rule="evenodd"/>
  </g>
</svg>
