<svg xmlns="http://www.w3.org/2000/svg" width="132" height="132" viewBox="0 0 132 132">
  <g id="record-2" transform="translate(17750 -8518)">
    <path id="Path_562" data-name="Path 562" d="M292,195a66,66,0,1,1-66-66A66,66,0,0,1,292,195Z" transform="translate(-17910 8389)" fill="#131f4a"/>
    <g id="Group_227" data-name="Group 227" transform="translate(-18296.449 8416.209)">
      <path id="Path_531" data-name="Path 531" d="M591.4,151.643a7.263,7.263,0,0,1,5.145-1.747h6.25a7.264,7.264,0,0,1,5.145,1.747,6.818,6.818,0,0,1,1.932,5.137v24.526a6.818,6.818,0,0,1-1.932,5.137,7.264,7.264,0,0,1-5.145,1.746h-6.25a7.263,7.263,0,0,1-5.145-1.746,6.817,6.817,0,0,1-1.932-5.137V156.78A6.817,6.817,0,0,1,591.4,151.643Zm5.336,5.525v23.75H602.6v-23.75Z" transform="translate(0)" fill="#fff" fill-rule="evenodd"/>
      <path id="Path_532" data-name="Path 532" d="M600.895,151.643a7.267,7.267,0,0,1,5.145-1.747h6.253a7.267,7.267,0,0,1,5.145,1.747,6.828,6.828,0,0,1,1.932,5.137v24.526a3.636,3.636,0,1,1-7.272,0V157.168h-5.865v23.756a3.636,3.636,0,0,1-.194,7.266,7.267,7.267,0,0,1-5.145-1.746,6.828,6.828,0,0,1-1.933-5.137V156.78A6.828,6.828,0,0,1,600.895,151.643Z" transform="translate(16.096)" fill="#fff" fill-rule="evenodd"/>
    </g>
  </g>
</svg>
